<svg width="279" height="83" viewBox="0 0 279 83" fill="none" xmlns="http://www.w3.org/2000/svg">
<rect width="279" height="83" rx="3" fill="#015792"/>
<path d="M99.88 63.16H94.06L93.06 66H90.68L95.66 52.08H98.3L103.28 66H100.88L99.88 63.16ZM99.24 61.3L96.98 54.84L94.7 61.3H99.24ZM107.725 56.6C108.112 56.0933 108.639 55.6667 109.305 55.32C109.972 54.9733 110.725 54.8 111.565 54.8C112.525 54.8 113.399 55.04 114.185 55.52C114.985 55.9867 115.612 56.6467 116.065 57.5C116.519 58.3533 116.745 59.3333 116.745 60.44C116.745 61.5467 116.519 62.54 116.065 63.42C115.612 64.2867 114.985 64.9667 114.185 65.46C113.399 65.94 112.525 66.18 111.565 66.18C110.725 66.18 109.979 66.0133 109.325 65.68C108.672 65.3333 108.139 64.9067 107.725 64.4V71.24H105.445V54.98H107.725V56.6ZM114.425 60.44C114.425 59.68 114.265 59.0267 113.945 58.48C113.639 57.92 113.225 57.5 112.705 57.22C112.199 56.9267 111.652 56.78 111.065 56.78C110.492 56.78 109.945 56.9267 109.425 57.22C108.919 57.5133 108.505 57.94 108.185 58.5C107.879 59.06 107.725 59.72 107.725 60.48C107.725 61.24 107.879 61.9067 108.185 62.48C108.505 63.04 108.919 63.4667 109.425 63.76C109.945 64.0533 110.492 64.2 111.065 64.2C111.652 64.2 112.199 64.0533 112.705 63.76C113.225 63.4533 113.639 63.0133 113.945 62.44C114.265 61.8667 114.425 61.2 114.425 60.44ZM121.28 56.6C121.667 56.0933 122.193 55.6667 122.86 55.32C123.527 54.9733 124.28 54.8 125.12 54.8C126.08 54.8 126.953 55.04 127.74 55.52C128.54 55.9867 129.167 56.6467 129.62 57.5C130.073 58.3533 130.3 59.3333 130.3 60.44C130.3 61.5467 130.073 62.54 129.62 63.42C129.167 64.2867 128.54 64.9667 127.74 65.46C126.953 65.94 126.08 66.18 125.12 66.18C124.28 66.18 123.533 66.0133 122.88 65.68C122.227 65.3333 121.693 64.9067 121.28 64.4V71.24H119V54.98H121.28V56.6ZM127.98 60.44C127.98 59.68 127.82 59.0267 127.5 58.48C127.193 57.92 126.78 57.5 126.26 57.22C125.753 56.9267 125.207 56.78 124.62 56.78C124.047 56.78 123.5 56.9267 122.98 57.22C122.473 57.5133 122.06 57.94 121.74 58.5C121.433 59.06 121.28 59.72 121.28 60.48C121.28 61.24 121.433 61.9067 121.74 62.48C122.06 63.04 122.473 63.4667 122.98 63.76C123.5 64.0533 124.047 64.2 124.62 64.2C125.207 64.2 125.753 64.0533 126.26 63.76C126.78 63.4533 127.193 63.0133 127.5 62.44C127.82 61.8667 127.98 61.2 127.98 60.44ZM134.835 51.2V66H132.555V51.2H134.835ZM138.988 53.52C138.575 53.52 138.228 53.38 137.948 53.1C137.668 52.82 137.528 52.4733 137.528 52.06C137.528 51.6467 137.668 51.3 137.948 51.02C138.228 50.74 138.575 50.6 138.988 50.6C139.388 50.6 139.728 50.74 140.008 51.02C140.288 51.3 140.428 51.6467 140.428 52.06C140.428 52.4733 140.288 52.82 140.008 53.1C139.728 53.38 139.388 53.52 138.988 53.52ZM140.108 54.98V66H137.828V54.98H140.108ZM142.342 60.48C142.342 59.3467 142.568 58.3533 143.022 57.5C143.488 56.6333 144.128 55.9667 144.942 55.5C145.755 55.0333 146.688 54.8 147.742 54.8C149.075 54.8 150.175 55.12 151.042 55.76C151.922 56.3867 152.515 57.2867 152.822 58.46H150.362C150.162 57.9133 149.842 57.4867 149.402 57.18C148.962 56.8733 148.408 56.72 147.742 56.72C146.808 56.72 146.062 57.0533 145.502 57.72C144.955 58.3733 144.682 59.2933 144.682 60.48C144.682 61.6667 144.955 62.5933 145.502 63.26C146.062 63.9267 146.808 64.26 147.742 64.26C149.062 64.26 149.935 63.68 150.362 62.52H152.822C152.502 63.64 151.902 64.5333 151.022 65.2C150.142 65.8533 149.048 66.18 147.742 66.18C146.688 66.18 145.755 65.9467 144.942 65.48C144.128 65 143.488 64.3333 143.022 63.48C142.568 62.6133 142.342 61.6133 142.342 60.48ZM154.334 60.44C154.334 59.3333 154.56 58.3533 155.014 57.5C155.48 56.6467 156.107 55.9867 156.894 55.52C157.694 55.04 158.574 54.8 159.534 54.8C160.4 54.8 161.154 54.9733 161.794 55.32C162.447 55.6533 162.967 56.0733 163.354 56.58V54.98H165.654V66H163.354V64.36C162.967 64.88 162.44 65.3133 161.774 65.66C161.107 66.0067 160.347 66.18 159.494 66.18C158.547 66.18 157.68 65.94 156.894 65.46C156.107 64.9667 155.48 64.2867 155.014 63.42C154.56 62.54 154.334 61.5467 154.334 60.44ZM163.354 60.48C163.354 59.72 163.194 59.06 162.874 58.5C162.567 57.94 162.16 57.5133 161.654 57.22C161.147 56.9267 160.6 56.78 160.014 56.78C159.427 56.78 158.88 56.9267 158.374 57.22C157.867 57.5 157.454 57.92 157.134 58.48C156.827 59.0267 156.674 59.68 156.674 60.44C156.674 61.2 156.827 61.8667 157.134 62.44C157.454 63.0133 157.867 63.4533 158.374 63.76C158.894 64.0533 159.44 64.2 160.014 64.2C160.6 64.2 161.147 64.0533 161.654 63.76C162.16 63.4667 162.567 63.04 162.874 62.48C163.194 61.9067 163.354 61.24 163.354 60.48ZM174.208 54.8C175.075 54.8 175.848 54.98 176.528 55.34C177.222 55.7 177.762 56.2333 178.148 56.94C178.535 57.6467 178.728 58.5 178.728 59.5V66H176.468V59.84C176.468 58.8533 176.222 58.1 175.728 57.58C175.235 57.0467 174.562 56.78 173.708 56.78C172.855 56.78 172.175 57.0467 171.668 57.58C171.175 58.1 170.928 58.8533 170.928 59.84V66H168.648V54.98H170.928V56.24C171.302 55.7867 171.775 55.4333 172.348 55.18C172.935 54.9267 173.555 54.8 174.208 54.8ZM184.297 56.84V62.94C184.297 63.3533 184.39 63.6533 184.577 63.84C184.777 64.0133 185.11 64.1 185.577 64.1H186.977V66H185.177C184.15 66 183.363 65.76 182.817 65.28C182.27 64.8 181.997 64.02 181.997 62.94V56.84H180.697V54.98H181.997V52.24H184.297V54.98H186.977V56.84H184.297Z" fill="white"/>
<path d="M152.062 31.8125V24.5L138 17.1875L123.938 24.5L138 31.8125L145.312 28.4375V36.3125C145.312 38.5625 141.938 40.8125 138 40.8125C134.062 40.8125 130.688 38.5625 130.688 36.3125V28.4375" stroke="white" stroke-width="1.5" stroke-linecap="round" stroke-linejoin="round"/>
</svg>
