<svg width="265" height="303" viewBox="0 0 265 303" fill="none" xmlns="http://www.w3.org/2000/svg">
<g clip-path="url(#clip0_553_7257)">
<path d="M127.172 284.251L126.834 276.649C126.799 276.63 126.764 276.612 126.729 276.593C123.11 274.692 118.962 278.134 120.118 282.058C121.206 285.75 121.936 289.73 123.927 292.962C125.103 294.839 126.686 296.427 128.559 297.608C130.432 298.79 132.546 299.534 134.745 299.786L139.343 302.604C139.974 299.084 139.835 295.468 138.935 292.006C138.036 288.544 136.397 285.319 134.132 282.552C132.847 281.012 131.372 279.641 129.744 278.47C128.643 281.376 127.172 284.251 127.172 284.251Z" fill="#F2F2F2"/>
<path d="M86.0073 207.105C77.1555 197.967 64.328 192.725 50.8139 192.725L50.2926 192.727C41.3912 192.73 32.6486 190.367 24.959 185.878L24.1589 185.411L24.8033 184.747C28.2924 181.133 31.2058 177.004 33.4414 172.504C31.8536 173.986 29.9599 175.1 27.8942 175.768C25.8285 176.436 23.6414 176.642 21.4876 176.37C19.2138 176.098 17.0309 175.315 15.1026 174.079C13.1743 172.842 11.5507 171.185 10.3536 169.231C5.63028 161.559 0 150.673 0 142.38C0.00735258 135.371 1.47346 128.439 4.30489 122.029C7.13632 115.618 11.2709 109.868 16.4452 105.145C19.721 102.188 22.3375 98.5733 24.1241 94.5363C25.9108 90.4993 26.8274 86.1307 26.8144 81.7152L26.8117 81.0869C26.8109 75.2737 27.5205 69.4822 28.9248 63.8415L29.0674 63.2719L29.6529 63.2924C33.428 63.421 37.2052 63.1042 40.9064 62.3486C37.4347 61.9223 34.0384 61.018 30.8139 59.6614L30.1841 59.4064L30.3978 58.7603C45.1313 49.6282 78.389 54.3573 97.6927 10.1446C113.345 -25.7058 168.573 41.9691 168.573 81.0869C168.573 85.0784 164.627 90.3531 167.581 92.9912C199.514 121.51 177.481 139.823 170.534 158.251C168.886 162.623 172.46 167.423 172.46 172.153C172.46 172.955 172.439 173.784 172.399 174.615L172.338 175.893L171.273 175.184C169.167 173.803 167.214 172.199 165.449 170.402C167.28 174.621 168.143 179.197 167.975 183.793C167.806 188.39 166.61 192.89 164.474 196.963C161.128 203.286 157.89 207.813 154.852 210.416C145.118 218.755 132.57 223.056 119.773 222.441C106.976 221.825 94.8977 216.34 86.0073 207.105Z" fill="#E6E6E6"/>
<path d="M139.47 302.23C139.687 302.23 139.898 302.151 140.062 302.008C140.226 301.865 140.333 301.668 140.364 301.452C140.402 301.182 144.166 274.008 140.786 237.892C137.664 204.538 127.639 156.497 97.607 117.042C97.5351 116.947 97.4452 116.868 97.3425 116.808C97.2398 116.748 97.1264 116.709 97.0086 116.693C96.8908 116.677 96.771 116.684 96.656 116.715C96.5411 116.745 96.4333 116.798 96.3387 116.87C96.2441 116.942 96.1647 117.032 96.105 117.135C96.0452 117.238 96.0063 117.351 95.9905 117.469C95.9746 117.587 95.9822 117.707 96.0127 117.822C96.0432 117.937 96.096 118.045 96.1682 118.14C125.941 157.254 135.885 204.943 138.985 238.061C142.346 273.966 138.611 300.929 138.573 301.197C138.555 301.325 138.565 301.456 138.601 301.58C138.638 301.705 138.701 301.82 138.786 301.918C138.871 302.016 138.976 302.094 139.094 302.148C139.212 302.202 139.34 302.23 139.47 302.23Z" fill="#3F3D56"/>
<path d="M114.962 172.695C115.153 172.695 115.34 172.635 115.494 172.523C115.649 172.41 115.764 172.252 115.823 172.07C115.882 171.888 115.882 171.692 115.823 171.51C115.764 171.328 115.649 171.17 115.495 171.057C115.386 170.978 104.399 163.054 87.9746 157.033C72.7912 151.469 49.7026 146.424 25.9333 153.997C25.8199 154.033 25.7148 154.091 25.6238 154.167C25.5328 154.244 25.4579 154.338 25.4032 154.444C25.3485 154.549 25.3151 154.665 25.305 154.783C25.2949 154.902 25.3083 155.021 25.3443 155.135C25.3804 155.248 25.4384 155.353 25.5151 155.444C25.5918 155.535 25.6857 155.61 25.7913 155.665C25.897 155.719 26.0123 155.752 26.1308 155.762C26.2493 155.772 26.3686 155.759 26.4818 155.722C49.7641 148.305 72.4342 153.266 87.3526 158.734C103.543 164.668 114.324 172.445 114.431 172.522C114.586 172.635 114.771 172.695 114.962 172.695Z" fill="#3F3D56"/>
<path d="M156.358 69.484C156.371 69.2933 156.325 69.103 156.224 68.9405C156.123 68.7781 155.974 68.6517 155.797 68.5796C155.62 68.5074 155.424 68.4932 155.239 68.539C155.053 68.5848 154.887 68.6882 154.764 68.8344C154.677 68.9376 145.99 79.3365 138.809 95.3024C132.171 110.062 125.482 132.751 131.316 157.03C131.372 157.263 131.519 157.465 131.723 157.59C131.928 157.715 132.174 157.754 132.407 157.698C132.64 157.642 132.841 157.495 132.967 157.291C133.092 157.086 133.131 156.84 133.075 156.606C127.361 132.825 133.937 110.548 140.459 96.0459C147.537 80.3079 156.062 70.103 156.147 70.0017C156.27 69.8559 156.344 69.6746 156.358 69.484Z" fill="#3F3D56"/>
<path d="M155.133 116.171C155.896 122.334 160.163 127.416 166.367 127.416C169.346 127.416 172.203 126.231 174.31 124.122C176.417 122.014 177.6 119.153 177.6 116.171C177.6 109.96 172.544 105.5 166.367 104.926C159.812 104.316 154.154 108.258 155.133 116.171Z" fill="#2F2E41"/>
<path d="M171.57 297.277L175.848 297.276L177.883 280.759L171.569 280.759L171.57 297.277Z" fill="#FFB6B6"/>
<path d="M171.419 301.743L184.574 301.743V301.576C184.574 300.217 184.034 298.913 183.074 297.952C182.114 296.991 180.812 296.451 179.454 296.451H179.453L177.05 294.626L172.567 296.451L171.419 296.451L171.419 301.743Z" fill="#2F2E41"/>
<path d="M154.72 297.277L158.997 297.276L161.032 280.759L154.719 280.759L154.72 297.277Z" fill="#FFB6B6"/>
<path d="M154.57 301.743L167.724 301.743V301.576C167.724 300.217 167.185 298.913 166.224 297.952C165.264 296.991 163.962 296.451 162.604 296.451H162.604L160.201 294.626L155.718 296.451L154.569 296.451L154.57 301.743Z" fill="#2F2E41"/>
<path d="M186.291 193.823L189.315 204.204L185.752 248.166C185.752 248.166 187.587 250.915 186.291 250.915C184.995 250.915 183.333 251.524 184.38 253.166C185.427 254.807 181.848 260.701 181.848 260.701L176.786 292.003L170.336 291.908C170.336 291.908 167.056 290.079 168.897 288.23C170.737 286.381 172.033 286.381 170.305 284.651C168.577 282.921 168.577 283.442 168.577 282.1C168.577 280.758 166.845 264.36 170.951 258.07L169.714 232.424L166.8 257.58L160.8 291.138L154.586 291.087C154.586 291.087 151.716 288.318 151.721 286.268C151.727 284.218 153.495 284.048 152.179 282.835C150.863 281.623 150.863 262.998 154.751 252.645C154.751 252.645 156.951 246.861 154.746 244.878C152.542 242.896 154.743 240.628 154.743 240.628C154.743 240.628 158.235 239.365 154.74 235.724C151.245 232.084 154.721 206.336 154.721 206.336C154.721 206.336 150.901 195.942 154.77 191.855C158.64 187.768 186.291 193.823 186.291 193.823Z" fill="#2F2E41"/>
<path d="M132.425 211.707L137.821 198.653L142.072 201.018L139.505 214.297C139.762 215.138 139.779 216.035 139.555 216.886C139.332 217.736 138.875 218.508 138.237 219.113C137.599 219.718 136.806 220.133 135.945 220.312C135.084 220.49 134.191 220.425 133.366 220.123C132.54 219.821 131.815 219.295 131.272 218.603C130.729 217.911 130.39 217.081 130.292 216.207C130.194 215.333 130.342 214.448 130.719 213.653C131.096 212.859 131.686 212.185 132.425 211.707Z" fill="#FFB6B6"/>
<path d="M222.971 108.48L214.761 119.971L211.155 116.704L216.662 104.352C216.602 103.474 216.787 102.597 217.198 101.819C217.609 101.042 218.228 100.394 218.986 99.949C219.744 99.5041 220.611 99.2798 221.49 99.3012C222.369 99.3226 223.224 99.589 223.96 100.07C224.695 100.552 225.282 101.229 225.654 102.026C226.027 102.823 226.17 103.708 226.067 104.582C225.964 105.455 225.62 106.283 225.073 106.972C224.526 107.661 223.798 108.183 222.971 108.48Z" fill="#FFB6B6"/>
<path d="M187.105 194.888C192.431 203.157 165.662 213.65 155.391 209.437C153.592 208.7 147.406 206.263 151.634 202.885C155.863 199.507 151.144 199.031 151.033 196.832C150.958 195.362 152.095 192.137 150.909 192.275C149.722 192.414 148.334 190.381 150.918 189.506C153.501 188.631 150.945 187.833 150.968 187.002C151.215 177.939 158.161 163.523 158.161 163.523L145.644 195.553C145.644 195.553 145.737 201.094 144.141 199.401C142.544 197.708 142.661 203.188 142.661 203.188C142.661 203.188 140.287 204.847 141.652 205.769C143.017 206.692 140.183 209.53 140.183 209.53L133.569 209.057C133.569 209.057 133.673 204.139 134.802 203.051C135.931 201.964 135.377 200.252 135.377 200.252C135.377 200.252 138.316 197.647 136.346 195.532C133.811 192.811 143.053 146.861 146.242 147.316C146.693 145.119 147.742 143.09 149.273 141.453C150.804 139.815 152.758 138.634 154.918 138.038L162.061 136.07L163.329 131.032H173.387L175.138 134.342L182.785 137.796C184.225 135.762 185.301 133.618 191.199 132.923C191.199 132.923 207.091 118.449 206.315 117.318C205.539 116.188 208.003 113.542 208.003 113.542C208.003 113.542 210.107 112.853 208.92 112.485C207.732 112.117 209.976 111.266 209.976 111.266C209.976 111.266 212.055 110.719 211.074 109.999C210.094 109.28 214.346 108.807 214.346 108.807L219.862 113.312L218.747 115.204C218.747 115.204 219.427 117.781 218.539 116.841C217.652 115.9 217.485 118.63 217.485 118.63C217.485 118.63 217.032 121.619 214.346 122.52C211.659 123.421 209.622 131.978 209.622 131.978C203.286 140.224 195.809 146.658 186.948 150.893C190.401 154.861 187.105 194.888 187.105 194.888Z" fill="#015792"/>
<path d="M167.609 128.084C173.11 128.084 177.57 123.62 177.57 118.112C177.57 112.605 173.11 108.141 167.609 108.141C162.107 108.141 157.647 112.605 157.647 118.112C157.647 123.62 162.107 128.084 167.609 128.084Z" fill="#FFB6B6"/>
<path d="M157.294 119.199C157.609 121.366 159.454 124.389 159.022 124.389C158.59 124.389 155.518 115.456 158.59 114.874C160.818 114.451 161.316 114.822 163.399 113.918L163.105 114.195C164.483 115.198 166.402 114.58 167.974 113.927C169.551 113.278 171.465 112.66 172.848 113.659C173.716 114.286 174.083 115.376 174.623 116.301C175.164 117.231 176.162 118.109 177.19 117.824C178.015 117.594 178.49 116.669 178.486 115.813C178.482 114.956 177.368 114.141 177.743 113.373C178.855 111.096 177.855 109.544 175.431 108.473C174.55 108.339 173.669 108.202 172.787 108.062C173.249 107.422 173.809 106.858 174.446 106.392C174.177 105.701 173.711 105.104 173.107 104.675C172.403 104.256 171.53 104.286 170.713 104.329C168.89 104.425 167.068 104.52 165.248 104.615C163.9 104.684 162.504 104.766 161.299 105.385C159.795 106.159 158.81 107.668 158.093 109.204C156.486 112.655 156.741 115.432 157.294 119.199Z" fill="#2F2E41"/>
<path d="M115.855 302.867L213.823 303C213.959 303 214.09 302.946 214.187 302.849C214.283 302.752 214.337 302.621 214.337 302.485C214.337 302.348 214.283 302.217 214.187 302.121C214.09 302.024 213.959 301.97 213.823 301.97L115.855 301.837C115.719 301.837 115.588 301.891 115.491 301.988C115.395 302.084 115.341 302.215 115.341 302.352C115.341 302.488 115.395 302.619 115.491 302.716C115.588 302.813 115.719 302.867 115.855 302.867Z" fill="#CACACA"/>
<path d="M80.4235 257.976C80.6041 256.734 79.304 255.516 77.5197 255.256C75.7353 254.996 74.1424 255.793 73.9618 257.035C73.7812 258.278 75.0813 259.496 76.8656 259.756C78.65 260.016 80.2429 259.219 80.4235 257.976Z" fill="#E6E6E6"/>
<path d="M101.668 255.901C101.848 254.659 100.548 253.441 98.7638 253.181C96.9794 252.921 95.3865 253.717 95.2059 254.96C95.0253 256.203 96.3254 257.421 98.1097 257.681C99.8941 257.94 101.487 257.144 101.668 255.901Z" fill="#3F3D56"/>
<path d="M74.6061 240.759C74.7867 239.516 73.4866 238.298 71.7022 238.038C69.9179 237.778 68.325 238.575 68.1444 239.817C67.9638 241.06 69.2639 242.278 71.0482 242.538C72.8326 242.798 74.4255 242.001 74.6061 240.759Z" fill="#FFC300"/>
<path d="M65.3746 233.706C65.3833 232.565 64.7476 231.636 63.9549 231.63C63.1621 231.624 62.5125 232.544 62.5039 233.684C62.4953 234.825 63.1309 235.755 63.9237 235.761C64.7164 235.767 65.366 234.847 65.3746 233.706Z" fill="#E6E6E6"/>
<path d="M62.2437 220.57C62.2524 219.43 61.6167 218.5 60.824 218.494C60.0313 218.488 59.3816 219.408 59.373 220.549C59.3644 221.689 60.0001 222.619 60.7928 222.625C61.5855 222.631 62.2351 221.711 62.2437 220.57Z" fill="#3F3D56"/>
<path d="M86.5875 243.689C86.5961 242.548 85.9605 241.618 85.1678 241.612C84.375 241.606 83.7254 242.526 83.7168 243.667C83.7082 244.808 84.3438 245.737 85.1365 245.743C85.9293 245.749 86.5789 244.829 86.5875 243.689Z" fill="#E6E6E6"/>
<path d="M76.3219 248.82C76.3305 247.68 75.6948 246.75 74.9021 246.744C74.1094 246.738 73.4598 247.658 73.4511 248.799C73.4425 249.939 74.0782 250.869 74.8709 250.875C75.6636 250.881 76.3133 249.961 76.3219 248.82Z" fill="#FFC300"/>
<path d="M90.6129 258.304C90.6215 257.163 89.9859 256.233 89.1931 256.227C88.4004 256.221 87.7508 257.141 87.7422 258.282C87.7335 259.423 88.3692 260.353 89.1619 260.359C89.9547 260.365 90.6043 259.445 90.6129 258.304Z" fill="#3F3D56"/>
<path d="M243.739 191.37C243.92 190.127 242.619 188.909 240.835 188.649C239.051 188.39 237.458 189.186 237.277 190.429C237.097 191.671 238.397 192.889 240.181 193.149C241.965 193.409 243.558 192.613 243.739 191.37Z" fill="#E6E6E6"/>
<path d="M264.983 189.295C265.164 188.052 263.864 186.834 262.079 186.574C260.295 186.314 258.702 187.111 258.521 188.354C258.341 189.596 259.641 190.814 261.425 191.074C263.21 191.334 264.802 190.537 264.983 189.295Z" fill="#3F3D56"/>
<path d="M237.921 174.152C238.101 172.91 236.801 171.692 235.017 171.432C233.232 171.172 231.639 171.968 231.459 173.211C231.278 174.454 232.578 175.672 234.363 175.932C236.147 176.191 237.74 175.395 237.921 174.152Z" fill="#FFC300"/>
<path d="M228.69 167.1C228.699 165.959 228.063 165.029 227.27 165.023C226.478 165.017 225.828 165.937 225.819 167.078C225.811 168.219 226.446 169.148 227.239 169.154C228.032 169.16 228.681 168.241 228.69 167.1Z" fill="#E6E6E6"/>
<path d="M225.559 153.964C225.568 152.823 224.932 151.894 224.139 151.888C223.347 151.882 222.697 152.802 222.688 153.942C222.68 155.083 223.315 156.013 224.108 156.019C224.901 156.025 225.551 155.105 225.559 153.964Z" fill="#3F3D56"/>
<path d="M249.903 177.082C249.912 175.941 249.276 175.012 248.483 175.006C247.69 175 247.041 175.92 247.032 177.06C247.024 178.201 247.659 179.131 248.452 179.137C249.245 179.143 249.894 178.223 249.903 177.082Z" fill="#E6E6E6"/>
<path d="M239.637 182.214C239.646 181.073 239.01 180.144 238.218 180.138C237.425 180.132 236.775 181.052 236.767 182.192C236.758 183.333 237.394 184.263 238.186 184.269C238.979 184.275 239.629 183.355 239.637 182.214Z" fill="#FFC300"/>
<path d="M253.928 191.697C253.937 190.557 253.301 189.627 252.509 189.621C251.716 189.615 251.066 190.535 251.058 191.676C251.049 192.816 251.685 193.746 252.477 193.752C253.27 193.758 253.92 192.838 253.928 191.697Z" fill="#3F3D56"/>
<path d="M164.673 68.1043C164.854 66.8617 163.554 65.6437 161.77 65.3838C159.985 65.1239 158.392 65.9205 158.212 67.1631C158.031 68.4057 159.331 69.6238 161.116 69.8837C162.9 70.1436 164.493 69.3469 164.673 68.1043Z" fill="white"/>
<path d="M185.918 66.0291C186.098 64.7865 184.798 63.5685 183.014 63.3086C181.229 63.0487 179.637 63.8454 179.456 65.088C179.275 66.3306 180.575 67.5486 182.36 67.8085C184.144 68.0684 185.737 67.2717 185.918 66.0291Z" fill="#3F3D56"/>
<path d="M158.856 50.8865C159.037 49.6439 157.737 48.4259 155.952 48.166C154.168 47.9061 152.575 48.7028 152.394 49.9454C152.214 51.188 153.514 52.406 155.298 52.6659C157.083 52.9258 158.675 52.1291 158.856 50.8865Z" fill="#FFC300"/>
<path d="M149.625 43.8341C149.633 42.6934 148.998 41.7637 148.205 41.7577C147.412 41.7517 146.763 42.6716 146.754 43.8124C146.745 44.9532 147.381 45.8828 148.174 45.8888C148.966 45.8948 149.616 44.9749 149.625 43.8341Z" fill="#E6E6E6"/>
<path d="M146.494 30.6984C146.502 29.5576 145.867 28.628 145.074 28.622C144.281 28.616 143.632 29.5359 143.623 30.6767C143.614 31.8174 144.25 32.7471 145.043 32.7531C145.836 32.7591 146.485 31.8391 146.494 30.6984Z" fill="#3F3D56"/>
<path d="M170.838 53.8166C170.846 52.6758 170.21 51.7462 169.418 51.7402C168.625 51.7342 167.975 52.6541 167.967 53.7948C167.958 54.9356 168.594 55.8652 169.387 55.8712C170.179 55.8772 170.829 54.9573 170.838 53.8166Z" fill="#E6E6E6"/>
<path d="M160.572 58.9484C160.58 57.8076 159.945 56.878 159.152 56.872C158.359 56.866 157.71 57.7859 157.701 58.9267C157.693 60.0674 158.328 60.9971 159.121 61.0031C159.914 61.0091 160.563 60.0891 160.572 58.9484Z" fill="#FFC300"/>
<path d="M174.863 68.4318C174.872 67.291 174.236 66.3614 173.443 66.3554C172.65 66.3494 172.001 67.2693 171.992 68.4101C171.984 69.5508 172.619 70.4805 173.412 70.4865C174.205 70.4925 174.854 69.5725 174.863 68.4318Z" fill="#3F3D56"/>
</g>
<defs>
<clipPath id="clip0_553_7257">
<rect width="265" height="303" fill="white"/>
</clipPath>
</defs>
</svg>
