<svg width="267" height="83" viewBox="0 0 267 83" fill="none" xmlns="http://www.w3.org/2000/svg">
<rect width="267" height="83" rx="3" fill="#015792"/>
<path d="M91.78 53.94V58.02H96.58V59.88H91.78V64.14H97.18V66H89.5V52.08H97.18V53.94H91.78ZM113.328 54.8C114.195 54.8 114.968 54.98 115.648 55.34C116.342 55.7 116.882 56.2333 117.268 56.94C117.668 57.6467 117.868 58.5 117.868 59.5V66H115.608V59.84C115.608 58.8533 115.362 58.1 114.868 57.58C114.375 57.0467 113.702 56.78 112.848 56.78C111.995 56.78 111.315 57.0467 110.808 57.58C110.315 58.1 110.068 58.8533 110.068 59.84V66H107.808V59.84C107.808 58.8533 107.562 58.1 107.068 57.58C106.575 57.0467 105.902 56.78 105.048 56.78C104.195 56.78 103.515 57.0467 103.008 57.58C102.515 58.1 102.268 58.8533 102.268 59.84V66H99.9883V54.98H102.268V56.24C102.642 55.7867 103.115 55.4333 103.688 55.18C104.262 54.9267 104.875 54.8 105.528 54.8C106.408 54.8 107.195 54.9867 107.888 55.36C108.582 55.7333 109.115 56.2733 109.488 56.98C109.822 56.3133 110.342 55.7867 111.048 55.4C111.755 55 112.515 54.8 113.328 54.8ZM123.05 56.6C123.436 56.0933 123.963 55.6667 124.63 55.32C125.296 54.9733 126.05 54.8 126.89 54.8C127.85 54.8 128.723 55.04 129.51 55.52C130.31 55.9867 130.936 56.6467 131.39 57.5C131.843 58.3533 132.07 59.3333 132.07 60.44C132.07 61.5467 131.843 62.54 131.39 63.42C130.936 64.2867 130.31 64.9667 129.51 65.46C128.723 65.94 127.85 66.18 126.89 66.18C126.05 66.18 125.303 66.0133 124.65 65.68C123.996 65.3333 123.463 64.9067 123.05 64.4V71.24H120.77V54.98H123.05V56.6ZM129.75 60.44C129.75 59.68 129.59 59.0267 129.27 58.48C128.963 57.92 128.55 57.5 128.03 57.22C127.523 56.9267 126.976 56.78 126.39 56.78C125.816 56.78 125.27 56.9267 124.75 57.22C124.243 57.5133 123.83 57.94 123.51 58.5C123.203 59.06 123.05 59.72 123.05 60.48C123.05 61.24 123.203 61.9067 123.51 62.48C123.83 63.04 124.243 63.4667 124.75 63.76C125.27 64.0533 125.816 64.2 126.39 64.2C126.976 64.2 127.523 64.0533 128.03 63.76C128.55 63.4533 128.963 63.0133 129.27 62.44C129.59 61.8667 129.75 61.2 129.75 60.44ZM136.604 51.2V66H134.324V51.2H136.604ZM144.378 66.18C143.338 66.18 142.398 65.9467 141.558 65.48C140.718 65 140.058 64.3333 139.578 63.48C139.098 62.6133 138.858 61.6133 138.858 60.48C138.858 59.36 139.104 58.3667 139.598 57.5C140.091 56.6333 140.764 55.9667 141.618 55.5C142.471 55.0333 143.424 54.8 144.478 54.8C145.531 54.8 146.484 55.0333 147.338 55.5C148.191 55.9667 148.864 56.6333 149.358 57.5C149.851 58.3667 150.098 59.36 150.098 60.48C150.098 61.6 149.844 62.5933 149.338 63.46C148.831 64.3267 148.138 65 147.258 65.48C146.391 65.9467 145.431 66.18 144.378 66.18ZM144.378 64.2C144.964 64.2 145.511 64.06 146.018 63.78C146.538 63.5 146.958 63.08 147.278 62.52C147.598 61.96 147.758 61.28 147.758 60.48C147.758 59.68 147.604 59.0067 147.298 58.46C146.991 57.9 146.584 57.48 146.078 57.2C145.571 56.92 145.024 56.78 144.438 56.78C143.851 56.78 143.304 56.92 142.798 57.2C142.304 57.48 141.911 57.9 141.618 58.46C141.324 59.0067 141.178 59.68 141.178 60.48C141.178 61.6667 141.478 62.5867 142.078 63.24C142.691 63.88 143.458 64.2 144.378 64.2ZM162.272 54.98L155.512 71.18H153.152L155.392 65.82L151.052 54.98H153.592L156.692 63.38L159.912 54.98H162.272ZM174.092 60.22C174.092 60.6333 174.066 61.0067 174.012 61.34H165.592C165.659 62.22 165.986 62.9267 166.572 63.46C167.159 63.9933 167.879 64.26 168.732 64.26C169.959 64.26 170.826 63.7467 171.332 62.72H173.792C173.459 63.7333 172.852 64.5667 171.972 65.22C171.106 65.86 170.026 66.18 168.732 66.18C167.679 66.18 166.732 65.9467 165.892 65.48C165.066 65 164.412 64.3333 163.932 63.48C163.466 62.6133 163.232 61.6133 163.232 60.48C163.232 59.3467 163.459 58.3533 163.912 57.5C164.379 56.6333 165.026 55.9667 165.852 55.5C166.692 55.0333 167.652 54.8 168.732 54.8C169.772 54.8 170.699 55.0267 171.512 55.48C172.326 55.9333 172.959 56.5733 173.412 57.4C173.866 58.2133 174.092 59.1533 174.092 60.22ZM171.712 59.5C171.699 58.66 171.399 57.9867 170.812 57.48C170.226 56.9733 169.499 56.72 168.632 56.72C167.846 56.72 167.172 56.9733 166.612 57.48C166.052 57.9733 165.719 58.6467 165.612 59.5H171.712ZM178.616 56.58C178.949 56.02 179.389 55.5867 179.936 55.28C180.496 54.96 181.156 54.8 181.916 54.8V57.16H181.336C180.443 57.16 179.763 57.3867 179.296 57.84C178.843 58.2933 178.616 59.08 178.616 60.2V66H176.336V54.98H178.616V56.58Z" fill="white"/>
<path d="M135.061 26.2992C133.792 26.2992 132.551 25.9228 131.496 25.2178C130.441 24.5127 129.618 23.5105 129.133 22.338C128.647 21.1655 128.52 19.8754 128.767 18.6307C129.015 17.3859 129.626 16.2426 130.524 15.3452C131.421 14.4478 132.564 13.8367 133.809 13.5891C135.054 13.3415 136.344 13.4686 137.516 13.9543C138.689 14.4399 139.691 15.2624 140.396 16.3176C141.101 17.3728 141.477 18.6134 141.477 19.8825C141.477 21.5843 140.801 23.2164 139.598 24.4198C138.395 25.6231 136.763 26.2992 135.061 26.2992ZM135.061 15.3725C134.154 15.3725 133.268 15.6413 132.514 16.1449C131.761 16.6485 131.173 17.3644 130.826 18.2019C130.479 19.0394 130.389 19.9609 130.566 20.85C130.742 21.7391 131.179 22.5557 131.82 23.1967C132.461 23.8377 133.278 24.2742 134.167 24.4511C135.056 24.6279 135.977 24.5372 136.815 24.1903C137.652 23.8434 138.368 23.2559 138.872 22.5022C139.375 21.7485 139.644 20.8623 139.644 19.9558C139.644 19.3539 139.526 18.7579 139.295 18.2019C139.065 17.6458 138.727 17.1405 138.302 16.7149C137.876 16.2893 137.371 15.9517 136.815 15.7214C136.259 15.491 135.663 15.3725 135.061 15.3725ZM140.167 27.4083C135.206 26.2921 130.016 26.8297 125.39 28.9392C124.754 29.2431 124.217 29.7215 123.842 30.3187C123.467 30.9159 123.27 31.6074 123.272 32.3125V37.7667C123.272 37.887 123.296 38.0062 123.342 38.1175C123.388 38.2287 123.456 38.3297 123.541 38.4148C123.626 38.5 123.727 38.5675 123.838 38.6135C123.95 38.6596 124.069 38.6833 124.189 38.6833C124.31 38.6833 124.429 38.6596 124.54 38.6135C124.651 38.5675 124.752 38.5 124.837 38.4148C124.922 38.3297 124.99 38.2287 125.036 38.1175C125.082 38.0062 125.106 37.887 125.106 37.7667V32.3125C125.098 31.9556 125.194 31.6042 125.383 31.3013C125.572 30.9985 125.845 30.7573 126.169 30.6075C128.956 29.3207 131.991 28.6605 135.061 28.6733C136.781 28.6711 138.495 28.8742 140.167 29.2783V27.4083ZM140.295 36.1258H145.923V37.4092H140.295V36.1258Z" fill="white"/>
<path d="M150.406 30.6812H145.667V32.5145H149.489V40.187H136.5V32.5145H142.275V32.8995C142.275 33.1426 142.372 33.3758 142.544 33.5477C142.716 33.7196 142.949 33.8162 143.192 33.8162C143.435 33.8162 143.668 33.7196 143.84 33.5477C144.012 33.3758 144.109 33.1426 144.109 32.8995V29.3337C144.109 29.0905 144.012 28.8574 143.84 28.6855C143.668 28.5136 143.435 28.417 143.192 28.417C142.949 28.417 142.716 28.5136 142.544 28.6855C142.372 28.8574 142.275 29.0905 142.275 29.3337V30.6812H135.584C135.341 30.6812 135.107 30.7777 134.935 30.9496C134.764 31.1216 134.667 31.3547 134.667 31.5978V41.1037C134.667 41.3468 134.764 41.5799 134.935 41.7518C135.107 41.9237 135.341 42.0203 135.584 42.0203H150.406C150.649 42.0203 150.882 41.9237 151.054 41.7518C151.226 41.5799 151.323 41.3468 151.323 41.1037V31.5978C151.323 31.3547 151.226 31.1216 151.054 30.9496C150.882 30.7777 150.649 30.6812 150.406 30.6812Z" fill="white"/>
</svg>
