<svg width="62" height="62" viewBox="0 0 62 62" fill="none" xmlns="http://www.w3.org/2000/svg">
<path d="M18.0827 18.0835C18.0827 16.0281 18.8992 14.0568 20.3526 12.6034C21.806 11.15 23.7773 10.3335 25.8327 10.3335H37.4577C39.5131 10.3335 41.4844 11.15 42.9378 12.6034C44.3912 14.0568 45.2077 16.0281 45.2077 18.0835V20.6668H18.0827V18.0835ZM5.16602 32.2918L30.3729 38.5939C30.7836 38.6972 31.2151 38.6972 31.6258 38.5939L56.8327 32.2918V49.0835C56.8327 49.7686 56.5605 50.4257 56.076 50.9102C55.5916 51.3947 54.9345 51.6668 54.2494 51.6668H7.74935C7.06421 51.6668 6.40713 51.3947 5.92266 50.9102C5.43819 50.4257 5.16602 49.7686 5.16602 49.0835V32.2918Z" stroke="#015792" stroke-width="4" stroke-linecap="round" stroke-linejoin="round"/>
<path d="M56.8327 34.8753V23.2503C56.8327 22.5652 56.5605 21.9081 56.076 21.4236C55.5916 20.9392 54.9345 20.667 54.2494 20.667H7.74935C7.06421 20.667 6.40713 20.9392 5.92266 21.4236C5.43819 21.9081 5.16602 22.5652 5.16602 23.2503V34.8753" stroke="#015792" stroke-width="4" stroke-linecap="round" stroke-linejoin="round"/>
<path d="M34.2279 29.7087C34.2279 30.5651 33.8877 31.3864 33.2821 31.992C32.6765 32.5976 31.8551 32.9378 30.9987 32.9378C30.1423 32.9378 29.3209 32.5976 28.7153 31.992C28.1097 31.3864 27.7695 30.5651 27.7695 29.7087C27.7695 28.8522 28.1097 28.0309 28.7153 27.4253C29.3209 26.8197 30.1423 26.4795 30.9987 26.4795C31.8551 26.4795 32.6765 26.8197 33.2821 27.4253C33.8877 28.0309 34.2279 28.8522 34.2279 29.7087Z" fill="#015792"/>
</svg>
