<svg width="276" height="242" viewBox="0 0 276 242" fill="none" xmlns="http://www.w3.org/2000/svg">
<path d="M183.851 81.0908H183.789L148.544 96.1556L100.321 116.767C100.132 116.847 99.93 116.888 99.7256 116.889C99.5212 116.89 99.3186 116.851 99.1293 116.774L49.3772 96.1125L13.2658 81.1154L13.2106 81.0908H13.1491C12.5793 81.0915 12.0331 81.3183 11.6302 81.7216C11.2273 82.1249 11.0006 82.6717 11 83.242V176.667C11.0006 177.237 11.2273 177.784 11.6302 178.187C12.0331 178.591 12.5793 178.817 13.1491 178.818H183.851C184.421 178.817 184.967 178.591 185.37 178.187C185.773 177.784 185.999 177.237 186 176.667V83.242C185.999 82.6717 185.773 82.1249 185.37 81.7216C184.967 81.3183 184.421 81.0915 183.851 81.0908V81.0908Z" fill="white"/>
<path d="M184.557 82.2272C184.494 82.2272 184.433 82.208 184.382 82.1721L99.6408 22.8902C99.3829 22.7106 99.0765 22.6146 98.7627 22.6152C98.4489 22.6157 98.1428 22.7127 97.8856 22.8932L13.7549 82.1715C13.722 82.1947 13.6848 82.2111 13.6455 82.2199C13.6062 82.2287 13.5656 82.2296 13.526 82.2226C13.4863 82.2156 13.4484 82.2009 13.4145 82.1792C13.3805 82.1575 13.3511 82.1293 13.328 82.0962C13.3049 82.0631 13.2885 82.0258 13.2798 81.9863C13.271 81.9468 13.2701 81.906 13.2771 81.8662C13.284 81.8264 13.2987 81.7883 13.3203 81.7542C13.3419 81.7201 13.37 81.6906 13.4029 81.6674L97.5337 22.3891C97.8939 22.1365 98.3224 22.0007 98.7617 22C99.201 21.9993 99.63 22.1336 99.9911 22.385L184.732 81.6668C184.786 81.7042 184.826 81.7579 184.847 81.8199C184.868 81.882 184.869 81.9491 184.849 82.0117C184.83 82.0742 184.791 82.1288 184.738 82.1676C184.686 82.2063 184.622 82.2272 184.557 82.2272L184.557 82.2272Z" fill="#3F3D56"/>
<path d="M17.8184 83.694L98.1951 24.2729L179.182 87.9221L102.336 133.364L60.6159 123.878L17.8184 83.694Z" fill="#E6E6E6"/>
<path d="M64.7857 161.773H24.2591C24.0102 161.773 23.7638 161.729 23.5338 161.644C23.3038 161.558 23.0948 161.433 22.9187 161.274C22.7426 161.116 22.6029 160.928 22.5076 160.721C22.4123 160.514 22.3633 160.292 22.3633 160.068C22.3633 159.844 22.4123 159.622 22.5076 159.416C22.6029 159.209 22.7426 159.021 22.9187 158.862C23.0948 158.704 23.3038 158.578 23.5338 158.493C23.7638 158.407 24.0102 158.363 24.2591 158.364H64.7857C65.0345 158.363 65.281 158.407 65.511 158.493C65.741 158.578 65.95 158.704 66.126 158.862C66.3021 159.021 66.4418 159.209 66.5371 159.416C66.6324 159.622 66.6815 159.844 66.6815 160.068C66.6815 160.292 66.6324 160.514 66.5371 160.721C66.4418 160.928 66.3021 161.116 66.126 161.274C65.95 161.433 65.741 161.558 65.511 161.644C65.281 161.729 65.0345 161.773 64.7857 161.773V161.773Z" fill="#015792"/>
<path d="M38.6648 153.818H24.2436C23.9968 153.819 23.7523 153.775 23.5242 153.689C23.2961 153.604 23.0888 153.478 22.9142 153.32C22.7395 153.161 22.601 152.973 22.5065 152.767C22.4119 152.56 22.3633 152.338 22.3633 152.114C22.3633 151.89 22.4119 151.668 22.5065 151.461C22.601 151.254 22.7395 151.066 22.9142 150.908C23.0888 150.749 23.2961 150.624 23.5242 150.538C23.7523 150.453 23.9968 150.409 24.2436 150.409H38.6648C38.9116 150.409 39.1561 150.453 39.3842 150.538C39.6123 150.624 39.8196 150.749 39.9942 150.908C40.1689 151.066 40.3074 151.254 40.4019 151.461C40.4965 151.668 40.5451 151.89 40.5451 152.114C40.5451 152.338 40.4965 152.56 40.4019 152.767C40.3074 152.973 40.1689 153.161 39.9942 153.32C39.8196 153.478 39.6123 153.604 39.3842 153.689C39.1561 153.775 38.9116 153.819 38.6648 153.818Z" fill="#015792"/>
<path d="M99.8192 117.455C99.519 117.455 99.2216 117.396 98.9437 117.282L49.6367 96.6593V32.1076C49.6374 31.5368 49.8626 30.9896 50.2631 30.5859C50.6635 30.1823 51.2064 29.9553 51.7727 29.9546H146.364C146.931 29.9553 147.474 30.1823 147.874 30.5859C148.274 30.9896 148.5 31.5368 148.5 32.1076V96.7043L148.408 96.7443L100.721 117.272C100.436 117.393 100.129 117.455 99.8192 117.455V117.455Z" fill="white"/>
<path d="M99.8168 117.455C99.4977 117.455 99.1816 117.393 98.8861 117.271L49.6367 96.6813V32.2533C49.6374 31.6439 49.878 31.0596 50.3057 30.6286C50.7334 30.1977 51.3133 29.9553 51.9182 29.9546H146.219C146.824 29.9553 147.404 30.1977 147.831 30.6286C148.259 31.0596 148.5 31.6439 148.5 32.2533V96.7251L100.776 117.26C100.472 117.389 100.146 117.455 99.8168 117.455V117.455ZM50.2451 96.2719L99.1181 116.704C99.574 116.891 100.085 116.888 100.538 116.696L147.892 96.3204V32.2533C147.891 31.8064 147.715 31.3779 147.401 31.0619C147.088 30.7459 146.662 30.5681 146.219 30.5676H51.9182C51.4746 30.5681 51.0494 30.7459 50.7357 31.0619C50.4221 31.3779 50.2456 31.8064 50.2451 32.2533V96.2719Z" fill="#3F3D56"/>
<path d="M183.851 81.0908H183.789L148.544 96.1556L100.321 116.767C100.132 116.847 99.93 116.888 99.7256 116.889C99.5212 116.89 99.3186 116.851 99.1293 116.774L49.3772 96.1125L13.2658 81.1154L13.2106 81.0908H13.1491C12.5793 81.0915 12.0331 81.3183 11.6302 81.7216C11.2273 82.1249 11.0006 82.6717 11 83.242V176.667C11.0006 177.237 11.2273 177.784 11.6302 178.187C12.0331 178.591 12.5793 178.817 13.1491 178.818H183.851C184.421 178.817 184.967 178.591 185.37 178.187C185.773 177.784 185.999 177.237 186 176.667V83.242C185.999 82.6717 185.773 82.1249 185.37 81.7216C184.967 81.3183 184.421 81.0915 183.851 81.0908V81.0908ZM185.386 176.667C185.386 177.074 185.224 177.465 184.936 177.753C184.648 178.041 184.258 178.203 183.851 178.203H13.1491C12.742 178.203 12.3517 178.041 12.0638 177.753C11.776 177.465 11.6142 177.074 11.614 176.667V83.242C11.6146 82.8447 11.7686 82.4629 12.0438 82.1766C12.319 81.8902 12.6942 81.7214 13.0908 81.7055L49.3772 96.7764L98.8931 117.342C99.4291 117.56 100.03 117.557 100.563 117.333L148.544 96.8225L183.912 81.7055C184.308 81.7226 184.682 81.8918 184.957 82.178C185.231 82.4642 185.385 82.8453 185.386 83.242V176.667Z" fill="#3F3D56"/>
<path d="M91.5016 53.8184H57.7715C57.1209 53.8184 56.4969 53.579 56.0369 53.1527C55.5768 52.7265 55.3184 52.1484 55.3184 51.5457C55.3184 50.9429 55.5768 50.3648 56.0369 49.9386C56.4969 49.5124 57.1209 49.2729 57.7715 49.2729H91.5016C92.1522 49.2729 92.7762 49.5124 93.2362 49.9386C93.6963 50.3648 93.9547 50.9429 93.9547 51.5457C93.9547 52.1484 93.6963 52.7265 93.2362 53.1527C92.7762 53.579 92.1522 53.8184 91.5016 53.8184Z" fill="#015792"/>
<path d="M74.406 43.591H57.8217C57.1577 43.591 56.521 43.2917 56.0516 42.7589C55.5821 42.2261 55.3184 41.5035 55.3184 40.7501C55.3184 39.9966 55.5821 39.274 56.0516 38.7413C56.521 38.2085 57.1577 37.9092 57.8217 37.9092H74.406C75.0699 37.9092 75.7066 38.2085 76.1761 38.7413C76.6455 39.274 76.9093 39.9966 76.9093 40.7501C76.9093 41.5035 76.6455 42.2261 76.1761 42.7589C75.7066 43.2917 75.0699 43.591 74.406 43.591Z" fill="#015792"/>
<path d="M124.439 78.818H72.5612C71.906 78.818 71.2777 78.5187 70.8144 77.986C70.3511 77.4532 70.0908 76.7306 70.0908 75.9771C70.0908 75.2237 70.3511 74.5011 70.8144 73.9683C71.2777 73.4355 71.906 73.1362 72.5612 73.1362H124.439C125.094 73.1362 125.722 73.4355 126.185 73.9683C126.649 74.5011 126.909 75.2237 126.909 75.9771C126.909 76.7306 126.649 77.4532 126.185 77.986C125.722 78.5187 125.094 78.818 124.439 78.818Z" fill="#CCCCCC"/>
<path d="M124.439 90.1818H72.5612C71.906 90.1818 71.2777 89.8825 70.8144 89.3497C70.3511 88.817 70.0908 88.0944 70.0908 87.3409C70.0908 86.5875 70.3511 85.8649 70.8144 85.3321C71.2777 84.7993 71.906 84.5 72.5612 84.5H124.439C125.094 84.5 125.722 84.7993 126.185 85.3321C126.649 85.8649 126.909 86.5875 126.909 87.3409C126.909 88.0944 126.649 88.817 126.185 89.3497C125.722 89.8825 125.094 90.1818 124.439 90.1818Z" fill="#CCCCCC"/>
<path d="M252.551 219.083L252.959 209.891C257.213 207.613 261.958 206.409 266.782 206.385C260.143 211.823 260.973 222.305 256.472 229.617C255.051 231.887 253.138 233.807 250.875 235.236C248.612 236.664 246.058 237.564 243.401 237.869L237.845 241.277C237.083 237.02 237.251 232.647 238.338 228.461C239.425 224.275 241.405 220.374 244.141 217.028C245.695 215.167 247.476 213.508 249.443 212.092C250.774 215.607 252.551 219.083 252.551 219.083Z" fill="#F2F2F2"/>
<path d="M238.237 236.547L233.207 236.546L230.813 217.107L238.238 217.108L238.237 236.547Z" fill="#FFB6B6"/>
<path d="M239.52 241.431L223.3 241.431V241.225C223.3 239.548 223.965 237.939 225.149 236.753C226.333 235.567 227.939 234.9 229.613 234.9H229.614L232.576 232.648L238.104 234.901L239.52 234.901L239.52 241.431Z" fill="#2F2E41"/>
<path d="M214.867 236.547L209.836 236.546L207.443 217.107L214.868 217.108L214.867 236.547Z" fill="#FFB6B6"/>
<path d="M216.15 241.431L199.93 241.431V241.225C199.93 239.548 200.595 237.939 201.779 236.753C202.963 235.567 204.569 234.9 206.243 234.9H206.243L209.206 232.648L214.734 234.901L216.15 234.901L216.15 241.431Z" fill="#2F2E41"/>
<path d="M212.689 130.273L245.409 131.092C251.623 134.474 251.718 141.793 249.682 150.482C249.682 150.482 250.369 155.647 248.994 157.024C247.62 158.401 246.932 158.401 247.62 160.812C248.307 163.222 244.675 167.158 245.116 167.6C245.557 168.042 246.589 170.452 246.589 170.452L243.152 190.078C243.152 190.078 240.746 224.166 240.059 224.854C239.371 225.543 238.684 224.854 239.371 226.576C240.059 228.297 240.746 227.609 240.059 228.297C239.45 228.955 238.876 229.645 238.34 230.363H230.031C230.031 230.363 229.404 226.92 229.404 226.576C229.404 226.231 228.717 224.166 228.717 223.821C228.717 223.477 229.325 222.868 229.325 222.868C229.535 222.168 229.676 221.45 229.748 220.722C229.748 220.034 231.81 193.522 231.81 193.522L227.686 159.09L217.719 192.833C217.719 192.833 217.719 222.444 217.032 223.133C216.345 223.821 216.345 223.477 216.688 224.854C217.032 226.231 218.407 225.887 217.376 226.92C216.345 227.953 216.001 226.231 216.345 227.953L216.688 229.675L206.378 229.822C206.378 229.822 205.003 226.92 205.69 225.887C206.378 224.854 206.337 225.136 205.498 223.446C204.659 221.755 204.316 221.411 204.659 221.067C205.003 220.722 205.003 218.891 205.003 218.891L206.721 185.947C206.721 185.947 207.065 151.171 207.065 150.138C207.091 149.606 206.993 149.076 206.78 148.589V147.187L208.096 142.219L212.689 130.273Z" fill="#2F2E41"/>
<path d="M232.345 62.1117C237.96 62.1117 242.511 57.5518 242.511 51.9267C242.511 46.3017 237.96 41.7417 232.345 41.7417C226.73 41.7417 222.179 46.3017 222.179 51.9267C222.179 57.5518 226.73 62.1117 232.345 62.1117Z" fill="#FFB6B6"/>
<path d="M227.262 68.8433C225.072 70.1478 223.762 72.5446 223.009 74.9835C221.617 79.499 220.779 84.1675 220.514 88.886L219.719 103.012L209.881 133.091C218.407 140.32 250.457 134.734 250.457 134.734C250.457 134.734 251.441 134.406 250.457 133.42C249.474 132.434 248.516 133.308 249.5 132.322C250.483 131.336 249.805 132.434 249.477 131.449C249.149 130.463 249.477 131.12 249.805 130.792C250.133 130.463 247.266 127.506 247.266 127.506L249.89 110.24L253.169 75.4142C249.234 70.486 241.32 67.5808 241.32 67.5808L239.275 63.8931L229.05 64.7126L227.262 68.8433Z" fill="#E6E6E6"/>
<path d="M225.868 45.9491C226.261 45.9521 226.653 46.0036 227.033 46.1023C227.784 46.2831 228.547 46.4112 229.315 46.4857C231.669 46.7075 233.88 47.713 235.596 49.3417C237.312 50.9704 238.434 53.1282 238.783 55.4706C239.373 54.9546 240.718 54.0055 241.819 54.8876C241.836 54.9016 241.846 54.9088 241.885 54.8904C242.616 54.5427 243.915 50.2623 243.955 46.4935C243.975 44.4931 243.661 41.9388 242.046 41.1298L241.961 41.0872L241.939 40.9946C241.831 40.5446 240.626 39.7765 238.531 39.1787C234.723 38.0923 229.048 35.976 225.853 39.0905C225.611 40.1405 224.824 42.3875 224.029 42.6422C223.149 42.9241 222.389 43.1674 222.269 44.249C222.169 45.7882 222.176 47.3326 222.291 48.8707C222.589 47.9295 223.175 47.1057 223.965 46.5153C224.526 46.1364 225.191 45.9388 225.868 45.9491V45.9491Z" fill="#2F2E41"/>
<path d="M206.945 102.226L223.552 91.5709L215.188 80.4316L206.929 90.6099L181.195 92.1911C180.518 91.5208 179.661 91.0623 178.729 90.8715C177.796 90.6806 176.828 90.7657 175.943 91.1164C175.058 91.467 174.294 92.0681 173.744 92.8463C173.194 93.6245 172.882 94.5462 172.846 95.499C172.81 96.4518 173.052 97.3945 173.541 98.2122C174.03 99.03 174.747 99.6874 175.603 100.104C176.459 100.521 177.417 100.68 178.361 100.56C179.306 100.441 180.195 100.049 180.92 99.4317L206.945 102.226Z" fill="#FFB6B6"/>
<path d="M238.964 76.6989C239.928 82.5427 221.727 93.7018 221.727 93.7018C221.727 92.3301 210.863 102.685 210.373 101.547C208.979 98.3144 207.999 90.6567 206.052 89.431C204.938 88.73 212.759 82.1452 212.759 82.1452C212.759 82.1452 216.853 78.0133 222.225 72.8016C223.717 71.2999 225.564 70.2008 227.593 69.6064C229.623 69.012 231.77 68.9418 233.834 69.4022C233.834 69.4022 238.001 70.8551 238.964 76.6989Z" fill="#E6E6E6"/>
<path d="M273.194 105.023L262.21 88.6147L251.271 97.2284L261.603 105.285L263.726 131.027C263.071 131.72 262.631 132.588 262.461 133.526C262.29 134.464 262.395 135.431 262.764 136.31C263.133 137.189 263.749 137.942 264.537 138.476C265.325 139.01 266.252 139.303 267.203 139.319C268.155 139.335 269.091 139.074 269.896 138.566C270.702 138.059 271.343 137.327 271.741 136.461C272.139 135.595 272.276 134.632 272.137 133.688C271.998 132.745 271.588 131.863 270.957 131.149L273.194 105.023Z" fill="#FFB6B6"/>
<path d="M247.042 73.4914C252.853 72.4022 264.374 90.3968 264.374 90.3968C263.006 90.4261 273.569 101.088 272.444 101.603C269.247 103.068 261.626 104.211 260.444 106.188C259.768 107.318 253.032 99.6237 253.032 99.6237C253.032 99.6237 248.822 95.6107 243.507 90.34C241.977 88.8778 240.841 87.0515 240.205 85.0311C239.568 83.0108 239.453 80.862 239.869 78.7849C239.869 78.7849 241.23 74.5805 247.042 73.4914Z" fill="#E6E6E6"/>
<path d="M276 241.513C276.001 241.577 275.988 241.64 275.964 241.699C275.939 241.759 275.904 241.812 275.858 241.858C275.813 241.903 275.759 241.939 275.7 241.963C275.641 241.988 275.578 242 275.514 242H160.875C160.746 242 160.622 241.949 160.531 241.857C160.44 241.766 160.389 241.642 160.389 241.513C160.389 241.383 160.44 241.259 160.531 241.168C160.622 241.076 160.746 241.025 160.875 241.025H275.514C275.578 241.025 275.641 241.037 275.7 241.062C275.759 241.086 275.813 241.122 275.858 241.167C275.904 241.213 275.939 241.266 275.964 241.326C275.988 241.385 276.001 241.448 276 241.513Z" fill="#CCCCCC"/>
<path d="M148.609 44.2747C157.229 44.2747 164.217 37.2736 164.217 28.6374C164.217 20.0011 157.229 13 148.609 13C139.988 13 133 20.0011 133 28.6374C133 37.2736 139.988 44.2747 148.609 44.2747Z" fill="#26AB35"/>
<path d="M146.48 36.7759C146.21 36.7759 145.944 36.713 145.703 36.5922C145.462 36.4714 145.252 36.296 145.091 36.0799L140.833 30.3917C140.695 30.209 140.595 30.0009 140.538 29.7794C140.48 29.5578 140.468 29.3272 140.5 29.1006C140.532 28.874 140.608 28.656 140.724 28.459C140.84 28.2621 140.994 28.09 141.177 27.9527C141.36 27.8154 141.568 27.7156 141.789 27.659C142.01 27.6024 142.241 27.59 142.467 27.6227C142.693 27.6554 142.91 27.7324 143.106 27.8494C143.303 27.9664 143.474 28.1211 143.61 28.3045L146.396 32.0256L153.552 21.2731C153.807 20.8893 154.204 20.6228 154.656 20.5323C155.107 20.4418 155.576 20.5348 155.959 20.7907C156.343 21.0466 156.608 21.4445 156.699 21.8969C156.789 22.3493 156.696 22.819 156.441 23.2029L147.924 36.0012C147.77 36.2327 147.563 36.4238 147.32 36.5585C147.077 36.6932 146.805 36.7675 146.528 36.7753C146.512 36.7756 146.496 36.7759 146.48 36.7759Z" fill="white"/>
</svg>
