<svg width="505" height="376" viewBox="0 0 505 376" fill="none" xmlns="http://www.w3.org/2000/svg">
<path d="M97.488 267.456L90.32 287H85.56L78.392 267.456H82.592L87.968 282.996L93.316 267.456H97.488ZM114.258 278.908C114.258 279.468 114.221 279.972 114.146 280.42H102.806C102.9 281.54 103.292 282.417 103.982 283.052C104.673 283.687 105.522 284.004 106.53 284.004C107.986 284.004 109.022 283.379 109.638 282.128H113.866C113.418 283.621 112.56 284.853 111.29 285.824C110.021 286.776 108.462 287.252 106.614 287.252C105.121 287.252 103.777 286.925 102.582 286.272C101.406 285.6 100.482 284.657 99.8103 283.444C99.1569 282.231 98.8302 280.831 98.8302 279.244C98.8302 277.639 99.1569 276.229 99.8103 275.016C100.464 273.803 101.378 272.869 102.554 272.216C103.73 271.563 105.084 271.236 106.614 271.236C108.089 271.236 109.405 271.553 110.562 272.188C111.738 272.823 112.644 273.728 113.278 274.904C113.932 276.061 114.258 277.396 114.258 278.908ZM110.198 277.788C110.18 276.78 109.816 275.977 109.106 275.38C108.397 274.764 107.529 274.456 106.502 274.456C105.532 274.456 104.71 274.755 104.038 275.352C103.385 275.931 102.984 276.743 102.834 277.788H110.198ZM121.04 273.896C121.544 273.075 122.197 272.431 123 271.964C123.821 271.497 124.754 271.264 125.8 271.264V275.38H124.764C123.532 275.38 122.598 275.669 121.964 276.248C121.348 276.827 121.04 277.835 121.04 279.272V287H117.12V271.488H121.04V273.896ZM130.428 269.64C129.737 269.64 129.158 269.425 128.692 268.996C128.244 268.548 128.02 267.997 128.02 267.344C128.02 266.691 128.244 266.149 128.692 265.72C129.158 265.272 129.737 265.048 130.428 265.048C131.118 265.048 131.688 265.272 132.136 265.72C132.602 266.149 132.836 266.691 132.836 267.344C132.836 267.997 132.602 268.548 132.136 268.996C131.688 269.425 131.118 269.64 130.428 269.64ZM132.36 271.488V287H128.44V271.488H132.36ZM143.345 274.708H140.629V287H136.653V274.708H134.889V271.488H136.653V270.704C136.653 268.8 137.194 267.4 138.277 266.504C139.359 265.608 140.993 265.188 143.177 265.244V268.548C142.225 268.529 141.562 268.688 141.189 269.024C140.815 269.36 140.629 269.967 140.629 270.844V271.488H143.345V274.708ZM147.873 269.64C147.182 269.64 146.604 269.425 146.137 268.996C145.689 268.548 145.465 267.997 145.465 267.344C145.465 266.691 145.689 266.149 146.137 265.72C146.604 265.272 147.182 265.048 147.873 265.048C148.564 265.048 149.133 265.272 149.581 265.72C150.048 266.149 150.281 266.691 150.281 267.344C150.281 267.997 150.048 268.548 149.581 268.996C149.133 269.425 148.564 269.64 147.873 269.64ZM149.805 271.488V287H145.885V271.488H149.805ZM152.67 279.244C152.67 277.639 152.997 276.239 153.65 275.044C154.303 273.831 155.209 272.897 156.366 272.244C157.523 271.572 158.849 271.236 160.342 271.236C162.265 271.236 163.851 271.721 165.102 272.692C166.371 273.644 167.221 274.988 167.65 276.724H163.422C163.198 276.052 162.815 275.529 162.274 275.156C161.751 274.764 161.098 274.568 160.314 274.568C159.194 274.568 158.307 274.979 157.654 275.8C157.001 276.603 156.674 277.751 156.674 279.244C156.674 280.719 157.001 281.867 157.654 282.688C158.307 283.491 159.194 283.892 160.314 283.892C161.901 283.892 162.937 283.183 163.422 281.764H167.65C167.221 283.444 166.371 284.779 165.102 285.768C163.833 286.757 162.246 287.252 160.342 287.252C158.849 287.252 157.523 286.925 156.366 286.272C155.209 285.6 154.303 284.667 153.65 283.472C152.997 282.259 152.67 280.849 152.67 279.244ZM169.514 279.188C169.514 277.62 169.822 276.229 170.438 275.016C171.073 273.803 171.922 272.869 172.986 272.216C174.069 271.563 175.273 271.236 176.598 271.236C177.755 271.236 178.763 271.469 179.622 271.936C180.499 272.403 181.199 272.991 181.722 273.7V271.488H185.67V287H181.722V284.732C181.218 285.46 180.518 286.067 179.622 286.552C178.745 287.019 177.727 287.252 176.57 287.252C175.263 287.252 174.069 286.916 172.986 286.244C171.922 285.572 171.073 284.629 170.438 283.416C169.822 282.184 169.514 280.775 169.514 279.188ZM181.722 279.244C181.722 278.292 181.535 277.48 181.162 276.808C180.789 276.117 180.285 275.595 179.65 275.24C179.015 274.867 178.334 274.68 177.606 274.68C176.878 274.68 176.206 274.857 175.59 275.212C174.974 275.567 174.47 276.089 174.078 276.78C173.705 277.452 173.518 278.255 173.518 279.188C173.518 280.121 173.705 280.943 174.078 281.652C174.47 282.343 174.974 282.875 175.59 283.248C176.225 283.621 176.897 283.808 177.606 283.808C178.334 283.808 179.015 283.631 179.65 283.276C180.285 282.903 180.789 282.38 181.162 281.708C181.535 281.017 181.722 280.196 181.722 279.244ZM194.062 274.708V282.212C194.062 282.735 194.184 283.117 194.426 283.36C194.688 283.584 195.117 283.696 195.714 283.696H197.534V287H195.07C191.766 287 190.114 285.395 190.114 282.184V274.708H188.266V271.488H190.114V267.652H194.062V271.488H197.534V274.708H194.062ZM202.342 269.64C201.651 269.64 201.073 269.425 200.606 268.996C200.158 268.548 199.934 267.997 199.934 267.344C199.934 266.691 200.158 266.149 200.606 265.72C201.073 265.272 201.651 265.048 202.342 265.048C203.033 265.048 203.602 265.272 204.05 265.72C204.517 266.149 204.75 266.691 204.75 267.344C204.75 267.997 204.517 268.548 204.05 268.996C203.602 269.425 203.033 269.64 202.342 269.64ZM204.274 271.488V287H200.354V271.488H204.274ZM215.035 287.252C213.542 287.252 212.198 286.925 211.003 286.272C209.808 285.6 208.866 284.657 208.175 283.444C207.503 282.231 207.167 280.831 207.167 279.244C207.167 277.657 207.512 276.257 208.203 275.044C208.912 273.831 209.874 272.897 211.087 272.244C212.3 271.572 213.654 271.236 215.147 271.236C216.64 271.236 217.994 271.572 219.207 272.244C220.42 272.897 221.372 273.831 222.063 275.044C222.772 276.257 223.127 277.657 223.127 279.244C223.127 280.831 222.763 282.231 222.035 283.444C221.326 284.657 220.355 285.6 219.123 286.272C217.91 286.925 216.547 287.252 215.035 287.252ZM215.035 283.836C215.744 283.836 216.407 283.668 217.023 283.332C217.658 282.977 218.162 282.455 218.535 281.764C218.908 281.073 219.095 280.233 219.095 279.244C219.095 277.769 218.703 276.64 217.919 275.856C217.154 275.053 216.211 274.652 215.091 274.652C213.971 274.652 213.028 275.053 212.263 275.856C211.516 276.64 211.143 277.769 211.143 279.244C211.143 280.719 211.507 281.857 212.235 282.66C212.982 283.444 213.915 283.836 215.035 283.836ZM234.598 271.264C236.446 271.264 237.94 271.852 239.078 273.028C240.217 274.185 240.786 275.809 240.786 277.9V287H236.866V278.432C236.866 277.2 236.558 276.257 235.942 275.604C235.326 274.932 234.486 274.596 233.422 274.596C232.34 274.596 231.481 274.932 230.846 275.604C230.23 276.257 229.922 277.2 229.922 278.432V287H226.002V271.488H229.922V273.42C230.445 272.748 231.108 272.225 231.91 271.852C232.732 271.46 233.628 271.264 234.598 271.264ZM250.234 277.2C250.234 275.277 250.663 273.56 251.522 272.048C252.399 270.517 253.585 269.332 255.078 268.492C256.59 267.633 258.279 267.204 260.146 267.204C262.33 267.204 264.243 267.764 265.886 268.884C267.529 270.004 268.677 271.553 269.33 273.532H264.822C264.374 272.599 263.739 271.899 262.918 271.432C262.115 270.965 261.182 270.732 260.118 270.732C258.979 270.732 257.962 271.003 257.066 271.544C256.189 272.067 255.498 272.813 254.994 273.784C254.509 274.755 254.266 275.893 254.266 277.2C254.266 278.488 254.509 279.627 254.994 280.616C255.498 281.587 256.189 282.343 257.066 282.884C257.962 283.407 258.979 283.668 260.118 283.668C261.182 283.668 262.115 283.435 262.918 282.968C263.739 282.483 264.374 281.773 264.822 280.84H269.33C268.677 282.837 267.529 284.396 265.886 285.516C264.262 286.617 262.349 287.168 260.146 287.168C258.279 287.168 256.59 286.748 255.078 285.908C253.585 285.049 252.399 283.864 251.522 282.352C250.663 280.84 250.234 279.123 250.234 277.2ZM279.566 287.252C278.073 287.252 276.729 286.925 275.534 286.272C274.339 285.6 273.397 284.657 272.706 283.444C272.034 282.231 271.698 280.831 271.698 279.244C271.698 277.657 272.043 276.257 272.734 275.044C273.443 273.831 274.405 272.897 275.618 272.244C276.831 271.572 278.185 271.236 279.678 271.236C281.171 271.236 282.525 271.572 283.738 272.244C284.951 272.897 285.903 273.831 286.594 275.044C287.303 276.257 287.658 277.657 287.658 279.244C287.658 280.831 287.294 282.231 286.566 283.444C285.857 284.657 284.886 285.6 283.654 286.272C282.441 286.925 281.078 287.252 279.566 287.252ZM279.566 283.836C280.275 283.836 280.938 283.668 281.554 283.332C282.189 282.977 282.693 282.455 283.066 281.764C283.439 281.073 283.626 280.233 283.626 279.244C283.626 277.769 283.234 276.64 282.45 275.856C281.685 275.053 280.742 274.652 279.622 274.652C278.502 274.652 277.559 275.053 276.794 275.856C276.047 276.64 275.674 277.769 275.674 279.244C275.674 280.719 276.038 281.857 276.766 282.66C277.513 283.444 278.446 283.836 279.566 283.836ZM309.798 271.264C311.702 271.264 313.232 271.852 314.39 273.028C315.566 274.185 316.154 275.809 316.154 277.9V287H312.234V278.432C312.234 277.219 311.926 276.295 311.31 275.66C310.694 275.007 309.854 274.68 308.79 274.68C307.726 274.68 306.876 275.007 306.242 275.66C305.626 276.295 305.318 277.219 305.318 278.432V287H301.398V278.432C301.398 277.219 301.09 276.295 300.474 275.66C299.858 275.007 299.018 274.68 297.954 274.68C296.871 274.68 296.012 275.007 295.378 275.66C294.762 276.295 294.454 277.219 294.454 278.432V287H290.534V271.488H294.454V273.364C294.958 272.711 295.602 272.197 296.386 271.824C297.188 271.451 298.066 271.264 299.018 271.264C300.231 271.264 301.314 271.525 302.266 272.048C303.218 272.552 303.955 273.28 304.478 274.232C304.982 273.336 305.71 272.617 306.662 272.076C307.632 271.535 308.678 271.264 309.798 271.264ZM323.793 273.728C324.297 273.019 324.988 272.431 325.865 271.964C326.761 271.479 327.779 271.236 328.917 271.236C330.243 271.236 331.437 271.563 332.501 272.216C333.584 272.869 334.433 273.803 335.049 275.016C335.684 276.211 336.001 277.601 336.001 279.188C336.001 280.775 335.684 282.184 335.049 283.416C334.433 284.629 333.584 285.572 332.501 286.244C331.437 286.916 330.243 287.252 328.917 287.252C327.779 287.252 326.771 287.019 325.893 286.552C325.035 286.085 324.335 285.497 323.793 284.788V294.392H319.873V271.488H323.793V273.728ZM331.997 279.188C331.997 278.255 331.801 277.452 331.409 276.78C331.036 276.089 330.532 275.567 329.897 275.212C329.281 274.857 328.609 274.68 327.881 274.68C327.172 274.68 326.5 274.867 325.865 275.24C325.249 275.595 324.745 276.117 324.353 276.808C323.98 277.499 323.793 278.311 323.793 279.244C323.793 280.177 323.98 280.989 324.353 281.68C324.745 282.371 325.249 282.903 325.865 283.276C326.5 283.631 327.172 283.808 327.881 283.808C328.609 283.808 329.281 283.621 329.897 283.248C330.532 282.875 331.036 282.343 331.409 281.652C331.801 280.961 331.997 280.14 331.997 279.188ZM342.77 266.28V287H338.85V266.28H342.77ZM361.063 278.908C361.063 279.468 361.026 279.972 360.951 280.42H349.611C349.704 281.54 350.096 282.417 350.787 283.052C351.478 283.687 352.327 284.004 353.335 284.004C354.791 284.004 355.827 283.379 356.443 282.128H360.671C360.223 283.621 359.364 284.853 358.095 285.824C356.826 286.776 355.267 287.252 353.419 287.252C351.926 287.252 350.582 286.925 349.387 286.272C348.211 285.6 347.287 284.657 346.615 283.444C345.962 282.231 345.635 280.831 345.635 279.244C345.635 277.639 345.962 276.229 346.615 275.016C347.268 273.803 348.183 272.869 349.359 272.216C350.535 271.563 351.888 271.236 353.419 271.236C354.894 271.236 356.21 271.553 357.367 272.188C358.543 272.823 359.448 273.728 360.083 274.904C360.736 276.061 361.063 277.396 361.063 278.908ZM357.003 277.788C356.984 276.78 356.62 275.977 355.911 275.38C355.202 274.764 354.334 274.456 353.307 274.456C352.336 274.456 351.515 274.755 350.843 275.352C350.19 275.931 349.788 276.743 349.639 277.788H357.003ZM368.488 274.708V282.212C368.488 282.735 368.61 283.117 368.852 283.36C369.114 283.584 369.543 283.696 370.14 283.696H371.96V287H369.496C366.192 287 364.54 285.395 364.54 282.184V274.708H362.692V271.488H364.54V267.652H368.488V271.488H371.96V274.708H368.488ZM389.2 278.908C389.2 279.468 389.162 279.972 389.088 280.42H377.748C377.841 281.54 378.233 282.417 378.924 283.052C379.614 283.687 380.464 284.004 381.472 284.004C382.928 284.004 383.964 283.379 384.58 282.128H388.808C388.36 283.621 387.501 284.853 386.232 285.824C384.962 286.776 383.404 287.252 381.556 287.252C380.062 287.252 378.718 286.925 377.524 286.272C376.348 285.6 375.424 284.657 374.752 283.444C374.098 282.231 373.772 280.831 373.772 279.244C373.772 277.639 374.098 276.229 374.752 275.016C375.405 273.803 376.32 272.869 377.496 272.216C378.672 271.563 380.025 271.236 381.556 271.236C383.03 271.236 384.346 271.553 385.504 272.188C386.68 272.823 387.585 273.728 388.22 274.904C388.873 276.061 389.2 277.396 389.2 278.908ZM385.14 277.788C385.121 276.78 384.757 275.977 384.048 275.38C383.338 274.764 382.47 274.456 381.444 274.456C380.473 274.456 379.652 274.755 378.98 275.352C378.326 275.931 377.925 276.743 377.776 277.788H385.14ZM397.129 267.12L396.681 280.644H393.377L392.901 267.12H397.129ZM395.113 287.196C394.404 287.196 393.816 286.981 393.349 286.552C392.901 286.104 392.677 285.553 392.677 284.9C392.677 284.247 392.901 283.705 393.349 283.276C393.816 282.828 394.404 282.604 395.113 282.604C395.804 282.604 396.373 282.828 396.821 283.276C397.269 283.705 397.493 284.247 397.493 284.9C397.493 285.553 397.269 286.104 396.821 286.552C396.373 286.981 395.804 287.196 395.113 287.196Z" fill="#0E1111"/>
<path d="M10.5246 304.88V306.368H7.56463V316H5.74063V306.368H2.76463V304.88H10.5246ZM16.9319 307.04C17.6039 307.04 18.2012 307.184 18.7239 307.472C19.2572 307.76 19.6732 308.187 19.9719 308.752C20.2812 309.317 20.4359 310 20.4359 310.8V316H18.6279V311.072C18.6279 310.283 18.4305 309.68 18.0359 309.264C17.6412 308.837 17.1025 308.624 16.4199 308.624C15.7372 308.624 15.1932 308.837 14.7879 309.264C14.3932 309.68 14.1959 310.283 14.1959 311.072V316H12.3719V304.16H14.1959V308.208C14.5052 307.835 14.8945 307.547 15.3639 307.344C15.8439 307.141 16.3665 307.04 16.9319 307.04ZM22.1545 311.552C22.1545 310.667 22.3358 309.883 22.6985 309.2C23.0718 308.517 23.5732 307.989 24.2025 307.616C24.8425 307.232 25.5465 307.04 26.3145 307.04C27.0078 307.04 27.6105 307.179 28.1225 307.456C28.6452 307.723 29.0612 308.059 29.3705 308.464V307.184H31.2105V316H29.3705V314.688C29.0612 315.104 28.6398 315.451 28.1065 315.728C27.5732 316.005 26.9652 316.144 26.2825 316.144C25.5252 316.144 24.8318 315.952 24.2025 315.568C23.5732 315.173 23.0718 314.629 22.6985 313.936C22.3358 313.232 22.1545 312.437 22.1545 311.552ZM29.3705 311.584C29.3705 310.976 29.2425 310.448 28.9865 310C28.7412 309.552 28.4158 309.211 28.0105 308.976C27.6052 308.741 27.1678 308.624 26.6985 308.624C26.2292 308.624 25.7918 308.741 25.3865 308.976C24.9812 309.2 24.6505 309.536 24.3945 309.984C24.1492 310.421 24.0265 310.944 24.0265 311.552C24.0265 312.16 24.1492 312.693 24.3945 313.152C24.6505 313.611 24.9812 313.963 25.3865 314.208C25.8025 314.443 26.2398 314.56 26.6985 314.56C27.1678 314.56 27.6052 314.443 28.0105 314.208C28.4158 313.973 28.7412 313.632 28.9865 313.184C29.2425 312.725 29.3705 312.192 29.3705 311.584ZM38.0543 307.04C38.7476 307.04 39.3663 307.184 39.9103 307.472C40.4649 307.76 40.8969 308.187 41.2063 308.752C41.5156 309.317 41.6703 310 41.6703 310.8V316H39.8623V311.072C39.8623 310.283 39.6649 309.68 39.2703 309.264C38.8756 308.837 38.3369 308.624 37.6543 308.624C36.9716 308.624 36.4276 308.837 36.0223 309.264C35.6276 309.68 35.4303 310.283 35.4303 311.072V316H33.6063V307.184H35.4303V308.192C35.7289 307.829 36.1076 307.547 36.5663 307.344C37.0356 307.141 37.5316 307.04 38.0543 307.04ZM47.4849 311.6L51.5489 316H49.0849L45.8209 312.208V316H43.9969V304.16H45.8209V311.04L49.0209 307.184H51.5489L47.4849 311.6ZM64.9485 307.184L59.5405 320.144H57.6525L59.4445 315.856L55.9725 307.184H58.0045L60.4845 313.904L63.0605 307.184H64.9485ZM70.149 316.144C69.317 316.144 68.565 315.957 67.893 315.584C67.221 315.2 66.693 314.667 66.309 313.984C65.925 313.291 65.733 312.491 65.733 311.584C65.733 310.688 65.9303 309.893 66.325 309.2C66.7197 308.507 67.2583 307.973 67.941 307.6C68.6237 307.227 69.3863 307.04 70.229 307.04C71.0717 307.04 71.8343 307.227 72.517 307.6C73.1997 307.973 73.7383 308.507 74.133 309.2C74.5277 309.893 74.725 310.688 74.725 311.584C74.725 312.48 74.5223 313.275 74.117 313.968C73.7117 314.661 73.157 315.2 72.453 315.584C71.7597 315.957 70.9917 316.144 70.149 316.144ZM70.149 314.56C70.6183 314.56 71.0557 314.448 71.461 314.224C71.877 314 72.213 313.664 72.469 313.216C72.725 312.768 72.853 312.224 72.853 311.584C72.853 310.944 72.7303 310.405 72.485 309.968C72.2397 309.52 71.9143 309.184 71.509 308.96C71.1037 308.736 70.6663 308.624 70.197 308.624C69.7277 308.624 69.2903 308.736 68.885 308.96C68.4903 309.184 68.1757 309.52 67.941 309.968C67.7063 310.405 67.589 310.944 67.589 311.584C67.589 312.533 67.829 313.269 68.309 313.792C68.7997 314.304 69.413 314.56 70.149 314.56ZM84.5121 307.184V316H82.6881V314.96C82.4001 315.323 82.0215 315.611 81.5521 315.824C81.0935 316.027 80.6028 316.128 80.0801 316.128C79.3868 316.128 78.7628 315.984 78.2081 315.696C77.6641 315.408 77.2321 314.981 76.9121 314.416C76.6028 313.851 76.4481 313.168 76.4481 312.368V307.184H78.2561V312.096C78.2561 312.885 78.4535 313.493 78.8481 313.92C79.2428 314.336 79.7815 314.544 80.4641 314.544C81.1468 314.544 81.6855 314.336 82.0801 313.92C82.4855 313.493 82.6881 312.885 82.6881 312.096V307.184H84.5121ZM94.771 308.672H93.139V316H91.299V308.672H90.259V307.184H91.299V306.56C91.299 305.547 91.5657 304.811 92.099 304.352C92.643 303.883 93.491 303.648 94.643 303.648V305.168C94.0883 305.168 93.699 305.275 93.475 305.488C93.251 305.691 93.139 306.048 93.139 306.56V307.184H94.771V308.672ZM100.212 316.144C99.3795 316.144 98.6275 315.957 97.9555 315.584C97.2835 315.2 96.7555 314.667 96.3715 313.984C95.9875 313.291 95.7955 312.491 95.7955 311.584C95.7955 310.688 95.9928 309.893 96.3875 309.2C96.7822 308.507 97.3208 307.973 98.0035 307.6C98.6862 307.227 99.4488 307.04 100.292 307.04C101.134 307.04 101.897 307.227 102.58 307.6C103.262 307.973 103.801 308.507 104.196 309.2C104.59 309.893 104.788 310.688 104.788 311.584C104.788 312.48 104.585 313.275 104.18 313.968C103.774 314.661 103.22 315.2 102.516 315.584C101.822 315.957 101.054 316.144 100.212 316.144ZM100.212 314.56C100.681 314.56 101.118 314.448 101.524 314.224C101.94 314 102.276 313.664 102.532 313.216C102.788 312.768 102.916 312.224 102.916 311.584C102.916 310.944 102.793 310.405 102.548 309.968C102.302 309.52 101.977 309.184 101.572 308.96C101.166 308.736 100.729 308.624 100.26 308.624C99.7902 308.624 99.3528 308.736 98.9475 308.96C98.5528 309.184 98.2382 309.52 98.0035 309.968C97.7688 310.405 97.6515 310.944 97.6515 311.584C97.6515 312.533 97.8915 313.269 98.3715 313.792C98.8622 314.304 99.4755 314.56 100.212 314.56ZM108.415 308.464C108.681 308.016 109.033 307.669 109.471 307.424C109.919 307.168 110.447 307.04 111.055 307.04V308.928H110.591C109.876 308.928 109.332 309.109 108.959 309.472C108.596 309.835 108.415 310.464 108.415 311.36V316H106.591V307.184H108.415V308.464ZM124.824 307.184L119.416 320.144H117.528L119.32 315.856L115.848 307.184H117.88L120.36 313.904L122.936 307.184H124.824ZM130.024 316.144C129.192 316.144 128.44 315.957 127.768 315.584C127.096 315.2 126.568 314.667 126.184 313.984C125.8 313.291 125.608 312.491 125.608 311.584C125.608 310.688 125.805 309.893 126.2 309.2C126.595 308.507 127.133 307.973 127.816 307.6C128.499 307.227 129.261 307.04 130.104 307.04C130.947 307.04 131.709 307.227 132.392 307.6C133.075 307.973 133.613 308.507 134.008 309.2C134.403 309.893 134.6 310.688 134.6 311.584C134.6 312.48 134.397 313.275 133.992 313.968C133.587 314.661 133.032 315.2 132.328 315.584C131.635 315.957 130.867 316.144 130.024 316.144ZM130.024 314.56C130.493 314.56 130.931 314.448 131.336 314.224C131.752 314 132.088 313.664 132.344 313.216C132.6 312.768 132.728 312.224 132.728 311.584C132.728 310.944 132.605 310.405 132.36 309.968C132.115 309.52 131.789 309.184 131.384 308.96C130.979 308.736 130.541 308.624 130.072 308.624C129.603 308.624 129.165 308.736 128.76 308.96C128.365 309.184 128.051 309.52 127.816 309.968C127.581 310.405 127.464 310.944 127.464 311.584C127.464 312.533 127.704 313.269 128.184 313.792C128.675 314.304 129.288 314.56 130.024 314.56ZM144.387 307.184V316H142.563V314.96C142.275 315.323 141.896 315.611 141.427 315.824C140.968 316.027 140.478 316.128 139.955 316.128C139.262 316.128 138.638 315.984 138.083 315.696C137.539 315.408 137.107 314.981 136.787 314.416C136.478 313.851 136.323 313.168 136.323 312.368V307.184H138.131V312.096C138.131 312.885 138.328 313.493 138.723 313.92C139.118 314.336 139.656 314.544 140.339 314.544C141.022 314.544 141.56 314.336 141.955 313.92C142.36 313.493 142.563 312.885 142.563 312.096V307.184H144.387ZM148.618 308.464C148.884 308.016 149.236 307.669 149.674 307.424C150.122 307.168 150.65 307.04 151.258 307.04V308.928H150.794C150.079 308.928 149.535 309.109 149.162 309.472C148.799 309.835 148.618 310.464 148.618 311.36V316H146.794V307.184H148.618V308.464ZM158.915 308.48C159.224 308.075 159.645 307.733 160.179 307.456C160.712 307.179 161.315 307.04 161.987 307.04C162.755 307.04 163.453 307.232 164.083 307.616C164.723 307.989 165.224 308.517 165.587 309.2C165.949 309.883 166.131 310.667 166.131 311.552C166.131 312.437 165.949 313.232 165.587 313.936C165.224 314.629 164.723 315.173 164.083 315.568C163.453 315.952 162.755 316.144 161.987 316.144C161.315 316.144 160.717 316.011 160.195 315.744C159.672 315.467 159.245 315.125 158.915 314.72V320.192H157.091V307.184H158.915V308.48ZM164.275 311.552C164.275 310.944 164.147 310.421 163.891 309.984C163.645 309.536 163.315 309.2 162.899 308.976C162.493 308.741 162.056 308.624 161.587 308.624C161.128 308.624 160.691 308.741 160.275 308.976C159.869 309.211 159.539 309.552 159.283 310C159.037 310.448 158.915 310.976 158.915 311.584C158.915 312.192 159.037 312.725 159.283 313.184C159.539 313.632 159.869 313.973 160.275 314.208C160.691 314.443 161.128 314.56 161.587 314.56C162.056 314.56 162.493 314.443 162.899 314.208C163.315 313.963 163.645 313.611 163.891 313.152C164.147 312.693 164.275 312.16 164.275 311.552ZM167.326 311.552C167.326 310.667 167.508 309.883 167.87 309.2C168.244 308.517 168.745 307.989 169.374 307.616C170.014 307.232 170.718 307.04 171.486 307.04C172.18 307.04 172.782 307.179 173.294 307.456C173.817 307.723 174.233 308.059 174.542 308.464V307.184H176.382V316H174.542V314.688C174.233 315.104 173.812 315.451 173.278 315.728C172.745 316.005 172.137 316.144 171.454 316.144C170.697 316.144 170.004 315.952 169.374 315.568C168.745 315.173 168.244 314.629 167.87 313.936C167.508 313.232 167.326 312.437 167.326 311.552ZM174.542 311.584C174.542 310.976 174.414 310.448 174.158 310C173.913 309.552 173.588 309.211 173.182 308.976C172.777 308.741 172.34 308.624 171.87 308.624C171.401 308.624 170.964 308.741 170.558 308.976C170.153 309.2 169.822 309.536 169.566 309.984C169.321 310.421 169.198 310.944 169.198 311.552C169.198 312.16 169.321 312.693 169.566 313.152C169.822 313.611 170.153 313.963 170.558 314.208C170.974 314.443 171.412 314.56 171.87 314.56C172.34 314.56 172.777 314.443 173.182 314.208C173.588 313.973 173.913 313.632 174.158 313.184C174.414 312.725 174.542 312.192 174.542 311.584ZM180.906 308.672V313.552C180.906 313.883 180.981 314.123 181.13 314.272C181.29 314.411 181.557 314.48 181.93 314.48H183.05V316H181.61C180.789 316 180.159 315.808 179.722 315.424C179.285 315.04 179.066 314.416 179.066 313.552V308.672H178.026V307.184H179.066V304.992H180.906V307.184H183.05V308.672H180.906ZM185.659 306.016C185.329 306.016 185.051 305.904 184.827 305.68C184.603 305.456 184.491 305.179 184.491 304.848C184.491 304.517 184.603 304.24 184.827 304.016C185.051 303.792 185.329 303.68 185.659 303.68C185.979 303.68 186.251 303.792 186.475 304.016C186.699 304.24 186.811 304.517 186.811 304.848C186.811 305.179 186.699 305.456 186.475 305.68C186.251 305.904 185.979 306.016 185.659 306.016ZM186.555 307.184V316H184.731V307.184H186.555ZM197.03 311.376C197.03 311.707 197.009 312.005 196.966 312.272H190.23C190.283 312.976 190.545 313.541 191.014 313.968C191.483 314.395 192.059 314.608 192.742 314.608C193.723 314.608 194.417 314.197 194.822 313.376H196.79C196.523 314.187 196.038 314.853 195.334 315.376C194.641 315.888 193.777 316.144 192.742 316.144C191.899 316.144 191.142 315.957 190.47 315.584C189.809 315.2 189.286 314.667 188.902 313.984C188.529 313.291 188.342 312.491 188.342 311.584C188.342 310.677 188.523 309.883 188.886 309.2C189.259 308.507 189.777 307.973 190.438 307.6C191.11 307.227 191.878 307.04 192.742 307.04C193.574 307.04 194.315 307.221 194.966 307.584C195.617 307.947 196.123 308.459 196.486 309.12C196.849 309.771 197.03 310.523 197.03 311.376ZM195.126 310.8C195.115 310.128 194.875 309.589 194.406 309.184C193.937 308.779 193.355 308.576 192.662 308.576C192.033 308.576 191.494 308.779 191.046 309.184C190.598 309.579 190.331 310.117 190.246 310.8H195.126ZM203.273 307.04C203.966 307.04 204.585 307.184 205.129 307.472C205.684 307.76 206.116 308.187 206.425 308.752C206.734 309.317 206.889 310 206.889 310.8V316H205.081V311.072C205.081 310.283 204.884 309.68 204.489 309.264C204.094 308.837 203.556 308.624 202.873 308.624C202.19 308.624 201.646 308.837 201.241 309.264C200.846 309.68 200.649 310.283 200.649 311.072V316H198.825V307.184H200.649V308.192C200.948 307.829 201.326 307.547 201.785 307.344C202.254 307.141 202.75 307.04 203.273 307.04ZM208.608 311.584C208.608 310.677 208.789 309.883 209.152 309.2C209.525 308.507 210.037 307.973 210.688 307.6C211.338 307.227 212.085 307.04 212.928 307.04C213.994 307.04 214.874 307.296 215.568 307.808C216.272 308.309 216.746 309.029 216.992 309.968H215.024C214.864 309.531 214.608 309.189 214.256 308.944C213.904 308.699 213.461 308.576 212.928 308.576C212.181 308.576 211.584 308.843 211.136 309.376C210.698 309.899 210.48 310.635 210.48 311.584C210.48 312.533 210.698 313.275 211.136 313.808C211.584 314.341 212.181 314.608 212.928 314.608C213.984 314.608 214.682 314.144 215.024 313.216H216.992C216.736 314.112 216.256 314.827 215.552 315.36C214.848 315.883 213.973 316.144 212.928 316.144C212.085 316.144 211.338 315.957 210.688 315.584C210.037 315.2 209.525 314.667 209.152 313.984C208.789 313.291 208.608 312.491 208.608 311.584ZM226.889 311.376C226.889 311.707 226.868 312.005 226.825 312.272H220.089C220.143 312.976 220.404 313.541 220.873 313.968C221.343 314.395 221.919 314.608 222.601 314.608C223.583 314.608 224.276 314.197 224.681 313.376H226.649C226.383 314.187 225.897 314.853 225.193 315.376C224.5 315.888 223.636 316.144 222.601 316.144C221.759 316.144 221.001 315.957 220.329 315.584C219.668 315.2 219.145 314.667 218.761 313.984C218.388 313.291 218.201 312.491 218.201 311.584C218.201 310.677 218.383 309.883 218.745 309.2C219.119 308.507 219.636 307.973 220.297 307.6C220.969 307.227 221.737 307.04 222.601 307.04C223.433 307.04 224.175 307.221 224.825 307.584C225.476 307.947 225.983 308.459 226.345 309.12C226.708 309.771 226.889 310.523 226.889 311.376ZM224.985 310.8C224.975 310.128 224.735 309.589 224.265 309.184C223.796 308.779 223.215 308.576 222.521 308.576C221.892 308.576 221.353 308.779 220.905 309.184C220.457 309.579 220.191 310.117 220.105 310.8H224.985ZM230.684 313.808L228.748 318.224H227.564L228.7 313.808H230.684ZM244.37 307.184L238.962 320.144H237.074L238.866 315.856L235.394 307.184H237.426L239.906 313.904L242.482 307.184H244.37ZM249.571 316.144C248.739 316.144 247.987 315.957 247.315 315.584C246.643 315.2 246.115 314.667 245.731 313.984C245.347 313.291 245.155 312.491 245.155 311.584C245.155 310.688 245.352 309.893 245.747 309.2C246.142 308.507 246.68 307.973 247.363 307.6C248.046 307.227 248.808 307.04 249.651 307.04C250.494 307.04 251.256 307.227 251.939 307.6C252.622 307.973 253.16 308.507 253.555 309.2C253.95 309.893 254.147 310.688 254.147 311.584C254.147 312.48 253.944 313.275 253.539 313.968C253.134 314.661 252.579 315.2 251.875 315.584C251.182 315.957 250.414 316.144 249.571 316.144ZM249.571 314.56C250.04 314.56 250.478 314.448 250.883 314.224C251.299 314 251.635 313.664 251.891 313.216C252.147 312.768 252.275 312.224 252.275 311.584C252.275 310.944 252.152 310.405 251.907 309.968C251.662 309.52 251.336 309.184 250.931 308.96C250.526 308.736 250.088 308.624 249.619 308.624C249.15 308.624 248.712 308.736 248.307 308.96C247.912 309.184 247.598 309.52 247.363 309.968C247.128 310.405 247.011 310.944 247.011 311.584C247.011 312.533 247.251 313.269 247.731 313.792C248.222 314.304 248.835 314.56 249.571 314.56ZM263.934 307.184V316H262.11V314.96C261.822 315.323 261.443 315.611 260.974 315.824C260.515 316.027 260.025 316.128 259.502 316.128C258.809 316.128 258.185 315.984 257.63 315.696C257.086 315.408 256.654 314.981 256.334 314.416C256.025 313.851 255.87 313.168 255.87 312.368V307.184H257.678V312.096C257.678 312.885 257.875 313.493 258.27 313.92C258.665 314.336 259.203 314.544 259.886 314.544C260.569 314.544 261.107 314.336 261.502 313.92C261.907 313.493 262.11 312.885 262.11 312.096V307.184H263.934ZM281.169 307.04C281.862 307.04 282.481 307.184 283.025 307.472C283.58 307.76 284.012 308.187 284.321 308.752C284.641 309.317 284.801 310 284.801 310.8V316H282.993V311.072C282.993 310.283 282.796 309.68 282.401 309.264C282.006 308.837 281.468 308.624 280.785 308.624C280.102 308.624 279.558 308.837 279.153 309.264C278.758 309.68 278.561 310.283 278.561 311.072V316H276.753V311.072C276.753 310.283 276.556 309.68 276.161 309.264C275.766 308.837 275.228 308.624 274.545 308.624C273.862 308.624 273.318 308.837 272.913 309.264C272.518 309.68 272.321 310.283 272.321 311.072V316H270.497V307.184H272.321V308.192C272.62 307.829 272.998 307.547 273.457 307.344C273.916 307.141 274.406 307.04 274.929 307.04C275.633 307.04 276.262 307.189 276.817 307.488C277.372 307.787 277.798 308.219 278.097 308.784C278.364 308.251 278.78 307.829 279.345 307.52C279.91 307.2 280.518 307.04 281.169 307.04ZM286.514 311.552C286.514 310.667 286.695 309.883 287.058 309.2C287.431 308.517 287.933 307.989 288.562 307.616C289.202 307.232 289.906 307.04 290.674 307.04C291.367 307.04 291.97 307.179 292.482 307.456C293.005 307.723 293.421 308.059 293.73 308.464V307.184H295.57V316H293.73V314.688C293.421 315.104 292.999 315.451 292.466 315.728C291.933 316.005 291.325 316.144 290.642 316.144C289.885 316.144 289.191 315.952 288.562 315.568C287.933 315.173 287.431 314.629 287.058 313.936C286.695 313.232 286.514 312.437 286.514 311.552ZM293.73 311.584C293.73 310.976 293.602 310.448 293.346 310C293.101 309.552 292.775 309.211 292.37 308.976C291.965 308.741 291.527 308.624 291.058 308.624C290.589 308.624 290.151 308.741 289.746 308.976C289.341 309.2 289.01 309.536 288.754 309.984C288.509 310.421 288.386 310.944 288.386 311.552C288.386 312.16 288.509 312.693 288.754 313.152C289.01 313.611 289.341 313.963 289.746 314.208C290.162 314.443 290.599 314.56 291.058 314.56C291.527 314.56 291.965 314.443 292.37 314.208C292.775 313.973 293.101 313.632 293.346 313.184C293.602 312.725 293.73 312.192 293.73 311.584ZM305.902 307.184L300.494 320.144H298.606L300.398 315.856L296.926 307.184H298.958L301.438 313.904L304.014 307.184H305.902ZM315.882 307.04C316.576 307.04 317.194 307.184 317.738 307.472C318.293 307.76 318.725 308.187 319.034 308.752C319.344 309.317 319.498 310 319.498 310.8V316H317.69V311.072C317.69 310.283 317.493 309.68 317.098 309.264C316.704 308.837 316.165 308.624 315.482 308.624C314.8 308.624 314.256 308.837 313.85 309.264C313.456 309.68 313.258 310.283 313.258 311.072V316H311.434V307.184H313.258V308.192C313.557 307.829 313.936 307.547 314.394 307.344C314.864 307.141 315.36 307.04 315.882 307.04ZM325.649 316.144C324.817 316.144 324.065 315.957 323.393 315.584C322.721 315.2 322.193 314.667 321.809 313.984C321.425 313.291 321.233 312.491 321.233 311.584C321.233 310.688 321.43 309.893 321.825 309.2C322.22 308.507 322.758 307.973 323.441 307.6C324.124 307.227 324.886 307.04 325.729 307.04C326.572 307.04 327.334 307.227 328.017 307.6C328.7 307.973 329.238 308.507 329.633 309.2C330.028 309.893 330.225 310.688 330.225 311.584C330.225 312.48 330.022 313.275 329.617 313.968C329.212 314.661 328.657 315.2 327.953 315.584C327.26 315.957 326.492 316.144 325.649 316.144ZM325.649 314.56C326.118 314.56 326.556 314.448 326.961 314.224C327.377 314 327.713 313.664 327.969 313.216C328.225 312.768 328.353 312.224 328.353 311.584C328.353 310.944 328.23 310.405 327.985 309.968C327.74 309.52 327.414 309.184 327.009 308.96C326.604 308.736 326.166 308.624 325.697 308.624C325.228 308.624 324.79 308.736 324.385 308.96C323.99 309.184 323.676 309.52 323.441 309.968C323.206 310.405 323.089 310.944 323.089 311.584C323.089 312.533 323.329 313.269 323.809 313.792C324.3 314.304 324.913 314.56 325.649 314.56ZM343.868 307.184L341.132 316H339.212L337.436 309.488L335.66 316H333.74L330.988 307.184H332.844L334.684 314.272L336.556 307.184H338.46L340.252 314.24L342.076 307.184H343.868ZM351.212 308.48C351.521 308.075 351.942 307.733 352.476 307.456C353.009 307.179 353.612 307.04 354.284 307.04C355.052 307.04 355.75 307.232 356.38 307.616C357.02 307.989 357.521 308.517 357.884 309.2C358.246 309.883 358.428 310.667 358.428 311.552C358.428 312.437 358.246 313.232 357.884 313.936C357.521 314.629 357.02 315.173 356.38 315.568C355.75 315.952 355.052 316.144 354.284 316.144C353.612 316.144 353.014 316.011 352.492 315.744C351.969 315.467 351.542 315.125 351.212 314.72V320.192H349.388V307.184H351.212V308.48ZM356.572 311.552C356.572 310.944 356.444 310.421 356.188 309.984C355.942 309.536 355.612 309.2 355.196 308.976C354.79 308.741 354.353 308.624 353.884 308.624C353.425 308.624 352.988 308.741 352.572 308.976C352.166 309.211 351.836 309.552 351.58 310C351.334 310.448 351.212 310.976 351.212 311.584C351.212 312.192 351.334 312.725 351.58 313.184C351.836 313.632 352.166 313.973 352.572 314.208C352.988 314.443 353.425 314.56 353.884 314.56C354.353 314.56 354.79 314.443 355.196 314.208C355.612 313.963 355.942 313.611 356.188 313.152C356.444 312.693 356.572 312.16 356.572 311.552ZM362.055 308.464C362.322 308.016 362.674 307.669 363.111 307.424C363.559 307.168 364.087 307.04 364.695 307.04V308.928H364.231C363.517 308.928 362.973 309.109 362.599 309.472C362.237 309.835 362.055 310.464 362.055 311.36V316H360.231V307.184H362.055V308.464ZM370.196 316.144C369.364 316.144 368.612 315.957 367.94 315.584C367.268 315.2 366.74 314.667 366.356 313.984C365.972 313.291 365.78 312.491 365.78 311.584C365.78 310.688 365.977 309.893 366.372 309.2C366.767 308.507 367.305 307.973 367.988 307.6C368.671 307.227 369.433 307.04 370.276 307.04C371.119 307.04 371.881 307.227 372.564 307.6C373.247 307.973 373.785 308.507 374.18 309.2C374.575 309.893 374.772 310.688 374.772 311.584C374.772 312.48 374.569 313.275 374.164 313.968C373.759 314.661 373.204 315.2 372.5 315.584C371.807 315.957 371.039 316.144 370.196 316.144ZM370.196 314.56C370.665 314.56 371.103 314.448 371.508 314.224C371.924 314 372.26 313.664 372.516 313.216C372.772 312.768 372.9 312.224 372.9 311.584C372.9 310.944 372.777 310.405 372.532 309.968C372.287 309.52 371.961 309.184 371.556 308.96C371.151 308.736 370.713 308.624 370.244 308.624C369.775 308.624 369.337 308.736 368.932 308.96C368.537 309.184 368.223 309.52 367.988 309.968C367.753 310.405 367.636 310.944 367.636 311.584C367.636 312.533 367.876 313.269 368.356 313.792C368.847 314.304 369.46 314.56 370.196 314.56ZM375.967 311.584C375.967 310.677 376.148 309.883 376.511 309.2C376.884 308.507 377.396 307.973 378.047 307.6C378.698 307.227 379.444 307.04 380.287 307.04C381.354 307.04 382.234 307.296 382.927 307.808C383.631 308.309 384.106 309.029 384.351 309.968H382.383C382.223 309.531 381.967 309.189 381.615 308.944C381.263 308.699 380.82 308.576 380.287 308.576C379.54 308.576 378.943 308.843 378.495 309.376C378.058 309.899 377.839 310.635 377.839 311.584C377.839 312.533 378.058 313.275 378.495 313.808C378.943 314.341 379.54 314.608 380.287 314.608C381.343 314.608 382.042 314.144 382.383 313.216H384.351C384.095 314.112 383.615 314.827 382.911 315.36C382.207 315.883 381.332 316.144 380.287 316.144C379.444 316.144 378.698 315.957 378.047 315.584C377.396 315.2 376.884 314.667 376.511 313.984C376.148 313.291 375.967 312.491 375.967 311.584ZM394.249 311.376C394.249 311.707 394.227 312.005 394.185 312.272H387.449C387.502 312.976 387.763 313.541 388.233 313.968C388.702 314.395 389.278 314.608 389.961 314.608C390.942 314.608 391.635 314.197 392.041 313.376H394.009C393.742 314.187 393.257 314.853 392.553 315.376C391.859 315.888 390.995 316.144 389.961 316.144C389.118 316.144 388.361 315.957 387.689 315.584C387.027 315.2 386.505 314.667 386.121 313.984C385.747 313.291 385.561 312.491 385.561 311.584C385.561 310.677 385.742 309.883 386.105 309.2C386.478 308.507 386.995 307.973 387.657 307.6C388.329 307.227 389.097 307.04 389.961 307.04C390.793 307.04 391.534 307.221 392.185 307.584C392.835 307.947 393.342 308.459 393.705 309.12C394.067 309.771 394.249 310.523 394.249 311.376ZM392.345 310.8C392.334 310.128 392.094 309.589 391.625 309.184C391.155 308.779 390.574 308.576 389.881 308.576C389.251 308.576 388.713 308.779 388.265 309.184C387.817 309.579 387.55 310.117 387.465 310.8H392.345ZM404.124 311.376C404.124 311.707 404.102 312.005 404.06 312.272H397.324C397.377 312.976 397.638 313.541 398.108 313.968C398.577 314.395 399.153 314.608 399.836 314.608C400.817 314.608 401.51 314.197 401.916 313.376H403.884C403.617 314.187 403.132 314.853 402.428 315.376C401.734 315.888 400.87 316.144 399.836 316.144C398.993 316.144 398.236 315.957 397.564 315.584C396.902 315.2 396.38 314.667 395.996 313.984C395.622 313.291 395.436 312.491 395.436 311.584C395.436 310.677 395.617 309.883 395.98 309.2C396.353 308.507 396.87 307.973 397.532 307.6C398.204 307.227 398.972 307.04 399.836 307.04C400.668 307.04 401.409 307.221 402.06 307.584C402.71 307.947 403.217 308.459 403.58 309.12C403.942 309.771 404.124 310.523 404.124 311.376ZM402.22 310.8C402.209 310.128 401.969 309.589 401.5 309.184C401.03 308.779 400.449 308.576 399.756 308.576C399.126 308.576 398.588 308.779 398.14 309.184C397.692 309.579 397.425 310.117 397.34 310.8H402.22ZM405.311 311.552C405.311 310.667 405.492 309.883 405.855 309.2C406.228 308.517 406.729 307.989 407.359 307.616C407.999 307.232 408.708 307.04 409.487 307.04C410.063 307.04 410.628 307.168 411.183 307.424C411.748 307.669 412.196 308 412.527 308.416V304.16H414.367V316H412.527V314.672C412.228 315.099 411.812 315.451 411.279 315.728C410.756 316.005 410.153 316.144 409.471 316.144C408.703 316.144 407.999 315.952 407.359 315.568C406.729 315.173 406.228 314.629 405.855 313.936C405.492 313.232 405.311 312.437 405.311 311.552ZM412.527 311.584C412.527 310.976 412.399 310.448 412.143 310C411.897 309.552 411.572 309.211 411.167 308.976C410.761 308.741 410.324 308.624 409.855 308.624C409.385 308.624 408.948 308.741 408.543 308.976C408.137 309.2 407.807 309.536 407.551 309.984C407.305 310.421 407.183 310.944 407.183 311.552C407.183 312.16 407.305 312.693 407.551 313.152C407.807 313.611 408.137 313.963 408.543 314.208C408.959 314.443 409.396 314.56 409.855 314.56C410.324 314.56 410.761 314.443 411.167 314.208C411.572 313.973 411.897 313.632 412.143 313.184C412.399 312.725 412.527 312.192 412.527 311.584ZM423.047 308.672V313.552C423.047 313.883 423.121 314.123 423.271 314.272C423.431 314.411 423.697 314.48 424.071 314.48H425.191V316H423.751C422.929 316 422.3 315.808 421.863 315.424C421.425 315.04 421.207 314.416 421.207 313.552V308.672H420.167V307.184H421.207V304.992H423.047V307.184H425.191V308.672H423.047ZM430.696 316.144C429.864 316.144 429.112 315.957 428.44 315.584C427.768 315.2 427.24 314.667 426.856 313.984C426.472 313.291 426.28 312.491 426.28 311.584C426.28 310.688 426.477 309.893 426.872 309.2C427.267 308.507 427.805 307.973 428.488 307.6C429.171 307.227 429.933 307.04 430.776 307.04C431.619 307.04 432.381 307.227 433.064 307.6C433.747 307.973 434.285 308.507 434.68 309.2C435.075 309.893 435.272 310.688 435.272 311.584C435.272 312.48 435.069 313.275 434.664 313.968C434.259 314.661 433.704 315.2 433 315.584C432.307 315.957 431.539 316.144 430.696 316.144ZM430.696 314.56C431.165 314.56 431.603 314.448 432.008 314.224C432.424 314 432.76 313.664 433.016 313.216C433.272 312.768 433.4 312.224 433.4 311.584C433.4 310.944 433.277 310.405 433.032 309.968C432.787 309.52 432.461 309.184 432.056 308.96C431.651 308.736 431.213 308.624 430.744 308.624C430.275 308.624 429.837 308.736 429.432 308.96C429.037 309.184 428.723 309.52 428.488 309.968C428.253 310.405 428.136 310.944 428.136 311.584C428.136 312.533 428.376 313.269 428.856 313.792C429.347 314.304 429.96 314.56 430.696 314.56ZM443.359 308.672V313.552C443.359 313.883 443.434 314.123 443.583 314.272C443.743 314.411 444.01 314.48 444.383 314.48H445.503V316H444.063C443.242 316 442.613 315.808 442.175 315.424C441.738 315.04 441.519 314.416 441.519 313.552V308.672H440.479V307.184H441.519V304.992H443.359V307.184H445.503V308.672H443.359ZM451.744 307.04C452.416 307.04 453.014 307.184 453.536 307.472C454.07 307.76 454.486 308.187 454.784 308.752C455.094 309.317 455.248 310 455.248 310.8V316H453.44V311.072C453.44 310.283 453.243 309.68 452.848 309.264C452.454 308.837 451.915 308.624 451.232 308.624C450.55 308.624 450.006 308.837 449.6 309.264C449.206 309.68 449.008 310.283 449.008 311.072V316H447.184V304.16H449.008V308.208C449.318 307.835 449.707 307.547 450.176 307.344C450.656 307.141 451.179 307.04 451.744 307.04ZM465.655 311.376C465.655 311.707 465.634 312.005 465.591 312.272H458.855C458.908 312.976 459.17 313.541 459.639 313.968C460.108 314.395 460.684 314.608 461.367 314.608C462.348 314.608 463.042 314.197 463.447 313.376H465.415C465.148 314.187 464.663 314.853 463.959 315.376C463.266 315.888 462.402 316.144 461.367 316.144C460.524 316.144 459.767 315.957 459.095 315.584C458.434 315.2 457.911 314.667 457.527 313.984C457.154 313.291 456.967 312.491 456.967 311.584C456.967 310.677 457.148 309.883 457.511 309.2C457.884 308.507 458.402 307.973 459.063 307.6C459.735 307.227 460.503 307.04 461.367 307.04C462.199 307.04 462.94 307.221 463.591 307.584C464.242 307.947 464.748 308.459 465.111 309.12C465.474 309.771 465.655 310.523 465.655 311.376ZM463.751 310.8C463.74 310.128 463.5 309.589 463.031 309.184C462.562 308.779 461.98 308.576 461.287 308.576C460.658 308.576 460.119 308.779 459.671 309.184C459.223 309.579 458.956 310.117 458.871 310.8H463.751ZM474.806 316.144C474.113 316.144 473.489 316.021 472.934 315.776C472.39 315.52 471.958 315.179 471.638 314.752C471.318 314.315 471.148 313.829 471.126 313.296H473.014C473.046 313.669 473.222 313.984 473.542 314.24C473.873 314.485 474.284 314.608 474.774 314.608C475.286 314.608 475.681 314.512 475.958 314.32C476.246 314.117 476.39 313.861 476.39 313.552C476.39 313.221 476.23 312.976 475.91 312.816C475.601 312.656 475.105 312.48 474.422 312.288C473.761 312.107 473.222 311.931 472.806 311.76C472.39 311.589 472.028 311.328 471.718 310.976C471.42 310.624 471.27 310.16 471.27 309.584C471.27 309.115 471.409 308.688 471.686 308.304C471.964 307.909 472.358 307.6 472.87 307.376C473.393 307.152 473.99 307.04 474.662 307.04C475.665 307.04 476.47 307.296 477.078 307.808C477.697 308.309 478.028 308.997 478.07 309.872H476.246C476.214 309.477 476.054 309.163 475.766 308.928C475.478 308.693 475.089 308.576 474.598 308.576C474.118 308.576 473.75 308.667 473.494 308.848C473.238 309.029 473.11 309.269 473.11 309.568C473.11 309.803 473.196 310 473.366 310.16C473.537 310.32 473.745 310.448 473.99 310.544C474.236 310.629 474.598 310.741 475.078 310.88C475.718 311.051 476.241 311.227 476.646 311.408C477.062 311.579 477.42 311.835 477.718 312.176C478.017 312.517 478.172 312.971 478.182 313.536C478.182 314.037 478.044 314.485 477.766 314.88C477.489 315.275 477.094 315.584 476.582 315.808C476.081 316.032 475.489 316.144 474.806 316.144ZM481.081 306.016C480.75 306.016 480.473 305.904 480.249 305.68C480.025 305.456 479.913 305.179 479.913 304.848C479.913 304.517 480.025 304.24 480.249 304.016C480.473 303.792 480.75 303.68 481.081 303.68C481.401 303.68 481.673 303.792 481.897 304.016C482.121 304.24 482.233 304.517 482.233 304.848C482.233 305.179 482.121 305.456 481.897 305.68C481.673 305.904 481.401 306.016 481.081 306.016ZM481.977 307.184V316H480.153V307.184H481.977ZM486.5 308.672V313.552C486.5 313.883 486.575 314.123 486.724 314.272C486.884 314.411 487.151 314.48 487.524 314.48H488.644V316H487.204C486.383 316 485.753 315.808 485.316 315.424C484.879 315.04 484.66 314.416 484.66 313.552V308.672H483.62V307.184H484.66V304.992H486.5V307.184H488.644V308.672H486.5ZM498.405 311.376C498.405 311.707 498.384 312.005 498.341 312.272H491.605C491.658 312.976 491.92 313.541 492.389 313.968C492.858 314.395 493.434 314.608 494.117 314.608C495.098 314.608 495.792 314.197 496.197 313.376H498.165C497.898 314.187 497.413 314.853 496.709 315.376C496.016 315.888 495.152 316.144 494.117 316.144C493.274 316.144 492.517 315.957 491.845 315.584C491.184 315.2 490.661 314.667 490.277 313.984C489.904 313.291 489.717 312.491 489.717 311.584C489.717 310.677 489.898 309.883 490.261 309.2C490.634 308.507 491.152 307.973 491.813 307.6C492.485 307.227 493.253 307.04 494.117 307.04C494.949 307.04 495.69 307.221 496.341 307.584C496.992 307.947 497.498 308.459 497.861 309.12C498.224 309.771 498.405 310.523 498.405 311.376ZM496.501 310.8C496.49 310.128 496.25 309.589 495.781 309.184C495.312 308.779 494.73 308.576 494.037 308.576C493.408 308.576 492.869 308.779 492.421 309.184C491.973 309.579 491.706 310.117 491.621 310.8H496.501ZM500.936 316.112C500.605 316.112 500.328 316 500.104 315.776C499.88 315.552 499.768 315.275 499.768 314.944C499.768 314.613 499.88 314.336 500.104 314.112C500.328 313.888 500.605 313.776 500.936 313.776C501.256 313.776 501.528 313.888 501.752 314.112C501.976 314.336 502.088 314.613 502.088 314.944C502.088 315.275 501.976 315.552 501.752 315.776C501.528 316 501.256 316.112 500.936 316.112Z" fill="#656565"/>
<rect x="69" y="343" width="356" height="33" rx="3" fill="#015792"/>
<path d="M227.514 358.974C227.514 359.46 227.397 359.915 227.163 360.339C226.938 360.764 226.578 361.106 226.084 361.366C225.599 361.626 224.983 361.756 224.238 361.756H222.717V365.24H220.897V356.166H224.238C224.94 356.166 225.538 356.288 226.032 356.53C226.526 356.773 226.894 357.107 227.137 357.531C227.388 357.956 227.514 358.437 227.514 358.974ZM224.16 360.287C224.663 360.287 225.035 360.175 225.278 359.949C225.521 359.715 225.642 359.39 225.642 358.974C225.642 358.09 225.148 357.648 224.16 357.648H222.717V360.287H224.16ZM230.626 359.156C230.86 358.775 231.164 358.476 231.536 358.259C231.918 358.043 232.351 357.934 232.836 357.934V359.845H232.355C231.783 359.845 231.35 359.98 231.055 360.248C230.769 360.517 230.626 360.985 230.626 361.652V365.24H228.806V358.038H230.626V359.156ZM237.26 365.357C236.567 365.357 235.943 365.206 235.388 364.902C234.833 364.59 234.396 364.153 234.075 363.589C233.763 363.026 233.607 362.376 233.607 361.639C233.607 360.903 233.767 360.253 234.088 359.689C234.417 359.126 234.864 358.693 235.427 358.389C235.99 358.077 236.619 357.921 237.312 357.921C238.005 357.921 238.634 358.077 239.197 358.389C239.76 358.693 240.202 359.126 240.523 359.689C240.852 360.253 241.017 360.903 241.017 361.639C241.017 362.376 240.848 363.026 240.51 363.589C240.181 364.153 239.73 364.59 239.158 364.902C238.595 365.206 237.962 365.357 237.26 365.357ZM237.26 363.771C237.589 363.771 237.897 363.693 238.183 363.537C238.478 363.373 238.712 363.13 238.885 362.809C239.058 362.489 239.145 362.099 239.145 361.639C239.145 360.955 238.963 360.43 238.599 360.066C238.244 359.694 237.806 359.507 237.286 359.507C236.766 359.507 236.328 359.694 235.973 360.066C235.626 360.43 235.453 360.955 235.453 361.639C235.453 362.324 235.622 362.853 235.96 363.225C236.307 363.589 236.74 363.771 237.26 363.771ZM241.884 361.639C241.884 360.894 242.036 360.244 242.339 359.689C242.642 359.126 243.063 358.693 243.6 358.389C244.137 358.077 244.753 357.921 245.446 357.921C246.339 357.921 247.075 358.147 247.656 358.597C248.245 359.039 248.64 359.663 248.839 360.469H246.876C246.772 360.157 246.594 359.915 246.343 359.741C246.1 359.559 245.797 359.468 245.433 359.468C244.913 359.468 244.501 359.659 244.198 360.04C243.895 360.413 243.743 360.946 243.743 361.639C243.743 362.324 243.895 362.857 244.198 363.238C244.501 363.611 244.913 363.797 245.433 363.797C246.17 363.797 246.651 363.468 246.876 362.809H248.839C248.64 363.589 248.245 364.209 247.656 364.668C247.067 365.128 246.33 365.357 245.446 365.357C244.753 365.357 244.137 365.206 243.6 364.902C243.063 364.59 242.642 364.157 242.339 363.602C242.036 363.039 241.884 362.385 241.884 361.639ZM256.867 361.483C256.867 361.743 256.85 361.977 256.815 362.185H251.55C251.594 362.705 251.776 363.113 252.096 363.407C252.417 363.702 252.811 363.849 253.279 363.849C253.955 363.849 254.436 363.559 254.722 362.978H256.685C256.477 363.672 256.079 364.244 255.489 364.694C254.9 365.136 254.176 365.357 253.318 365.357C252.625 365.357 252.001 365.206 251.446 364.902C250.9 364.59 250.471 364.153 250.159 363.589C249.856 363.026 249.704 362.376 249.704 361.639C249.704 360.894 249.856 360.24 250.159 359.676C250.463 359.113 250.887 358.68 251.433 358.376C251.979 358.073 252.608 357.921 253.318 357.921C254.003 357.921 254.614 358.069 255.151 358.363C255.697 358.658 256.118 359.078 256.412 359.624C256.716 360.162 256.867 360.781 256.867 361.483ZM254.982 360.963C254.974 360.495 254.805 360.123 254.475 359.845C254.146 359.559 253.743 359.416 253.266 359.416C252.816 359.416 252.434 359.555 252.122 359.832C251.819 360.101 251.633 360.478 251.563 360.963H254.982ZM264.891 361.483C264.891 361.743 264.873 361.977 264.839 362.185H259.574C259.617 362.705 259.799 363.113 260.12 363.407C260.44 363.702 260.835 363.849 261.303 363.849C261.979 363.849 262.46 363.559 262.746 362.978H264.709C264.501 363.672 264.102 364.244 263.513 364.694C262.923 365.136 262.2 365.357 261.342 365.357C260.648 365.357 260.024 365.206 259.47 364.902C258.924 364.59 258.495 364.153 258.183 363.589C257.879 363.026 257.728 362.376 257.728 361.639C257.728 360.894 257.879 360.24 258.183 359.676C258.486 359.113 258.911 358.68 259.457 358.376C260.003 358.073 260.631 357.921 261.342 357.921C262.026 357.921 262.637 358.069 263.175 358.363C263.721 358.658 264.141 359.078 264.436 359.624C264.739 360.162 264.891 360.781 264.891 361.483ZM263.006 360.963C262.997 360.495 262.828 360.123 262.499 359.845C262.169 359.559 261.766 359.416 261.29 359.416C260.839 359.416 260.458 359.555 260.146 359.832C259.842 360.101 259.656 360.478 259.587 360.963H263.006ZM265.751 361.613C265.751 360.885 265.894 360.24 266.18 359.676C266.475 359.113 266.874 358.68 267.376 358.376C267.879 358.073 268.438 357.921 269.053 357.921C269.521 357.921 269.968 358.025 270.392 358.233C270.817 358.433 271.155 358.701 271.406 359.039V355.62H273.252V365.24H271.406V364.174C271.181 364.53 270.865 364.816 270.457 365.032C270.05 365.249 269.578 365.357 269.04 365.357C268.434 365.357 267.879 365.201 267.376 364.889C266.874 364.577 266.475 364.14 266.18 363.576C265.894 363.004 265.751 362.35 265.751 361.613ZM271.419 361.639C271.419 361.197 271.333 360.82 271.159 360.508C270.986 360.188 270.752 359.945 270.457 359.78C270.163 359.607 269.846 359.52 269.508 359.52C269.17 359.52 268.858 359.603 268.572 359.767C268.286 359.932 268.052 360.175 267.87 360.495C267.697 360.807 267.61 361.18 267.61 361.613C267.61 362.047 267.697 362.428 267.87 362.757C268.052 363.078 268.286 363.325 268.572 363.498C268.867 363.672 269.179 363.758 269.508 363.758C269.846 363.758 270.163 363.676 270.457 363.511C270.752 363.338 270.986 363.095 271.159 362.783C271.333 362.463 271.419 362.081 271.419 361.639Z" fill="white"/>
<path d="M303.851 81.0908H303.789L268.544 96.1556L220.321 116.767C220.132 116.847 219.93 116.888 219.726 116.889C219.521 116.89 219.319 116.851 219.129 116.774L169.377 96.1125L133.266 81.1154L133.211 81.0908H133.149C132.579 81.0915 132.033 81.3183 131.63 81.7216C131.227 82.1249 131.001 82.6717 131 83.242V176.667C131.001 177.237 131.227 177.784 131.63 178.187C132.033 178.591 132.579 178.817 133.149 178.818H303.851C304.421 178.817 304.967 178.591 305.37 178.187C305.773 177.784 305.999 177.237 306 176.667V83.242C305.999 82.6717 305.773 82.1249 305.37 81.7216C304.967 81.3183 304.421 81.0915 303.851 81.0908Z" fill="white"/>
<path d="M304.557 82.2272C304.494 82.2272 304.433 82.208 304.382 82.1721L219.641 22.8902C219.383 22.7106 219.076 22.6146 218.763 22.6152C218.449 22.6157 218.143 22.7127 217.886 22.8932L133.755 82.1715C133.722 82.1947 133.685 82.2111 133.646 82.2199C133.606 82.2287 133.566 82.2296 133.526 82.2226C133.486 82.2156 133.448 82.2009 133.414 82.1792C133.381 82.1575 133.351 82.1293 133.328 82.0962C133.305 82.0631 133.289 82.0257 133.28 81.9863C133.271 81.9468 133.27 81.906 133.277 81.8662C133.284 81.8264 133.299 81.7883 133.32 81.7542C133.342 81.7201 133.37 81.6906 133.403 81.6674L217.534 22.3891C217.894 22.1365 218.322 22.0007 218.762 22C219.201 21.9993 219.63 22.1336 219.991 22.385L304.732 81.6668C304.786 81.7042 304.826 81.7579 304.847 81.8199C304.868 81.882 304.869 81.9491 304.849 82.0117C304.83 82.0742 304.791 82.1288 304.738 82.1676C304.686 82.2063 304.622 82.2272 304.557 82.2272L304.557 82.2272Z" fill="#3F3D56"/>
<path d="M137.818 83.694L218.195 24.2729L299.182 87.9221L222.336 133.364L180.616 123.878L137.818 83.694Z" fill="#E6E6E6"/>
<path d="M184.786 161.773H144.259C144.01 161.773 143.764 161.729 143.534 161.644C143.304 161.558 143.095 161.433 142.919 161.274C142.743 161.116 142.603 160.928 142.508 160.721C142.412 160.514 142.363 160.292 142.363 160.068C142.363 159.844 142.412 159.622 142.508 159.416C142.603 159.209 142.743 159.021 142.919 158.862C143.095 158.704 143.304 158.578 143.534 158.493C143.764 158.407 144.01 158.363 144.259 158.364H184.786C185.035 158.363 185.281 158.407 185.511 158.493C185.741 158.578 185.95 158.704 186.126 158.862C186.302 159.021 186.442 159.209 186.537 159.416C186.632 159.622 186.681 159.844 186.681 160.068C186.681 160.292 186.632 160.514 186.537 160.721C186.442 160.928 186.302 161.116 186.126 161.274C185.95 161.433 185.741 161.558 185.511 161.644C185.281 161.729 185.035 161.773 184.786 161.773Z" fill="#015792"/>
<path d="M158.665 153.818H144.244C143.997 153.819 143.752 153.775 143.524 153.689C143.296 153.604 143.089 153.478 142.914 153.32C142.74 153.161 142.601 152.973 142.506 152.767C142.412 152.56 142.363 152.338 142.363 152.114C142.363 151.89 142.412 151.668 142.506 151.461C142.601 151.254 142.74 151.066 142.914 150.908C143.089 150.749 143.296 150.624 143.524 150.538C143.752 150.453 143.997 150.409 144.244 150.409H158.665C158.912 150.409 159.156 150.453 159.384 150.538C159.612 150.624 159.82 150.749 159.994 150.908C160.169 151.066 160.307 151.254 160.402 151.461C160.496 151.668 160.545 151.89 160.545 152.114C160.545 152.338 160.496 152.56 160.402 152.767C160.307 152.973 160.169 153.161 159.994 153.32C159.82 153.478 159.612 153.604 159.384 153.689C159.156 153.775 158.912 153.819 158.665 153.818Z" fill="#015792"/>
<path d="M219.819 117.455C219.519 117.455 219.222 117.396 218.944 117.282L169.637 96.6593V32.1076C169.637 31.5368 169.863 30.9896 170.263 30.5859C170.663 30.1823 171.206 29.9553 171.773 29.9546H266.364C266.931 29.9553 267.474 30.1823 267.874 30.5859C268.274 30.9896 268.5 31.5368 268.5 32.1076V96.7043L268.408 96.7443L220.721 117.272C220.436 117.393 220.129 117.455 219.819 117.455Z" fill="white"/>
<path d="M219.817 117.455C219.498 117.455 219.182 117.393 218.886 117.271L169.637 96.6814V32.2533C169.637 31.6439 169.878 31.0596 170.306 30.6286C170.733 30.1977 171.313 29.9553 171.918 29.9546H266.219C266.824 29.9553 267.404 30.1977 267.831 30.6286C268.259 31.0596 268.5 31.6439 268.5 32.2533V96.7251L220.776 117.26C220.472 117.389 220.146 117.455 219.817 117.455ZM170.245 96.2719L219.118 116.704C219.574 116.891 220.085 116.888 220.538 116.696L267.892 96.3204V32.2533C267.891 31.8064 267.715 31.3779 267.401 31.0619C267.088 30.7459 266.662 30.5681 266.219 30.5676H171.918C171.475 30.5681 171.049 30.7459 170.736 31.0619C170.422 31.3779 170.246 31.8064 170.245 32.2533V96.2719Z" fill="#3F3D56"/>
<path d="M303.851 81.0908H303.789L268.544 96.1556L220.321 116.767C220.132 116.847 219.93 116.888 219.726 116.889C219.521 116.89 219.319 116.851 219.129 116.774L169.377 96.1125L133.266 81.1154L133.211 81.0908H133.149C132.579 81.0915 132.033 81.3183 131.63 81.7216C131.227 82.1249 131.001 82.6717 131 83.242V176.667C131.001 177.237 131.227 177.784 131.63 178.187C132.033 178.591 132.579 178.817 133.149 178.818H303.851C304.421 178.817 304.967 178.591 305.37 178.187C305.773 177.784 305.999 177.237 306 176.667V83.242C305.999 82.6717 305.773 82.1249 305.37 81.7216C304.967 81.3183 304.421 81.0915 303.851 81.0908ZM305.386 176.667C305.386 177.074 305.224 177.465 304.936 177.753C304.648 178.041 304.258 178.203 303.851 178.203H133.149C132.742 178.203 132.352 178.041 132.064 177.753C131.776 177.465 131.614 177.074 131.614 176.667V83.242C131.615 82.8447 131.769 82.4629 132.044 82.1766C132.319 81.8902 132.694 81.7214 133.091 81.7055L169.377 96.7764L218.893 117.342C219.429 117.56 220.03 117.557 220.563 117.333L268.544 96.8225L303.912 81.7055C304.308 81.7226 304.682 81.8918 304.957 82.178C305.231 82.4642 305.385 82.8453 305.386 83.242V176.667Z" fill="#3F3D56"/>
<path d="M211.502 53.8184H177.771C177.121 53.8184 176.497 53.579 176.037 53.1527C175.577 52.7265 175.318 52.1484 175.318 51.5457C175.318 50.9429 175.577 50.3648 176.037 49.9386C176.497 49.5124 177.121 49.2729 177.771 49.2729H211.502C212.152 49.2729 212.776 49.5124 213.236 49.9386C213.696 50.3648 213.955 50.9429 213.955 51.5457C213.955 52.1484 213.696 52.7265 213.236 53.1527C212.776 53.579 212.152 53.8184 211.502 53.8184Z" fill="#015792"/>
<path d="M194.406 43.591H177.822C177.158 43.591 176.521 43.2917 176.052 42.7589C175.582 42.2261 175.318 41.5035 175.318 40.7501C175.318 39.9966 175.582 39.274 176.052 38.7413C176.521 38.2085 177.158 37.9092 177.822 37.9092H194.406C195.07 37.9092 195.707 38.2085 196.176 38.7413C196.646 39.274 196.909 39.9966 196.909 40.7501C196.909 41.5035 196.646 42.2261 196.176 42.7589C195.707 43.2917 195.07 43.591 194.406 43.591Z" fill="#015792"/>
<path d="M244.439 78.818H192.561C191.906 78.818 191.278 78.5187 190.814 77.986C190.351 77.4532 190.091 76.7306 190.091 75.9771C190.091 75.2237 190.351 74.5011 190.814 73.9683C191.278 73.4355 191.906 73.1362 192.561 73.1362H244.439C245.094 73.1362 245.722 73.4355 246.185 73.9683C246.649 74.5011 246.909 75.2237 246.909 75.9771C246.909 76.7306 246.649 77.4532 246.185 77.986C245.722 78.5187 245.094 78.818 244.439 78.818Z" fill="#CCCCCC"/>
<path d="M244.439 90.1818H192.561C191.906 90.1818 191.278 89.8825 190.814 89.3497C190.351 88.817 190.091 88.0944 190.091 87.3409C190.091 86.5875 190.351 85.8649 190.814 85.3321C191.278 84.7993 191.906 84.5 192.561 84.5H244.439C245.094 84.5 245.722 84.7993 246.185 85.3321C246.649 85.8649 246.909 86.5875 246.909 87.3409C246.909 88.0944 246.649 88.817 246.185 89.3497C245.722 89.8825 245.094 90.1818 244.439 90.1818Z" fill="#CCCCCC"/>
<path d="M372.551 219.083L372.959 209.891C377.213 207.613 381.958 206.409 386.782 206.385C380.143 211.823 380.973 222.305 376.472 229.617C375.051 231.887 373.138 233.807 370.875 235.236C368.612 236.664 366.058 237.564 363.401 237.869L357.845 241.277C357.083 237.02 357.251 232.647 358.338 228.461C359.425 224.275 361.405 220.374 364.141 217.028C365.695 215.167 367.476 213.508 369.443 212.092C370.774 215.607 372.551 219.083 372.551 219.083Z" fill="#F2F2F2"/>
<path d="M358.237 236.547L353.207 236.546L350.813 217.107L358.238 217.108L358.237 236.547Z" fill="#FFB6B6"/>
<path d="M359.52 241.431L343.3 241.431V241.225C343.3 239.548 343.965 237.939 345.149 236.753C346.333 235.567 347.939 234.9 349.613 234.9H349.614L352.576 232.648L358.104 234.901L359.52 234.901L359.52 241.431Z" fill="#2F2E41"/>
<path d="M334.867 236.547L329.836 236.546L327.443 217.107L334.868 217.108L334.867 236.547Z" fill="#FFB6B6"/>
<path d="M336.15 241.431L319.93 241.431V241.225C319.93 239.548 320.595 237.939 321.779 236.753C322.963 235.567 324.569 234.9 326.243 234.9H326.243L329.206 232.648L334.734 234.901L336.15 234.901L336.15 241.431Z" fill="#2F2E41"/>
<path d="M332.689 130.273L365.409 131.092C371.623 134.474 371.718 141.793 369.682 150.482C369.682 150.482 370.369 155.647 368.994 157.024C367.62 158.401 366.932 158.401 367.62 160.812C368.307 163.222 364.675 167.158 365.116 167.6C365.557 168.042 366.589 170.452 366.589 170.452L363.152 190.078C363.152 190.078 360.746 224.166 360.059 224.854C359.371 225.543 358.684 224.854 359.371 226.576C360.059 228.297 360.746 227.609 360.059 228.297C359.45 228.955 358.876 229.645 358.34 230.363H350.031C350.031 230.363 349.404 226.92 349.404 226.576C349.404 226.231 348.717 224.166 348.717 223.821C348.717 223.477 349.325 222.868 349.325 222.868C349.535 222.168 349.676 221.45 349.748 220.722C349.748 220.034 351.81 193.521 351.81 193.521L347.686 159.09L337.719 192.833C337.719 192.833 337.719 222.444 337.032 223.133C336.345 223.821 336.345 223.477 336.688 224.854C337.032 226.231 338.407 225.887 337.376 226.92C336.345 227.953 336.001 226.231 336.345 227.953L336.688 229.675L326.378 229.822C326.378 229.822 325.003 226.92 325.69 225.887C326.378 224.854 326.337 225.136 325.498 223.446C324.659 221.755 324.316 221.411 324.659 221.067C325.003 220.722 325.003 218.891 325.003 218.891L326.721 185.947C326.721 185.947 327.065 151.171 327.065 150.138C327.091 149.606 326.993 149.076 326.78 148.589V147.187L328.096 142.219L332.689 130.273Z" fill="#2F2E41"/>
<path d="M352.345 62.1117C357.96 62.1117 362.511 57.5518 362.511 51.9267C362.511 46.3017 357.96 41.7417 352.345 41.7417C346.73 41.7417 342.179 46.3017 342.179 51.9267C342.179 57.5518 346.73 62.1117 352.345 62.1117Z" fill="#FFB6B6"/>
<path d="M347.262 68.8433C345.072 70.1478 343.762 72.5446 343.009 74.9835C341.617 79.499 340.779 84.1675 340.514 88.886L339.719 103.012L329.881 133.091C338.407 140.32 370.457 134.734 370.457 134.734C370.457 134.734 371.441 134.406 370.457 133.42C369.474 132.434 368.516 133.308 369.5 132.322C370.483 131.336 369.805 132.434 369.477 131.449C369.149 130.463 369.477 131.12 369.805 130.792C370.133 130.463 367.266 127.506 367.266 127.506L369.89 110.24L373.169 75.4143C369.234 70.486 361.32 67.5808 361.32 67.5808L359.275 63.8931L349.05 64.7126L347.262 68.8433Z" fill="#E6E6E6"/>
<path d="M345.868 45.9491C346.261 45.9521 346.653 46.0036 347.033 46.1023C347.784 46.2831 348.547 46.4112 349.315 46.4857C351.669 46.7075 353.88 47.713 355.596 49.3417C357.312 50.9704 358.434 53.1282 358.783 55.4706C359.373 54.9546 360.718 54.0055 361.819 54.8876C361.836 54.9016 361.846 54.9088 361.885 54.8904C362.616 54.5427 363.915 50.2623 363.955 46.4935C363.975 44.4931 363.661 41.9388 362.046 41.1298L361.961 41.0872L361.939 40.9946C361.831 40.5446 360.626 39.7765 358.531 39.1787C354.723 38.0923 349.048 35.976 345.853 39.0905C345.611 40.1405 344.824 42.3875 344.029 42.6422C343.149 42.9241 342.389 43.1674 342.269 44.249C342.169 45.7882 342.176 47.3326 342.291 48.8707C342.589 47.9295 343.175 47.1057 343.965 46.5153C344.526 46.1364 345.191 45.9388 345.868 45.9491Z" fill="#2F2E41"/>
<path d="M326.945 102.226L343.552 91.5709L335.188 80.4316L326.929 90.6099L301.195 92.1911C300.518 91.5208 299.661 91.0623 298.729 90.8715C297.796 90.6806 296.828 90.7657 295.943 91.1164C295.058 91.467 294.294 92.0681 293.744 92.8463C293.194 93.6245 292.882 94.5462 292.846 95.499C292.81 96.4517 293.052 97.3945 293.541 98.2122C294.03 99.03 294.747 99.6874 295.603 100.104C296.459 100.521 297.417 100.68 298.361 100.56C299.306 100.441 300.195 100.049 300.92 99.4317L326.945 102.226Z" fill="#FFB6B6"/>
<path d="M358.964 76.6989C359.928 82.5427 341.727 93.7018 341.727 93.7018C341.727 92.3301 330.863 102.685 330.373 101.547C328.979 98.3144 327.999 90.6567 326.052 89.431C324.938 88.73 332.759 82.1452 332.759 82.1452C332.759 82.1452 336.853 78.0133 342.225 72.8016C343.717 71.2999 345.564 70.2008 347.593 69.6064C349.623 69.012 351.77 68.9418 353.834 69.4022C353.834 69.4022 358.001 70.8551 358.964 76.6989Z" fill="#E6E6E6"/>
<path d="M393.194 105.023L382.21 88.6147L371.271 97.2284L381.603 105.285L383.726 131.027C383.071 131.72 382.631 132.588 382.461 133.526C382.29 134.464 382.395 135.431 382.764 136.31C383.133 137.189 383.749 137.942 384.537 138.476C385.325 139.01 386.252 139.303 387.203 139.319C388.155 139.335 389.091 139.074 389.896 138.566C390.702 138.059 391.343 137.327 391.741 136.461C392.139 135.595 392.276 134.632 392.137 133.688C391.998 132.745 391.588 131.863 390.957 131.149L393.194 105.023Z" fill="#FFB6B6"/>
<path d="M367.042 73.4914C372.853 72.4022 384.374 90.3968 384.374 90.3968C383.006 90.4261 393.569 101.088 392.444 101.603C389.247 103.068 381.626 104.211 380.444 106.188C379.768 107.318 373.032 99.6237 373.032 99.6237C373.032 99.6237 368.822 95.6107 363.507 90.34C361.977 88.8778 360.841 87.0515 360.205 85.0311C359.568 83.0108 359.453 80.862 359.869 78.7849C359.869 78.7849 361.23 74.5805 367.042 73.4914Z" fill="#E6E6E6"/>
<path d="M396 241.513C396.001 241.577 395.988 241.64 395.964 241.699C395.939 241.759 395.904 241.812 395.858 241.858C395.813 241.903 395.759 241.939 395.7 241.963C395.641 241.988 395.578 242 395.514 242H280.875C280.746 242 280.622 241.949 280.531 241.857C280.44 241.766 280.389 241.642 280.389 241.513C280.389 241.383 280.44 241.259 280.531 241.168C280.622 241.076 280.746 241.025 280.875 241.025H395.514C395.578 241.025 395.641 241.037 395.7 241.062C395.759 241.086 395.813 241.122 395.858 241.167C395.904 241.213 395.939 241.266 395.964 241.326C395.988 241.385 396.001 241.448 396 241.513Z" fill="#CCCCCC"/>
<path d="M268.609 44.2747C277.229 44.2747 284.217 37.2736 284.217 28.6374C284.217 20.0011 277.229 13 268.609 13C259.988 13 253 20.0011 253 28.6374C253 37.2736 259.988 44.2747 268.609 44.2747Z" fill="#26AB35"/>
<path d="M266.48 36.7759C266.21 36.7759 265.944 36.713 265.703 36.5922C265.462 36.4714 265.252 36.296 265.091 36.0799L260.833 30.3917C260.695 30.209 260.595 30.0009 260.538 29.7794C260.48 29.5578 260.468 29.3272 260.5 29.1006C260.532 28.874 260.608 28.656 260.724 28.459C260.84 28.2621 260.994 28.09 261.177 27.9527C261.36 27.8154 261.568 27.7156 261.789 27.659C262.01 27.6024 262.241 27.59 262.467 27.6227C262.693 27.6554 262.91 27.7324 263.106 27.8494C263.303 27.9664 263.474 28.1211 263.61 28.3045L266.396 32.0256L273.552 21.2731C273.807 20.8893 274.204 20.6228 274.656 20.5323C275.107 20.4418 275.576 20.5348 275.959 20.7907C276.343 21.0466 276.608 21.4445 276.699 21.8969C276.789 22.3493 276.696 22.819 276.441 23.2029L267.924 36.0012C267.77 36.2327 267.563 36.4238 267.32 36.5585C267.077 36.6932 266.805 36.7675 266.528 36.7753C266.512 36.7756 266.496 36.7759 266.48 36.7759Z" fill="white"/>
</svg>
