<svg width="288" height="199" viewBox="0 0 288 199" fill="none" xmlns="http://www.w3.org/2000/svg">
<g clip-path="url(#clip0_554_9060)">
<path d="M285.279 75.3242H285.201L240.574 94.389L179.515 120.474C179.276 120.574 179.02 120.627 178.761 120.628C178.503 120.629 178.246 120.58 178.006 120.482L115.011 94.3346L69.2878 75.3553L69.2179 75.3242H69.1401C68.4187 75.325 67.727 75.6121 67.2168 76.1225C66.7067 76.6329 66.4197 77.3249 66.4189 78.0467V196.278C66.4197 197 66.7067 197.692 67.2168 198.202C67.727 198.713 68.4187 199 69.1401 199H285.279C286.001 199 286.692 198.713 287.202 198.202C287.712 197.692 287.999 197 288 196.278V78.0467C287.999 77.3249 287.712 76.6329 287.202 76.1225C286.692 75.6121 286.001 75.325 285.279 75.3242Z" fill="white"/>
<path d="M286.056 76.1016C285.977 76.1017 285.899 76.0773 285.834 76.0319L178.325 1.12479C177.998 0.897891 177.609 0.776634 177.211 0.777313C176.813 0.777993 176.424 0.900574 176.098 1.12858L69.3631 76.0312C69.3213 76.0605 69.2741 76.0813 69.2242 76.0924C69.1744 76.1035 69.1229 76.1047 69.0726 76.0958C69.0223 76.087 68.9742 76.0684 68.9311 76.041C68.8881 76.0135 68.8508 75.9779 68.8215 75.9361C68.7922 75.8943 68.7714 75.8471 68.7603 75.7972C68.7492 75.7473 68.748 75.6958 68.7568 75.6455C68.7657 75.5952 68.7843 75.5471 68.8117 75.504C68.8391 75.4609 68.8747 75.4236 68.9165 75.3942L175.651 0.491654C176.108 0.172487 176.652 0.000920035 177.209 3.6899e-06C177.767 -0.000912655 178.311 0.168864 178.769 0.486526L286.278 75.3935C286.346 75.4408 286.397 75.5086 286.424 75.587C286.451 75.6654 286.452 75.7503 286.427 75.8293C286.402 75.9083 286.353 75.9773 286.286 76.0263C286.219 76.0753 286.139 76.1017 286.056 76.1016L286.056 76.1016Z" fill="#3F3D56"/>
<path d="M75.4629 78.7568L177.317 3.23535L279.944 84.1305L182.565 141.885L129.696 129.828L75.4629 78.7568Z" fill="#E6E6E6"/>
<path d="M134.159 177.557H83.8402C83.5312 177.558 83.2252 177.497 82.9396 177.379C82.6541 177.261 82.3946 177.088 82.1759 176.87C81.9573 176.651 81.7839 176.392 81.6656 176.106C81.5472 175.821 81.4863 175.515 81.4863 175.205C81.4863 174.896 81.5472 174.59 81.6656 174.305C81.7839 174.019 81.9573 173.76 82.1759 173.541C82.3946 173.323 82.6541 173.15 82.9396 173.032C83.2252 172.914 83.5312 172.853 83.8402 172.854H134.159C134.468 172.853 134.774 172.914 135.059 173.032C135.345 173.15 135.604 173.323 135.823 173.541C136.042 173.76 136.215 174.019 136.333 174.305C136.452 174.59 136.513 174.896 136.513 175.205C136.513 175.515 136.452 175.821 136.333 176.106C136.215 176.392 136.042 176.651 135.823 176.87C135.604 177.088 135.345 177.261 135.059 177.379C134.774 177.497 134.468 177.558 134.159 177.557Z" fill="#015792"/>
<path d="M101.893 167.445H83.8402C83.5312 167.445 83.2252 167.385 82.9396 167.267C82.6541 167.149 82.3946 166.976 82.1759 166.757C81.9573 166.539 81.7839 166.279 81.6656 165.994C81.5472 165.708 81.4863 165.402 81.4863 165.093C81.4863 164.784 81.5472 164.478 81.6656 164.192C81.7839 163.907 81.9573 163.647 82.1759 163.429C82.3946 163.211 82.6541 163.037 82.9396 162.919C83.2252 162.801 83.5312 162.741 83.8402 162.741H101.893C102.202 162.741 102.508 162.801 102.794 162.919C103.079 163.037 103.339 163.211 103.558 163.429C103.776 163.647 103.95 163.907 104.068 164.192C104.186 164.478 104.247 164.784 104.247 165.093C104.247 165.402 104.186 165.708 104.068 165.994C103.95 166.279 103.776 166.539 103.558 166.757C103.339 166.976 103.079 167.149 102.794 167.267C102.508 167.385 102.202 167.445 101.893 167.445Z" fill="#015792"/>
<path d="M178.748 120.821C178.366 120.822 177.987 120.747 177.633 120.603L114.816 94.5261V12.9021C114.817 12.1803 115.104 11.4884 115.614 10.978C116.124 10.4676 116.816 10.1805 117.538 10.1797H238.047C238.768 10.1805 239.46 10.4676 239.97 10.978C240.48 11.4884 240.767 12.1803 240.768 12.9021V94.5831L240.65 94.6336L179.898 120.59C179.534 120.743 179.143 120.822 178.748 120.821Z" fill="white"/>
<path d="M178.748 121.016C178.341 121.016 177.937 120.937 177.559 120.783L114.622 94.6561V12.9022C114.623 12.1289 114.93 11.3875 115.477 10.8407C116.024 10.2938 116.765 9.98623 117.538 9.98535H238.047C238.82 9.98623 239.561 10.2938 240.107 10.8407C240.654 11.3875 240.961 12.1289 240.962 12.9022V94.7116L179.974 120.769C179.586 120.932 179.169 121.016 178.748 121.016ZM115.4 94.1365L177.856 120.064C178.438 120.3 179.091 120.296 179.67 120.053L240.185 94.1981V12.9022C240.184 12.3351 239.959 11.7915 239.558 11.3904C239.157 10.9894 238.614 10.7639 238.047 10.7632H117.538C116.971 10.7639 116.427 10.9894 116.027 11.3904C115.626 11.7915 115.4 12.3351 115.4 12.9022V94.1365Z" fill="#3F3D56"/>
<path d="M285.279 75.3242H285.201L240.574 94.389L179.515 120.474C179.276 120.574 179.02 120.627 178.761 120.628C178.503 120.629 178.246 120.58 178.006 120.482L115.011 94.3346L69.2878 75.3553L69.2179 75.3242H69.1401C68.4187 75.325 67.727 75.6121 67.2168 76.1225C66.7067 76.6329 66.4197 77.3249 66.4189 78.0467V196.278C66.4197 197 66.7067 197.692 67.2168 198.202C67.727 198.713 68.4187 199 69.1401 199H285.279C286.001 199 286.692 198.713 287.202 198.202C287.712 197.692 287.999 197 288 196.278V78.0467C287.999 77.3249 287.712 76.6329 287.202 76.1225C286.692 75.6121 286.001 75.325 285.279 75.3242ZM287.223 196.278C287.223 196.794 287.018 197.288 286.653 197.653C286.289 198.017 285.794 198.222 285.279 198.223H69.1401C68.6247 198.222 68.1304 198.017 67.7659 197.653C67.4015 197.288 67.1966 196.794 67.1964 196.278V78.0467C67.1971 77.5438 67.3921 77.0606 67.7406 76.6982C68.089 76.3358 68.564 76.1222 69.0663 76.1021L115.011 95.1746L177.707 121.201C178.386 121.477 179.146 121.473 179.822 121.189L240.574 95.233L285.357 76.1021C285.858 76.1237 286.332 76.3379 286.679 76.7001C287.027 77.0623 287.222 77.5446 287.223 78.0467V196.278Z" fill="#3F3D56"/>
<path d="M168.969 40.6915H126.208C125.383 40.6915 124.592 40.3637 124.009 39.7802C123.425 39.1967 123.098 38.4053 123.098 37.5801C123.098 36.7549 123.425 35.9635 124.009 35.38C124.592 34.7965 125.383 34.4688 126.208 34.4688H168.969C169.794 34.4688 170.585 34.7965 171.168 35.38C171.751 35.9635 172.079 36.7549 172.079 37.5801C172.079 38.4053 171.751 39.1967 171.168 39.7802C170.585 40.3637 169.794 40.6915 168.969 40.6915Z" fill="#015792"/>
<path d="M146.811 27.4678H126.208C125.383 27.4678 124.592 27.14 124.009 26.5565C123.425 25.973 123.098 25.1817 123.098 24.3565C123.098 23.5313 123.425 22.7399 124.009 22.1564C124.592 21.5729 125.383 21.2451 126.208 21.2451H146.811C147.636 21.2451 148.427 21.5729 149.01 22.1564C149.593 22.7399 149.921 23.5313 149.921 24.3565C149.921 25.1817 149.593 25.973 149.01 26.5565C148.427 27.14 147.636 27.4678 146.811 27.4678Z" fill="#015792"/>
<path d="M209.775 71.8047H144.466C143.642 71.8047 142.851 71.4769 142.267 70.8934C141.684 70.31 141.356 69.5186 141.356 68.6934C141.356 67.8682 141.684 67.0768 142.267 66.4933C142.851 65.9098 143.642 65.582 144.466 65.582H209.775C210.599 65.582 211.39 65.9098 211.974 66.4933C212.557 67.0768 212.884 67.8682 212.884 68.6934C212.884 69.5186 212.557 70.31 211.974 70.8934C211.39 71.4769 210.599 71.8047 209.775 71.8047Z" fill="#CCCCCC"/>
<path d="M209.775 86.1944H144.466C143.642 86.1944 142.851 85.8666 142.267 85.2831C141.684 84.6996 141.356 83.9082 141.356 83.083C141.356 82.2578 141.684 81.4665 142.267 80.883C142.851 80.2995 143.642 79.9717 144.466 79.9717H209.775C210.599 79.9717 211.39 80.2995 211.974 80.883C212.557 81.4665 212.884 82.2578 212.884 83.083C212.884 83.9082 212.557 84.6996 211.974 85.2831C211.39 85.8666 210.599 86.1944 209.775 86.1944Z" fill="#CCCCCC"/>
<path d="M15.918 89.8322C15.5139 89.8316 15.1226 89.6912 14.8101 89.4349C14.4976 89.1787 14.2832 88.8223 14.2032 88.426L12.7887 81.3714C12.0386 77.6294 12.8049 73.7425 14.9192 70.5659C17.0335 67.3892 20.3226 65.1829 24.0628 64.4324C27.8031 63.6819 31.6881 64.4486 34.8633 66.5639C38.0385 68.6792 40.2438 71.9697 40.9939 75.7117L42.4081 82.7664C42.4988 83.2214 42.4054 83.6938 42.1484 84.08C41.8914 84.4662 41.4918 84.7347 41.0372 84.8264L16.2627 89.7979C16.1492 89.8207 16.0338 89.8322 15.918 89.8322Z" fill="#2F2E41"/>
<path d="M59.9 194.871L55.456 194.87L53.3428 177.721L59.9016 177.721L59.9 194.871Z" fill="#A0616A"/>
<path d="M52.2812 193.601H60.852V199H46.8848C46.8848 197.568 47.4533 196.194 48.4653 195.182C49.4774 194.169 50.85 193.601 52.2812 193.601Z" fill="#2F2E41"/>
<path d="M13.5942 194.826L9.50195 193.093L14.2399 176.476L20.2794 179.035L13.5942 194.826Z" fill="#A0616A"/>
<path d="M7.07364 190.685L14.9658 194.029L12.8612 199L-0.000129239 193.551C0.276254 192.898 0.678459 192.306 1.18353 191.808C1.6886 191.311 2.28664 190.918 2.9435 190.652C3.60036 190.386 4.30318 190.252 5.01183 190.257C5.72048 190.263 6.42109 190.408 7.07364 190.685Z" fill="#2F2E41"/>
<path d="M27.2988 88.0645C32.5719 88.0645 36.8466 83.7878 36.8466 78.5122C36.8466 73.2366 32.5719 68.96 27.2988 68.96C22.0257 68.96 17.751 73.2366 17.751 78.5122C17.751 83.7878 22.0257 88.0645 27.2988 88.0645Z" fill="#A0616A"/>
<path d="M27.7504 121.966L27.6525 121.648C25.0508 113.187 22.3616 104.442 19.6686 96.1248L19.5957 95.9003L19.7612 95.7321C23.9413 91.4779 31.7722 89.7809 37.977 91.7861C44.2217 93.8029 48.5251 99.4599 47.9871 104.945C47.701 108.24 48.5858 111.531 50.486 114.237L50.7351 114.599L50.3456 114.803C43.3698 118.394 35.8451 120.799 28.08 121.918L27.7504 121.966Z" fill="#3F3D56"/>
<path d="M16.2356 191.745C15.8952 191.745 15.5609 191.654 15.2664 191.483L10.1088 188.504C9.68575 188.262 9.36941 187.87 9.22308 187.405C9.07675 186.94 9.11121 186.437 9.31958 185.996L20.7799 158.791L29.5385 119.112L45.5004 113.305L45.6455 113.372C62.7585 121.236 61.4357 177.607 60.9966 188.828C60.9769 189.3 60.7862 189.749 60.4602 190.09C60.1342 190.432 59.695 190.644 59.2246 190.686L54.4248 191.313C53.9368 191.356 53.4504 191.215 53.0612 190.917C52.6721 190.619 52.4084 190.187 52.322 189.704L42.5231 145.891C42.5132 145.807 42.4768 145.73 42.4192 145.669C42.3616 145.608 42.2859 145.567 42.2034 145.553C42.1243 145.538 42.0424 145.548 41.9695 145.583C41.8967 145.617 41.8367 145.674 41.7982 145.744L17.9353 190.748C17.8096 190.974 17.64 191.173 17.4364 191.332C17.2328 191.491 16.9993 191.608 16.7499 191.676C16.5823 191.722 16.4094 191.745 16.2356 191.745Z" fill="#2F2E41"/>
<path d="M21.9684 151.762C22.2698 151.322 22.4711 150.822 22.5583 150.296C22.6455 149.77 22.6163 149.231 22.4728 148.718C22.3294 148.204 22.0752 147.728 21.7281 147.324C21.3809 146.919 20.9494 146.596 20.4638 146.376L20.7248 138.047L15.7039 136.653L15.5005 148.422C15.1857 149.262 15.1901 150.189 15.5129 151.027C15.8356 151.864 16.4542 152.554 17.2514 152.966C18.0487 153.378 18.9692 153.483 19.8386 153.261C20.7079 153.039 21.4657 152.505 21.9683 151.762H21.9684Z" fill="#A0616A"/>
<path d="M15.5746 142.957L15.2799 142.956C14.7942 142.952 14.3276 142.766 13.9729 142.434C13.6182 142.102 13.4016 141.649 13.3661 141.164C12.8845 134.96 11.4057 113.828 12.5967 102.371C12.7545 101.302 13.1252 100.276 13.6868 99.3525C14.2484 98.4293 14.9896 97.6283 15.8663 96.9969C16.7431 96.3656 17.7376 95.9167 18.7909 95.6769C19.8442 95.4371 20.935 95.4113 21.9984 95.6009L22.305 95.6687L22.3027 95.983C22.1936 111.057 22.2006 126.043 22.2074 140.535C22.2085 140.978 22.0586 141.407 21.7826 141.753C21.5066 142.099 21.1209 142.34 20.6893 142.437C19.0067 142.785 17.2928 142.959 15.5746 142.957Z" fill="#015792"/>
<path d="M27.0047 161.035C25.7194 161.03 24.4803 160.556 23.5197 159.701C22.5591 158.847 21.9429 157.671 21.7867 156.395L22.2095 121.606L15.2982 104.116C15.0073 101.819 15.5013 99.4901 16.6999 97.5088C17.8985 95.5275 19.7313 94.0097 21.9007 93.2018L23.7484 92.5085C24.0975 92.3775 24.4691 92.3168 24.8417 92.3299C25.2143 92.3429 25.5807 92.4294 25.9199 92.5845C26.259 92.7395 26.5642 92.9601 26.8179 93.2334C27.0717 93.5067 27.269 93.8275 27.3985 94.1773L34.5252 113.428L34.527 113.456C35.0212 121.118 37.2515 159.251 32.8046 160.388C30.9203 160.83 28.9905 161.047 27.0552 161.035L27.0047 161.035Z" fill="#015792"/>
<path d="M68.0621 138.628C67.5682 138.427 67.1243 138.121 66.7616 137.73C66.3989 137.34 66.1263 136.874 65.9628 136.367C65.7993 135.859 65.7491 135.322 65.8155 134.793C65.882 134.264 66.0636 133.756 66.3475 133.305L61.5371 126.501L64.9568 122.568L71.6151 132.272C72.3411 132.799 72.8485 133.575 73.0411 134.452C73.2337 135.328 73.0982 136.245 72.6603 137.029C72.2223 137.812 71.5123 138.407 70.6648 138.702C69.8174 138.997 68.8913 138.97 68.0621 138.628H68.0621Z" fill="#A0616A"/>
<path d="M63.2581 129.884C63.0068 129.876 62.7611 129.809 62.5415 129.686C62.3218 129.564 62.1348 129.39 61.9961 129.181L61.9709 129.142C54.0114 117.09 45.781 104.627 37.4394 92.2028L37.3496 92.0689L37.4644 91.9557C38.1961 91.2725 39.0582 90.7443 39.9991 90.403C40.94 90.0616 41.9402 89.9141 42.9395 89.9693C43.9683 89.9881 44.9815 90.2237 45.9131 90.6609C46.8447 91.098 47.6736 91.7269 48.3457 92.5063C55.6351 101.38 66.0386 119.796 69.0534 125.23C69.2437 125.567 69.3 125.964 69.2111 126.341C69.1222 126.718 68.8947 127.048 68.5737 127.265C67.0934 128.273 65.5077 129.117 63.8446 129.781C63.658 129.855 63.4585 129.89 63.2581 129.884Z" fill="#015792"/>
<path d="M60.5858 153.281C55.8183 153.284 38.7605 120.424 35.3895 113.837L35.3604 113.757L31.6313 93.6003C31.5634 93.2335 31.5686 92.8569 31.6466 92.4921C31.7246 92.1274 31.8738 91.7816 32.0857 91.4747C32.2976 91.1677 32.568 90.9057 32.8814 90.7036C33.1948 90.5015 33.545 90.3633 33.9119 90.297L35.8541 89.9456C38.131 89.5281 40.4822 89.8928 42.5258 90.9805C44.5694 92.0683 46.1856 93.8152 47.1119 95.9376L51.9846 116.429L68.2778 144.124C68.8129 145.311 68.8916 146.653 68.4987 147.894C68.1058 149.135 67.2691 150.188 66.1488 150.85C64.4927 151.852 62.7238 152.654 60.8792 153.24C60.7838 153.268 60.685 153.282 60.5858 153.281H60.5858Z" fill="#015792"/>
<path d="M34.7143 78.5946H15.4717V76.2611C15.4746 73.6833 16.4994 71.2119 18.3214 69.3891C20.1433 67.5663 22.6135 66.541 25.1902 66.5381H26.7451C29.3217 66.541 31.792 67.5663 33.6139 69.3891C35.4359 71.2119 36.4607 73.6833 36.4636 76.2611V76.8444C36.4631 77.3084 36.2786 77.7533 35.9507 78.0814C35.6227 78.4095 35.1781 78.5941 34.7143 78.5946Z" fill="#2F2E41"/>
</g>
<defs>
<clipPath id="clip0_554_9060">
<rect width="288" height="199" fill="white"/>
</clipPath>
</defs>
</svg>
