<svg width="417" height="377" viewBox="0 0 417 377" fill="none" xmlns="http://www.w3.org/2000/svg">
<g clip-path="url(#clip0_423_7915)">
<path d="M182.255 311.798H8.26223C6.0717 311.796 3.97161 310.925 2.42268 309.377C0.873742 307.829 0.00246528 305.731 0 303.542V67.5078C0.00246528 65.3188 0.873742 63.2202 2.42268 61.6724C3.97161 60.1246 6.07171 59.2539 8.26223 59.2515H182.255C184.446 59.2539 186.546 60.1246 188.095 61.6724C189.644 63.2202 190.515 65.3188 190.517 67.5078V303.542C190.515 305.731 189.644 307.829 188.095 309.377C186.546 310.925 184.446 311.796 182.255 311.798V311.798Z" fill="white"/>
<path d="M87.4156 120.68C87.4157 127.497 85.2576 134.139 81.2503 139.656C77.243 145.172 71.5919 149.281 65.1059 151.393C64.9119 151.455 64.7181 151.516 64.5212 151.575C63.681 151.833 62.8291 152.054 61.9623 152.242C60.3939 152.582 58.802 152.802 57.2002 152.902C56.504 152.949 55.8038 152.973 55.0996 152.973C51.4614 152.976 47.8489 152.365 44.4148 151.164C44.3149 151.129 44.2151 151.094 44.1181 151.058C38.5541 149.05 33.6484 145.555 29.9355 140.953C26.2227 136.35 23.8451 130.818 23.0619 124.959C22.2786 119.099 23.1198 113.137 25.4938 107.723C27.8677 102.308 31.6834 97.6483 36.5249 94.2513C41.3664 90.8544 47.0481 88.8505 52.9508 88.458C58.8535 88.0655 64.7507 89.2995 69.9999 92.0255C75.2492 94.7515 79.649 98.8649 82.7199 103.918C85.7908 108.97 87.4151 114.768 87.4156 120.68V120.68Z" fill="white"/>
<path d="M54.3245 142.075C63.0081 142.075 70.0475 135.041 70.0475 126.364C70.0475 117.686 63.0081 110.652 54.3245 110.652C45.641 110.652 38.6016 117.686 38.6016 126.364C38.6016 135.041 45.641 142.075 54.3245 142.075Z" fill="#FDBC40"/>
<path d="M55.2425 134.829L55.2588 134.242C54.1657 134.211 53.202 134.143 52.4779 133.614C52.2726 133.456 52.1039 133.255 51.9832 133.025C51.8624 132.796 51.7926 132.543 51.7783 132.285C51.7656 132.126 51.7895 131.968 51.8483 131.82C51.907 131.673 51.999 131.541 52.117 131.435C52.3906 131.269 52.7038 131.18 53.0237 131.177C53.3437 131.175 53.6584 131.258 53.9349 131.419L54.421 131.642L53.4888 124.833L52.9067 124.913L53.6997 130.704C53.3751 130.584 53.0255 130.547 52.6828 130.596C52.3401 130.645 52.0152 130.78 51.7377 130.986C51.5511 131.149 51.4046 131.353 51.3098 131.582C51.215 131.811 51.1744 132.058 51.1912 132.305C51.2083 132.653 51.3014 132.993 51.4638 133.301C51.6262 133.609 51.854 133.877 52.1314 134.088C53.0618 134.768 54.2709 134.801 55.2425 134.829Z" fill="#2F2E41"/>
<path d="M50.0278 125.413H46.8633V126H50.0278V125.413Z" fill="#2F2E41"/>
<path d="M60.017 125.413H56.8525V126H60.017V125.413Z" fill="#2F2E41"/>
<path d="M58.7915 148.328C58.8332 148.135 58.8549 147.939 58.8562 147.741C58.8551 147.002 58.5607 146.293 58.0375 145.77C57.5144 145.248 56.8052 144.953 56.0653 144.952H51.9524C51.2124 144.953 50.5029 145.247 49.9796 145.77C49.4563 146.293 49.1621 147.002 49.1614 147.741C49.1613 147.94 49.1829 148.137 49.226 148.331C47.6734 148.82 46.2057 149.546 44.8752 150.483C44.6165 150.662 44.361 150.856 44.1172 151.058C44.2142 151.094 44.314 151.129 44.4139 151.164C47.848 152.365 51.4605 152.976 55.0987 152.973C55.8038 152.973 56.5039 152.949 57.1992 152.902C58.8011 152.802 60.393 152.582 61.9614 152.242C62.8281 152.054 63.6801 151.833 64.5203 151.575C62.858 150.106 60.9067 149 58.7915 148.328V148.328Z" fill="#2F2E41"/>
<path d="M58.2627 152.529C57.8815 152.558 57.5145 152.686 57.1992 152.902C58.801 152.803 60.393 152.582 61.9614 152.242L58.2627 152.529Z" fill="#2F2E41"/>
<path d="M68.5845 122.631L41.2704 112.646C40.9777 112.539 40.7396 112.32 40.6083 112.038C40.4771 111.755 40.4635 111.432 40.5706 111.14L40.663 110.703C42.7961 104.877 49.8665 101.209 55.6976 103.341L64.1027 106.414C69.9338 108.545 72.4681 115.445 70.3349 121.272L70.0918 121.932C69.9847 122.224 69.7657 122.462 69.4831 122.594C69.2004 122.725 68.8772 122.738 68.5845 122.631V122.631Z" fill="#2F2E41"/>
<path d="M70.0557 123.185C31.9852 124.589 28.6587 119.809 40.2585 112.292L42.7193 107.768L70.9224 118.043L70.0557 123.185Z" fill="#2F2E41"/>
<path d="M62.5912 105.697C62.8014 104.998 61.9011 104.11 60.5803 103.713C59.2596 103.317 58.0185 103.562 57.8083 104.26C57.5981 104.959 58.4984 105.847 59.8192 106.244C61.1399 106.64 62.381 106.396 62.5912 105.697Z" fill="#2F2E41"/>
<path d="M55.0988 153.853C51.3613 153.857 47.6501 153.229 44.1225 151.995L43.8159 151.886C36.4267 149.218 30.2241 144.017 26.3112 137.208C22.3983 130.4 21.0287 122.425 22.4461 114.703C23.8634 106.98 27.9758 100.011 34.0518 95.0329C40.1279 90.0552 47.7737 87.3924 55.6297 87.5179C63.4856 87.6435 71.0423 90.5493 76.956 95.7186C82.8696 100.888 86.7568 107.986 87.9263 115.749C89.0958 123.513 87.4718 131.44 83.343 138.12C79.2142 144.8 72.8483 149.8 65.3775 152.231C65.1687 152.297 64.9722 152.359 64.7725 152.419C63.9381 152.676 63.0528 152.906 62.1483 153.102C60.5361 153.451 58.8999 153.678 57.2535 153.781C56.5461 153.829 55.8194 153.853 55.0988 153.853ZM55.0988 89.2675C47.7017 89.2685 40.5419 91.8759 34.8785 96.631C29.2152 101.386 25.4111 107.984 24.1353 115.266C22.8595 122.547 24.1937 130.044 27.9032 136.439C31.6127 142.834 37.4599 147.718 44.4166 150.23L44.7076 150.334C48.0472 151.502 51.5606 152.096 55.0988 152.092C55.78 152.092 56.4666 152.069 57.1399 152.023C58.699 151.926 60.2485 151.711 61.7752 151.381C62.6307 151.195 63.4672 150.978 64.2612 150.734C64.4578 150.675 64.6444 150.615 64.8311 150.556C71.9466 148.24 78.0021 143.464 81.9089 137.086C85.8158 130.708 87.3178 123.146 86.145 115.76C84.9722 108.375 81.2015 101.649 75.5107 96.7932C69.8199 91.937 62.5822 89.2685 55.0988 89.2675V89.2675Z" fill="#CCCCCC"/>
<path d="M182.255 311.798H8.26223C6.0717 311.796 3.97161 310.925 2.42268 309.377C0.873742 307.829 0.00246528 305.731 0 303.542V67.5078C0.00246528 65.3188 0.873742 63.2202 2.42268 61.6724C3.97161 60.1246 6.07171 59.2539 8.26223 59.2515H182.255C184.446 59.2539 186.546 60.1246 188.095 61.6724C189.644 63.2202 190.515 65.3188 190.517 67.5078V303.542C190.515 305.731 189.644 307.829 188.095 309.377C186.546 310.925 184.446 311.796 182.255 311.798V311.798ZM8.26223 60.2228C6.32942 60.225 4.47641 60.9932 3.10971 62.3589C1.743 63.7247 0.97422 65.5764 0.972028 67.5078V303.542C0.974218 305.473 1.74299 307.325 3.10969 308.691C4.47639 310.056 6.32942 310.825 8.26223 310.827H182.255C184.188 310.825 186.041 310.056 187.408 308.691C188.774 307.325 189.543 305.473 189.545 303.542V67.5078C189.543 65.5764 188.774 63.7247 187.408 62.3589C186.041 60.9932 184.188 60.225 182.255 60.2228H8.26223Z" fill="#CCCCCC"/>
<path d="M148.572 120.554H99.3384C98.3062 120.553 97.3168 120.142 96.5874 119.413C95.8579 118.683 95.4482 117.694 95.4482 116.662C95.4482 115.631 95.8579 114.641 96.5874 113.912C97.3168 113.182 98.3062 112.771 99.3384 112.77H148.572C149.084 112.769 149.591 112.87 150.064 113.065C150.538 113.26 150.967 113.547 151.33 113.908C151.692 114.27 151.979 114.699 152.175 115.172C152.371 115.644 152.472 116.151 152.472 116.662C152.472 117.174 152.371 117.68 152.175 118.153C151.979 118.625 151.692 119.055 151.33 119.416C150.967 119.778 150.538 120.064 150.064 120.26C149.591 120.455 149.084 120.555 148.572 120.554V120.554Z" fill="#E6E6E6"/>
<path d="M164.639 133.69H99.3384C98.3062 133.689 97.3168 133.278 96.5874 132.548C95.8579 131.819 95.4482 130.829 95.4482 129.798C95.4482 128.767 95.8579 127.777 96.5874 127.047C97.3168 126.318 98.3062 125.907 99.3384 125.906H164.639C165.671 125.907 166.661 126.318 167.39 127.047C168.12 127.777 168.529 128.767 168.529 129.798C168.529 130.829 168.12 131.819 167.39 132.548C166.661 133.278 165.671 133.689 164.639 133.69V133.69Z" fill="#E6E6E6"/>
<path d="M148.5 184.073H25.8783C25.3664 184.074 24.8594 183.973 24.3863 183.778C23.9132 183.583 23.4832 183.296 23.121 182.935C22.7588 182.573 22.4715 182.144 22.2755 181.671C22.0794 181.199 21.9785 180.692 21.9785 180.181C21.9785 179.669 22.0794 179.163 22.2755 178.69C22.4715 178.218 22.7588 177.788 23.121 177.427C23.4832 177.065 23.9132 176.779 24.3863 176.583C24.8594 176.388 25.3664 176.288 25.8783 176.289H148.5C149.533 176.29 150.522 176.7 151.251 177.43C151.981 178.16 152.391 179.149 152.391 180.181C152.391 181.212 151.981 182.201 151.251 182.931C150.522 183.661 149.533 184.072 148.5 184.073V184.073Z" fill="#E6E6E6"/>
<path d="M164.567 197.209H25.8783C25.3664 197.21 24.8594 197.11 24.3863 196.914C23.9132 196.719 23.4832 196.432 23.121 196.071C22.7588 195.709 22.4715 195.28 22.2755 194.808C22.0794 194.335 21.9785 193.829 21.9785 193.317C21.9785 192.805 22.0794 192.299 22.2755 191.826C22.4715 191.354 22.7588 190.925 23.121 190.563C23.4832 190.202 23.9132 189.915 24.3863 189.72C24.8594 189.524 25.3664 189.424 25.8783 189.425H164.567C165.079 189.424 165.586 189.524 166.059 189.72C166.532 189.915 166.962 190.202 167.324 190.563C167.687 190.925 167.974 191.354 168.17 191.826C168.366 192.299 168.467 192.805 168.467 193.317C168.467 193.829 168.366 194.335 168.17 194.808C167.974 195.28 167.687 195.709 167.324 196.071C166.962 196.432 166.532 196.719 166.059 196.914C165.586 197.11 165.079 197.21 164.567 197.209V197.209Z" fill="#E6E6E6"/>
<path d="M148.5 227.401H25.8784C24.8454 227.401 23.8547 226.991 23.1242 226.261C22.3938 225.531 21.9834 224.541 21.9834 223.508C21.9834 222.476 22.3938 221.486 23.1242 220.756C23.8547 220.026 24.8454 219.616 25.8784 219.616H148.5C149.533 219.616 150.524 220.026 151.255 220.756C151.985 221.486 152.395 222.476 152.395 223.508C152.395 224.541 151.985 225.531 151.255 226.261C150.524 226.991 149.533 227.401 148.5 227.401V227.401Z" fill="#E6E6E6"/>
<path d="M164.567 240.537H25.8784C24.8454 240.537 23.8547 240.127 23.1242 239.397C22.3938 238.667 21.9834 237.677 21.9834 236.645C21.9834 235.612 22.3938 234.622 23.1242 233.892C23.8547 233.163 24.8454 232.752 25.8784 232.752H164.567C165.6 232.752 166.591 233.163 167.321 233.892C168.052 234.622 168.462 235.612 168.462 236.645C168.462 237.677 168.052 238.667 167.321 239.397C166.591 240.127 165.6 240.537 164.567 240.537V240.537Z" fill="#E6E6E6"/>
<path d="M148.5 270.729H25.8784C24.8454 270.729 23.8547 270.319 23.1242 269.589C22.3938 268.859 21.9834 267.869 21.9834 266.837C21.9834 265.804 22.3938 264.814 23.1242 264.084C23.8547 263.354 24.8454 262.944 25.8784 262.944H148.5C149.533 262.944 150.524 263.354 151.255 264.084C151.985 264.814 152.395 265.804 152.395 266.837C152.395 267.869 151.985 268.859 151.255 269.589C150.524 270.319 149.533 270.729 148.5 270.729V270.729Z" fill="#E6E6E6"/>
<path d="M164.567 283.865H25.8784C24.8454 283.865 23.8547 283.455 23.1242 282.725C22.3938 281.995 21.9834 281.005 21.9834 279.973C21.9834 278.94 22.3938 277.951 23.1242 277.221C23.8547 276.491 24.8454 276.081 25.8784 276.081H164.567C165.6 276.081 166.591 276.491 167.321 277.221C168.052 277.951 168.462 278.94 168.462 279.973C168.462 281.005 168.052 281.995 167.321 282.725C166.591 283.455 165.6 283.865 164.567 283.865V283.865Z" fill="#E6E6E6"/>
<path d="M408.738 252.547L234.745 252.547C232.554 252.544 230.454 251.674 228.905 250.126C227.356 248.578 226.485 246.479 226.483 244.29L226.482 8.25648C226.485 6.06752 227.356 3.96892 228.905 2.42109C230.454 0.873261 232.554 0.00260175 234.745 0.000136648L408.738 0C410.928 0.00246194 413.028 0.873108 414.577 2.42094C416.126 3.96876 416.997 6.06737 417 8.25632L417 244.29C416.998 246.479 416.126 248.578 414.577 250.126C413.028 251.674 410.928 252.544 408.738 252.547V252.547Z" fill="white"/>
<path d="M408.738 252.547L234.745 252.547C232.554 252.544 230.454 251.674 228.905 250.126C227.356 248.578 226.485 246.479 226.483 244.29L226.482 8.25648C226.485 6.06752 227.356 3.96892 228.905 2.42109C230.454 0.873261 232.554 0.00260175 234.745 0.000136648L408.738 0C410.928 0.00246194 413.028 0.873108 414.577 2.42094C416.126 3.96876 416.997 6.06737 417 8.25632L417 244.29C416.998 246.479 416.126 248.578 414.577 250.126C413.028 251.674 410.928 252.544 408.738 252.547V252.547ZM234.745 0.97147C232.812 0.97366 230.959 1.74189 229.592 3.10762C228.225 4.47335 227.457 6.32505 227.454 8.25648L227.455 244.29C227.457 246.222 228.226 248.074 229.592 249.439C230.959 250.805 232.812 251.573 234.745 251.575L408.738 251.575C410.671 251.573 412.524 250.805 413.89 249.439C415.257 248.073 416.026 246.222 416.028 244.29L416.028 8.25633C416.026 6.3249 415.257 4.4732 413.89 3.10748C412.523 1.74175 410.67 0.97352 408.738 0.971333L234.745 0.97147Z" fill="#CCCCCC"/>
<path d="M313.98 61.1069C313.98 67.4938 312.084 73.7373 308.533 79.0479C304.983 84.3584 299.935 88.4975 294.031 90.9416C288.126 93.3858 281.628 94.0253 275.359 92.7793C269.09 91.5333 263.332 88.4577 258.813 83.9414C254.293 79.4252 251.216 73.6711 249.969 67.4069C248.722 61.1427 249.362 54.6497 251.808 48.7489C254.253 42.8482 258.396 37.8047 263.71 34.2563C269.024 30.7079 275.272 28.814 281.664 28.814C290.234 28.8167 298.452 32.2198 304.512 38.2753C310.571 44.3308 313.977 52.5431 313.98 61.1069V61.1069Z" fill="white"/>
<path d="M296.598 66.6322C296.245 87.2852 265.502 87.282 265.152 66.6316C265.505 45.9792 296.248 45.9824 296.598 66.6322Z" fill="#FDBC40"/>
<path d="M280.253 73.0431L280.236 72.4559C284.286 72.9962 285.158 67.9809 281.074 69.8559L282.006 63.0479L282.588 63.1276L281.795 68.9187C286.096 68.2791 284.505 73.6299 280.253 73.0431Z" fill="#2F2E41"/>
<path d="M288.631 63.627H285.467V64.2141H288.631V63.627Z" fill="#2F2E41"/>
<path d="M278.643 63.627H275.479V64.2141H278.643V63.627Z" fill="#2F2E41"/>
<path d="M285.973 88.5996C286.59 84.4397 281.716 85.2617 279.137 85.2206C278.721 85.2219 278.311 85.3159 277.936 85.4957C277.561 85.6755 277.231 85.9366 276.969 86.2601C276.708 86.5835 276.523 86.9611 276.426 87.3653C276.329 87.7695 276.324 88.1902 276.411 88.5967C274.414 89.2133 272.565 90.2325 270.979 91.5911C277.666 93.9213 284.932 94.0017 291.67 91.8201C290.027 90.3462 288.083 89.2473 285.973 88.5996Z" fill="#2F2E41"/>
<path d="M273.485 59.2013C276.399 57.5185 279.932 58.8095 282.942 59.5153C288.653 61.2696 296.661 59.0729 297.355 52.2751C298.078 45.9531 289.424 42.4295 286.657 48.7218L287.463 48.6166C278.492 35.2937 262.887 35.799 262.989 54.1157C262.956 54.6815 263.837 54.6796 263.87 54.1153C263.54 43.3216 270.689 35.9433 280.794 42.8798C283.051 44.6453 285.04 46.7273 286.702 49.0611C287.754 50.2397 287.983 45.1642 293.02 46.4936C298.563 48.6395 296.754 56.5714 291.8 58.3127C285.678 61.4381 279.047 55.3783 273.04 58.4404C272.943 58.5015 272.874 58.5976 272.847 58.7087C272.82 58.8197 272.837 58.9369 272.895 59.0356C272.952 59.1343 273.046 59.2067 273.156 59.2376C273.266 59.2685 273.384 59.2555 273.485 59.2013V59.2013Z" fill="#2F2E41"/>
<path d="M281.663 94.2802C273.318 94.2732 265.282 91.1229 259.158 85.4577C253.034 79.7924 249.272 72.0286 248.622 63.7145C247.973 55.4004 250.483 47.1472 255.653 40.6008C260.823 34.0545 268.272 29.6961 276.515 28.3948C284.759 27.0936 293.19 28.9453 300.127 33.5804C307.065 38.2156 311.999 45.2937 313.945 53.403C315.892 61.5123 314.708 70.0569 310.63 77.3326C306.551 84.6083 299.879 90.0805 291.942 92.6577C288.622 93.7364 285.153 94.2841 281.663 94.2802ZM281.663 29.6944C275.445 29.6935 269.365 31.5355 264.195 34.9872C259.024 38.439 254.993 43.3456 252.613 49.0864C250.233 54.8272 249.61 61.1444 250.823 67.2391C252.036 73.3337 255.031 78.9321 259.428 83.326C263.825 87.72 269.427 90.7122 275.526 91.9243C281.625 93.1364 287.947 92.5138 293.692 90.1354C299.437 87.757 304.347 83.7296 307.801 78.5624C311.255 73.3953 313.099 67.3206 313.098 61.1066C313.088 52.7784 309.773 44.7941 303.88 38.9052C297.987 33.0163 289.997 29.7038 281.663 29.6944V29.6944Z" fill="#CCCCCC"/>
<path d="M375.055 61.3029L325.821 61.303C324.788 61.303 323.797 60.8929 323.067 60.163C322.336 59.433 321.926 58.443 321.926 57.4108C321.926 56.3785 322.336 55.3885 323.067 54.6586C323.797 53.9287 324.788 53.5186 325.821 53.5186L375.055 53.5186C376.088 53.5186 377.078 53.9286 377.809 54.6585C378.539 55.3885 378.95 56.3785 378.95 57.4107C378.95 58.443 378.539 59.433 377.809 60.1629C377.078 60.8929 376.088 61.3029 375.055 61.3029V61.3029Z" fill="#E6E6E6"/>
<path d="M391.12 74.4387L325.82 74.4387C325.308 74.4394 324.801 74.3391 324.328 74.1438C323.855 73.9485 323.425 73.6619 323.062 73.3004C322.7 72.939 322.413 72.5097 322.217 72.0371C322.021 71.5646 321.92 71.0581 321.92 70.5465C321.92 70.035 322.021 69.5285 322.217 69.0559C322.413 68.5834 322.7 68.1541 323.062 67.7926C323.425 67.4312 323.855 67.1446 324.328 66.9492C324.801 66.7539 325.308 66.6537 325.82 66.6544L391.12 66.6543C392.153 66.6543 393.144 67.0644 393.875 67.7943C394.605 68.5242 395.015 69.5142 395.015 70.5465C395.015 71.5788 394.605 72.5687 393.875 73.2987C393.144 74.0286 392.153 74.4387 391.12 74.4387Z" fill="#E6E6E6"/>
<path d="M374.983 124.821L252.361 124.822C251.329 124.82 250.339 124.41 249.61 123.68C248.88 122.95 248.471 121.961 248.471 120.929C248.471 119.898 248.88 118.909 249.61 118.179C250.339 117.449 251.329 117.038 252.361 117.037L374.983 117.037C376.016 117.037 377.007 117.447 377.737 118.177C378.468 118.907 378.878 119.897 378.878 120.929C378.878 121.962 378.468 122.952 377.737 123.682C377.007 124.411 376.016 124.821 374.983 124.821V124.821Z" fill="#E6E6E6"/>
<path d="M391.05 137.958L252.361 137.958C251.849 137.958 251.342 137.858 250.869 137.663C250.396 137.468 249.966 137.181 249.603 136.82C249.241 136.458 248.954 136.029 248.758 135.556C248.562 135.084 248.461 134.577 248.461 134.066C248.461 133.554 248.562 133.048 248.758 132.575C248.954 132.103 249.241 131.673 249.603 131.312C249.966 130.95 250.396 130.664 250.869 130.468C251.342 130.273 251.849 130.173 252.361 130.173L391.05 130.173C392.083 130.173 393.073 130.583 393.804 131.313C394.534 132.043 394.945 133.033 394.945 134.066C394.945 135.098 394.534 136.088 393.804 136.818C393.073 137.548 392.083 137.958 391.05 137.958V137.958Z" fill="#E6E6E6"/>
<path d="M374.983 168.15L252.361 168.15C251.329 168.148 250.339 167.738 249.61 167.008C248.88 166.278 248.471 165.289 248.471 164.258C248.471 163.226 248.88 162.237 249.61 161.507C250.339 160.777 251.329 160.367 252.361 160.365L374.983 160.365C376.016 160.365 377.007 160.775 377.737 161.505C378.468 162.235 378.878 163.225 378.878 164.257C378.878 165.29 378.468 166.28 377.737 167.01C377.007 167.74 376.016 168.15 374.983 168.15Z" fill="#E6E6E6"/>
<path d="M391.05 181.285L252.361 181.285C251.849 181.286 251.342 181.186 250.869 180.991C250.396 180.795 249.966 180.509 249.603 180.147C249.241 179.786 248.954 179.356 248.758 178.884C248.562 178.411 248.461 177.905 248.461 177.393C248.461 176.882 248.562 176.375 248.758 175.903C248.954 175.43 249.241 175.001 249.603 174.639C249.966 174.278 250.396 173.991 250.869 173.796C251.342 173.601 251.849 173.5 252.361 173.501L391.05 173.501C392.083 173.501 393.073 173.911 393.804 174.641C394.534 175.371 394.945 176.361 394.945 177.393C394.945 178.425 394.534 179.415 393.804 180.145C393.073 180.875 392.083 181.285 391.05 181.285V181.285Z" fill="#E6E6E6"/>
<path d="M374.984 211.477L252.362 211.477C251.329 211.477 250.338 211.067 249.608 210.337C248.877 209.607 248.467 208.617 248.467 207.585C248.467 206.553 248.877 205.563 249.608 204.833C250.338 204.103 251.329 203.693 252.362 203.693L374.984 203.693C376.017 203.693 377.008 204.103 377.738 204.833C378.468 205.563 378.879 206.553 378.879 207.585C378.879 208.617 378.468 209.607 377.738 210.337C377.008 211.067 376.017 211.477 374.984 211.477V211.477Z" fill="#E6E6E6"/>
<path d="M391.051 224.613L252.362 224.614C251.329 224.614 250.338 224.204 249.608 223.474C248.877 222.744 248.467 221.754 248.467 220.721C248.467 219.689 248.877 218.699 249.608 217.969C250.338 217.239 251.329 216.829 252.362 216.829L391.051 216.829C392.084 216.829 393.074 217.239 393.805 217.969C394.535 218.699 394.946 219.689 394.946 220.721C394.946 221.754 394.535 222.744 393.805 223.473C393.074 224.203 392.084 224.613 391.051 224.613V224.613Z" fill="#E6E6E6"/>
<path d="M303.759 354.051H129.766C127.576 354.049 125.476 353.178 123.927 351.63C122.378 350.082 121.506 347.984 121.504 345.795V109.761C121.506 107.572 122.378 105.473 123.927 103.925C125.476 102.378 127.576 101.507 129.766 101.504H303.759C305.95 101.507 308.05 102.378 309.599 103.925C311.148 105.473 312.019 107.572 312.021 109.761V345.795C312.019 347.984 311.148 350.082 309.599 351.63C308.05 353.178 305.95 354.049 303.759 354.051V354.051Z" fill="white"/>
<path d="M144.277 162.269C144.272 166.519 145.108 170.729 146.739 174.654C148.37 178.58 150.762 182.144 153.778 185.141C154.031 185.391 154.289 185.64 154.551 185.884C156.126 187.354 157.844 188.663 159.68 189.791C160.033 190.009 160.385 190.217 160.747 190.42C162.604 191.465 164.56 192.324 166.587 192.982C166.937 193.097 167.292 193.206 167.648 193.305C174.091 195.152 180.949 194.959 187.278 192.754C187.402 192.709 187.525 192.665 187.645 192.621C193.202 190.601 198.097 187.097 201.798 182.49C205.5 177.883 207.865 172.349 208.638 166.491C209.41 160.634 208.56 154.677 206.18 149.268C203.799 143.86 199.979 139.208 195.137 135.819C190.294 132.429 184.613 130.433 178.713 130.045C172.814 129.658 166.921 130.896 161.676 133.624C156.431 136.351 152.036 140.464 148.968 145.515C145.9 150.566 144.278 156.361 144.277 162.269V162.269Z" fill="white"/>
<path d="M169.769 178.097C169.784 180.599 168.862 183.016 167.182 184.872C165.521 186.694 163.047 187.902 160.551 187.402C158.252 186.942 156.384 184.934 156.617 182.506C156.656 181.98 156.809 181.468 157.066 181.008C157.322 180.547 157.677 180.147 158.104 179.837C158.531 179.527 159.02 179.314 159.538 179.212C160.056 179.11 160.59 179.123 161.102 179.249C163.286 179.815 164.156 182.96 162.336 184.436C161.9 184.79 161.273 184.17 161.713 183.813C161.985 183.565 162.19 183.252 162.31 182.904C162.429 182.556 162.46 182.184 162.398 181.821C162.336 181.458 162.184 181.117 161.956 180.828C161.728 180.539 161.431 180.312 161.093 180.167C160.693 180.039 160.27 180.004 159.854 180.064C159.439 180.124 159.043 180.277 158.696 180.513C158.349 180.748 158.06 181.059 157.851 181.423C157.642 181.787 157.518 182.193 157.49 182.611C157.346 184.659 158.915 186.201 160.84 186.564C162.922 186.956 164.987 185.891 166.398 184.421C168.015 182.714 168.907 180.448 168.887 178.097C168.891 177.983 168.939 177.875 169.022 177.795C169.104 177.716 169.214 177.671 169.328 177.671C169.443 177.671 169.552 177.716 169.635 177.795C169.717 177.875 169.765 177.983 169.769 178.097V178.097Z" fill="#2F2E41"/>
<path d="M178.374 183.696C187.058 183.696 194.097 176.662 194.097 167.984C194.097 159.307 187.058 152.272 178.374 152.272C169.691 152.272 162.651 159.307 162.651 167.984C162.651 176.662 169.691 183.696 178.374 183.696Z" fill="#FDBC40"/>
<path d="M177.57 174.688L177.554 174.101C178.647 174.071 179.61 174.002 180.335 173.473C180.54 173.315 180.709 173.114 180.829 172.885C180.95 172.655 181.02 172.403 181.034 172.144C181.047 171.986 181.023 171.827 180.964 171.68C180.906 171.532 180.814 171.4 180.696 171.294C180.422 171.129 180.109 171.04 179.789 171.037C179.469 171.034 179.154 171.117 178.878 171.278L178.391 171.501L179.324 164.693L179.906 164.773L179.113 170.564C179.437 170.443 179.787 170.406 180.13 170.455C180.472 170.505 180.797 170.639 181.075 170.846C181.261 171.009 181.408 171.212 181.503 171.441C181.598 171.67 181.638 171.918 181.621 172.165C181.604 172.512 181.511 172.852 181.349 173.16C181.186 173.468 180.958 173.737 180.681 173.948C179.751 174.627 178.542 174.661 177.57 174.688Z" fill="#2F2E41"/>
<path d="M185.95 165.272H182.785V165.859H185.95V165.272Z" fill="#2F2E41"/>
<path d="M175.96 165.272H172.796V165.859H175.96V165.272Z" fill="#2F2E41"/>
<path d="M167.647 193.305C174.091 195.152 180.949 194.959 187.278 192.753C187.401 192.709 187.525 192.665 187.645 192.621C186.154 191.472 184.467 190.6 182.666 190.05C182.793 189.598 182.791 189.12 182.66 188.67C182.481 188.099 182.124 187.601 181.639 187.25C181.155 186.898 180.57 186.713 179.972 186.72H176.141C175.543 186.712 174.959 186.898 174.476 187.248C173.993 187.599 173.636 188.097 173.459 188.667C173.327 189.118 173.325 189.597 173.453 190.05C171.866 190.535 170.367 191.269 169.011 192.225C168.737 192.416 168.473 192.615 168.218 192.824C168.024 192.979 167.833 193.141 167.647 193.305Z" fill="#2F2E41"/>
<path d="M190.691 166.317C190.691 168.965 191.996 171.161 193.691 171.543C193.864 171.582 194.04 171.601 194.217 171.602C196.159 171.602 197.742 169.233 197.742 166.317C197.786 164.815 197.306 163.343 196.385 162.155C196.098 161.808 195.746 161.522 195.348 161.312C194.999 161.13 194.611 161.034 194.217 161.033C193.676 161.04 193.15 161.217 192.715 161.538C191.52 162.384 190.691 164.207 190.691 166.317Z" fill="#3F3D56"/>
<path d="M159.258 166.317C159.258 168.596 160.221 170.539 161.572 171.282C161.942 171.489 162.359 171.599 162.783 171.602C162.877 171.602 162.971 171.596 163.065 171.584C164.875 171.37 166.308 169.092 166.308 166.318C166.308 164.095 165.389 162.19 164.09 161.412C163.697 161.168 163.245 161.037 162.783 161.033C162.389 161.034 162.001 161.13 161.652 161.312C161.253 161.523 160.899 161.81 160.612 162.158C159.693 163.346 159.215 164.816 159.258 166.317V166.317Z" fill="#3F3D56"/>
<path d="M161.792 170.775C161.862 170.775 161.93 170.758 161.993 170.726C162.055 170.694 162.109 170.648 162.149 170.591C162.19 170.535 162.217 170.469 162.227 170.4C162.238 170.331 162.231 170.26 162.209 170.194C161.367 167.691 161.114 165.028 161.469 162.411C161.824 159.795 162.778 157.295 164.257 155.107C165.736 152.919 167.7 151.101 169.997 149.795C172.293 148.489 174.86 147.729 177.498 147.576C180.136 147.422 182.773 147.878 185.206 148.908C187.639 149.939 189.801 151.516 191.525 153.518C193.248 155.519 194.487 157.891 195.144 160.448C195.802 163.005 195.86 165.68 195.315 168.264C195.291 168.378 195.313 168.497 195.377 168.594C195.441 168.692 195.541 168.76 195.655 168.785C195.769 168.809 195.888 168.786 195.986 168.723C196.084 168.659 196.153 168.559 196.177 168.445C196.751 165.729 196.69 162.917 195.999 160.228C195.308 157.539 194.006 155.045 192.194 152.941C190.382 150.837 188.108 149.178 185.551 148.095C182.993 147.011 180.219 146.532 177.446 146.693C174.672 146.855 171.973 147.654 169.559 149.027C167.145 150.401 165.08 152.312 163.525 154.613C161.97 156.914 160.967 159.542 160.594 162.293C160.221 165.044 160.488 167.844 161.374 170.475C161.403 170.563 161.46 170.638 161.535 170.692C161.609 170.746 161.699 170.775 161.792 170.775V170.775Z" fill="#3F3D56"/>
<path d="M186.273 157.805C186.534 158.23 186.642 158.732 186.58 159.227C186.518 159.722 186.29 160.182 185.933 160.53C185.079 161.483 183.718 161.543 182.536 161.367C181.21 161.168 179.803 160.547 178.46 160.966C177.316 161.322 176.5 162.359 175.311 162.62C174.256 162.851 172.995 162.545 172.626 161.422C172.448 160.883 173.299 160.651 173.476 161.188C173.715 161.915 174.747 161.9 175.339 161.699C176.287 161.376 177.017 160.592 177.949 160.217C179.06 159.873 180.249 159.877 181.358 160.226C182.412 160.464 183.625 160.815 184.675 160.372C185.453 160.044 186.071 159.012 185.512 158.249C185.176 157.791 185.941 157.352 186.273 157.805V157.805Z" fill="#2F2E41"/>
<path d="M176.593 195.443C173.484 195.445 170.391 195.011 167.403 194.152C167.052 194.053 166.683 193.941 166.313 193.82C164.231 193.142 162.222 192.261 160.314 191.187C159.957 190.987 159.597 190.775 159.218 190.541C157.332 189.382 155.567 188.037 153.949 186.527C153.682 186.279 153.417 186.023 153.159 185.768C148.07 180.698 144.765 174.115 143.741 167.008C142.716 159.901 144.027 152.654 147.476 146.355C150.925 140.056 156.327 135.045 162.869 132.076C169.412 129.107 176.742 128.339 183.758 129.888C190.774 131.437 197.098 135.22 201.779 140.667C206.461 146.115 209.247 152.933 209.719 160.098C210.191 167.263 208.324 174.388 204.398 180.402C200.472 186.415 194.699 190.994 187.947 193.449C187.825 193.493 187.7 193.538 187.574 193.583C184.045 194.818 180.332 195.447 176.593 195.443V195.443ZM176.593 130.857C170.372 130.857 164.29 132.702 159.119 136.158C153.947 139.615 149.918 144.526 147.542 150.272C145.166 156.018 144.549 162.339 145.77 168.435C146.991 174.531 149.994 180.128 154.4 184.518C154.644 184.758 154.897 185.002 155.152 185.24C156.684 186.67 158.356 187.944 160.142 189.041C160.502 189.263 160.84 189.462 161.178 189.652C162.984 190.668 164.888 191.504 166.859 192.145C167.208 192.259 167.553 192.364 167.886 192.458C174.155 194.255 180.828 194.068 186.987 191.922L187.343 191.794C194.288 189.268 200.12 184.377 203.816 177.981C207.511 171.585 208.834 164.093 207.551 156.819C206.267 149.546 202.461 142.956 196.8 138.209C191.138 133.461 183.984 130.858 176.593 130.857L176.593 130.857Z" fill="#CCCCCC"/>
<path d="M303.759 354.051H129.766C127.576 354.049 125.476 353.178 123.927 351.63C122.378 350.082 121.506 347.984 121.504 345.795V109.761C121.506 107.572 122.378 105.473 123.927 103.925C125.476 102.378 127.576 101.507 129.766 101.504H303.759C305.95 101.507 308.05 102.378 309.599 103.925C311.148 105.473 312.019 107.572 312.021 109.761V345.795C312.019 347.984 311.148 350.082 309.599 351.63C308.05 353.178 305.95 354.049 303.759 354.051V354.051ZM129.766 102.476C127.833 102.478 125.98 103.246 124.614 104.612C123.247 105.978 122.478 107.829 122.476 109.761V345.795C122.478 347.726 123.247 349.578 124.614 350.944C125.98 352.309 127.833 353.077 129.766 353.08H303.759C305.692 353.077 307.545 352.309 308.912 350.944C310.278 349.578 311.047 347.726 311.049 345.795V109.761C311.047 107.829 310.278 105.978 308.912 104.612C307.545 103.246 305.692 102.478 303.759 102.476H129.766Z" fill="#3F3D56"/>
<path d="M270.075 162.807H220.841C219.808 162.807 218.818 162.397 218.087 161.667C217.357 160.937 216.946 159.947 216.946 158.915C216.946 157.883 217.357 156.893 218.087 156.163C218.818 155.433 219.808 155.023 220.841 155.023H270.075C271.108 155.023 272.099 155.433 272.829 156.163C273.56 156.893 273.97 157.883 273.97 158.915C273.97 159.947 273.56 160.937 272.829 161.667C272.099 162.397 271.108 162.807 270.075 162.807V162.807Z" fill="#CCCCCC"/>
<path d="M286.142 175.943H220.841C219.808 175.943 218.818 175.533 218.087 174.803C217.357 174.073 216.946 173.083 216.946 172.051C216.946 171.019 217.357 170.029 218.087 169.299C218.818 168.569 219.808 168.159 220.841 168.159H286.142C287.175 168.159 288.166 168.569 288.896 169.299C289.627 170.029 290.037 171.019 290.037 172.051C290.037 173.083 289.627 174.073 288.896 174.803C288.166 175.533 287.175 175.943 286.142 175.943V175.943Z" fill="#CCCCCC"/>
<path d="M270.004 226.326H147.382C146.349 226.326 145.359 225.916 144.628 225.186C143.898 224.456 143.487 223.466 143.487 222.434C143.487 221.401 143.898 220.411 144.628 219.681C145.359 218.952 146.349 218.542 147.382 218.542H270.004C271.037 218.542 272.028 218.952 272.759 219.681C273.489 220.411 273.899 221.401 273.899 222.434C273.899 223.466 273.489 224.456 272.759 225.186C272.028 225.916 271.037 226.326 270.004 226.326V226.326Z" fill="#CCCCCC"/>
<path d="M286.071 239.462H147.382C146.349 239.462 145.359 239.052 144.628 238.322C143.898 237.592 143.487 236.602 143.487 235.57C143.487 234.538 143.898 233.548 144.628 232.818C145.359 232.088 146.349 231.678 147.382 231.678H286.071C287.104 231.678 288.095 232.088 288.825 232.818C289.556 233.548 289.966 234.538 289.966 235.57C289.966 236.602 289.556 237.592 288.825 238.322C288.095 239.052 287.104 239.462 286.071 239.462V239.462Z" fill="#CCCCCC"/>
<path d="M270.004 269.654H147.382C146.35 269.653 145.361 269.242 144.631 268.512C143.902 267.783 143.492 266.793 143.492 265.762C143.492 264.73 143.902 263.741 144.631 263.011C145.361 262.282 146.35 261.871 147.382 261.87H270.004C271.037 261.87 272.028 262.28 272.759 263.01C273.489 263.74 273.899 264.73 273.899 265.762C273.899 266.794 273.489 267.784 272.759 268.514C272.028 269.244 271.037 269.654 270.004 269.654V269.654Z" fill="#CCCCCC"/>
<path d="M286.071 282.79H147.382C146.35 282.788 145.361 282.378 144.631 281.648C143.902 280.918 143.492 279.929 143.492 278.898C143.492 277.866 143.902 276.877 144.631 276.147C145.361 275.417 146.35 275.007 147.382 275.005H286.071C287.104 275.005 288.095 275.415 288.825 276.145C289.556 276.875 289.966 277.865 289.966 278.898C289.966 279.93 289.556 280.92 288.825 281.65C288.095 282.38 287.104 282.79 286.071 282.79Z" fill="#CCCCCC"/>
<path d="M270.004 312.982H147.382C146.349 312.982 145.359 312.572 144.628 311.842C143.898 311.112 143.487 310.122 143.487 309.089C143.487 308.057 143.898 307.067 144.628 306.337C145.359 305.607 146.349 305.197 147.382 305.197H270.004C271.037 305.197 272.028 305.607 272.759 306.337C273.489 307.067 273.899 308.057 273.899 309.089C273.899 310.122 273.489 311.112 272.759 311.842C272.028 312.572 271.037 312.982 270.004 312.982V312.982Z" fill="#CCCCCC"/>
<path d="M286.071 326.118H147.382C146.349 326.118 145.359 325.708 144.628 324.978C143.898 324.248 143.487 323.258 143.487 322.226C143.487 321.193 143.898 320.203 144.628 319.473C145.359 318.744 146.349 318.333 147.382 318.333H286.071C287.104 318.333 288.095 318.744 288.825 319.473C289.556 320.203 289.966 321.193 289.966 322.226C289.966 323.258 289.556 324.248 288.825 324.978C288.095 325.708 287.104 326.118 286.071 326.118V326.118Z" fill="#CCCCCC"/>
<path d="M301.741 300.304C296.697 300.299 291.703 301.286 287.042 303.211C282.381 305.136 278.145 307.959 274.577 311.521C271.009 315.082 268.179 319.312 266.248 323.967C264.316 328.622 263.322 333.612 263.322 338.652C263.322 343.692 264.316 348.682 266.247 353.337C268.179 357.992 271.009 362.222 274.577 365.783C278.145 369.345 282.381 372.169 287.042 374.093C291.702 376.018 296.697 377.006 301.74 377H301.741C311.907 376.982 321.65 372.934 328.832 365.744C336.014 358.555 340.048 348.811 340.048 338.652C340.048 328.493 336.014 318.75 328.832 311.56C321.65 304.37 311.907 300.322 301.741 300.304V300.304Z" fill="#FDBC40"/>
<path d="M298.098 354.578C297.088 354.58 296.104 354.253 295.296 353.648L295.246 353.61L284.693 345.543C283.707 344.786 283.062 343.67 282.9 342.438C282.737 341.206 283.071 339.961 283.827 338.975C284.584 337.989 285.701 337.344 286.933 337.18C288.165 337.017 289.412 337.35 290.399 338.105L297.235 343.343L313.388 322.285C313.762 321.796 314.229 321.387 314.762 321.079C315.295 320.771 315.884 320.571 316.494 320.491C317.104 320.41 317.725 320.45 318.319 320.609C318.914 320.768 319.472 321.043 319.96 321.417L319.96 321.417L319.962 321.418L319.861 321.557L319.964 321.418C320.95 322.175 321.595 323.292 321.757 324.523C321.92 325.755 321.587 327.001 320.831 327.987L301.832 352.745C301.393 353.315 300.827 353.777 300.181 354.094C299.534 354.411 298.822 354.575 298.102 354.573L298.098 354.578Z" fill="white"/>
</g>
<defs>
<clipPath id="clip0_423_7915">
<rect width="417" height="377" fill="white"/>
</clipPath>
</defs>
</svg>
