<svg width="14" height="14" viewBox="0 0 14 14" fill="none" xmlns="http://www.w3.org/2000/svg">
<path fill-rule="evenodd" clip-rule="evenodd" d="M2.91634 11.6667H11.083C11.2377 11.6667 11.3861 11.7282 11.4955 11.8376C11.6049 11.947 11.6663 12.0954 11.6663 12.2501C11.6663 12.4048 11.6049 12.5532 11.4955 12.6626C11.3861 12.772 11.2377 12.8334 11.083 12.8334H2.91634C2.76163 12.8334 2.61326 12.772 2.50386 12.6626C2.39447 12.5532 2.33301 12.4048 2.33301 12.2501C2.33301 12.0954 2.39447 11.947 2.50386 11.8376C2.61326 11.7282 2.76163 11.6667 2.91634 11.6667ZM2.33301 8.75008L8.16634 2.91675L9.91634 4.66675L4.08301 10.5001H2.33301V8.75008ZM8.74967 2.33341L9.91634 1.16675L11.6663 2.91675L10.4991 4.084L8.74967 2.33341Z" fill="#4ECA5C"/>
</svg>
