<svg width="37" height="36" viewBox="0 0 37 36" fill="none" xmlns="http://www.w3.org/2000/svg">
<ellipse cx="16.7933" cy="16.3911" rx="16.7933" ry="16.3911" fill="#015792"/>
<path d="M16.8437 27.704C19.2979 27.7035 21.6814 26.8819 23.6147 25.37L29.6929 31.4483L31.6481 29.4931L25.5698 23.4149C27.0824 21.4814 27.9045 19.0974 27.9051 16.6425C27.9051 10.5435 22.9427 5.58105 16.8437 5.58105C10.7447 5.58105 5.78223 10.5435 5.78223 16.6425C5.78223 22.7415 10.7447 27.704 16.8437 27.704ZM16.8437 8.34642C21.419 8.34642 25.1398 12.0672 25.1398 16.6425C25.1398 21.2178 21.419 24.9386 16.8437 24.9386C12.2684 24.9386 8.54759 21.2178 8.54759 16.6425C8.54759 12.0672 12.2684 8.34642 16.8437 8.34642Z" fill="white"/>
<path d="M14.8584 13.4502L11.415 16.8935L14.8584 20.3369L15.7115 19.4837L13.1213 16.8935L15.7115 14.3033L14.8584 13.4502ZM19.3316 20.3369L22.7749 16.8935L19.3316 13.4502L18.4785 14.3033L21.0687 16.8935L18.4785 19.4837L19.3316 20.3369Z" fill="white"/>
</svg>
