<svg width="166" height="25" viewBox="0 0 166 25" fill="none" xmlns="http://www.w3.org/2000/svg">
<path d="M12.376 24.384C10.0933 24.384 8.024 23.8933 6.168 22.912C4.33333 21.9093 2.88267 20.5333 1.816 18.784C0.770667 17.0133 0.248 15.0187 0.248 12.8C0.248 10.5813 0.770667 8.59733 1.816 6.848C2.88267 5.07733 4.33333 3.70133 6.168 2.72C8.024 1.71733 10.104 1.216 12.408 1.216C14.3493 1.216 16.0987 1.55733 17.656 2.24C19.2347 2.92267 20.5573 3.904 21.624 5.184L18.296 8.256C16.7813 6.50667 14.904 5.632 12.664 5.632C11.2773 5.632 10.04 5.94133 8.952 6.56C7.864 7.15733 7.01067 8 6.392 9.088C5.79467 10.176 5.496 11.4133 5.496 12.8C5.496 14.1867 5.79467 15.424 6.392 16.512C7.01067 17.6 7.864 18.4533 8.952 19.072C10.04 19.6693 11.2773 19.968 12.664 19.968C14.904 19.968 16.7813 19.0827 18.296 17.312L21.624 20.384C20.5573 21.6853 19.2347 22.6773 17.656 23.36C16.0773 24.0427 14.3173 24.384 12.376 24.384ZM35.376 24.384C33.0933 24.384 31.024 23.8933 29.168 22.912C27.3333 21.9093 25.8827 20.5333 24.816 18.784C23.7707 17.0133 23.248 15.0187 23.248 12.8C23.248 10.5813 23.7707 8.59733 24.816 6.848C25.8827 5.07733 27.3333 3.70133 29.168 2.72C31.024 1.71733 33.104 1.216 35.408 1.216C37.3493 1.216 39.0987 1.55733 40.656 2.24C42.2347 2.92267 43.5573 3.904 44.624 5.184L41.296 8.256C39.7813 6.50667 37.904 5.632 35.664 5.632C34.2773 5.632 33.04 5.94133 31.952 6.56C30.864 7.15733 30.0107 8 29.392 9.088C28.7947 10.176 28.496 11.4133 28.496 12.8C28.496 14.1867 28.7947 15.424 29.392 16.512C30.0107 17.6 30.864 18.4533 31.952 19.072C33.04 19.6693 34.2773 19.968 35.664 19.968C37.904 19.968 39.7813 19.0827 41.296 17.312L44.624 20.384C43.5573 21.6853 42.2347 22.6773 40.656 23.36C39.0773 24.0427 37.3173 24.384 35.376 24.384ZM55.2973 24.384C53.5266 24.384 51.8093 24.1493 50.1453 23.68C48.5026 23.1893 47.1799 22.56 46.1773 21.792L47.9373 17.888C48.8973 18.592 50.0386 19.1573 51.3613 19.584C52.6839 20.0107 54.0066 20.224 55.3293 20.224C56.8013 20.224 57.8893 20.0107 58.5933 19.584C59.2973 19.136 59.6493 18.5493 59.6493 17.824C59.6493 17.2907 59.4359 16.8533 59.0093 16.512C58.6039 16.1493 58.0706 15.8613 57.4093 15.648C56.7693 15.4347 55.8946 15.2 54.7853 14.944C53.0786 14.5387 51.6813 14.1333 50.5933 13.728C49.5053 13.3227 48.5666 12.672 47.7773 11.776C47.0093 10.88 46.6253 9.68533 46.6253 8.192C46.6253 6.89067 46.9773 5.71733 47.6813 4.672C48.3853 3.60533 49.4413 2.76267 50.8493 2.144C52.2786 1.52533 54.0173 1.216 56.0653 1.216C57.4946 1.216 58.8919 1.38667 60.2573 1.728C61.6226 2.06933 62.8173 2.56 63.8413 3.2L62.2413 7.136C60.1719 5.96267 58.1026 5.376 56.0333 5.376C54.5826 5.376 53.5053 5.61067 52.8013 6.08C52.1186 6.54933 51.7773 7.168 51.7773 7.936C51.7773 8.704 52.1719 9.28 52.9613 9.664C53.7719 10.0267 54.9986 10.3893 56.6413 10.752C58.3479 11.1573 59.7453 11.5627 60.8333 11.968C61.9213 12.3733 62.8493 13.0133 63.6173 13.888C64.4066 14.7627 64.8013 15.9467 64.8013 17.44C64.8013 18.72 64.4386 19.8933 63.7133 20.96C63.0093 22.0053 61.9426 22.8373 60.5133 23.456C59.0839 24.0747 57.3453 24.384 55.2973 24.384ZM73.7835 24.256C72.3542 24.256 70.9568 24.0853 69.5915 23.744C68.2262 23.3813 67.1382 22.9333 66.3275 22.4L67.9915 18.816C68.7595 19.3067 69.6875 19.712 70.7755 20.032C71.8635 20.3307 72.9302 20.48 73.9755 20.48C76.0875 20.48 77.1435 19.9573 77.1435 18.912C77.1435 18.4213 76.8555 18.0693 76.2795 17.856C75.7035 17.6427 74.8182 17.4613 73.6235 17.312C72.2155 17.0987 71.0528 16.8533 70.1355 16.576C69.2182 16.2987 68.4182 15.808 67.7355 15.104C67.0742 14.4 66.7435 13.3973 66.7435 12.096C66.7435 11.008 67.0528 10.048 67.6715 9.216C68.3115 8.36267 69.2288 7.70133 70.4235 7.232C71.6395 6.76267 73.0688 6.528 74.7115 6.528C75.9275 6.528 77.1328 6.66667 78.3275 6.944C79.5435 7.2 80.5462 7.56267 81.3355 8.032L79.6715 11.584C78.1568 10.7307 76.5035 10.304 74.7115 10.304C73.6448 10.304 72.8448 10.4533 72.3115 10.752C71.7782 11.0507 71.5115 11.4347 71.5115 11.904C71.5115 12.4373 71.7995 12.8107 72.3755 13.024C72.9515 13.2373 73.8688 13.44 75.1275 13.632C76.5355 13.8667 77.6875 14.1227 78.5835 14.4C79.4795 14.656 80.2582 15.136 80.9195 15.84C81.5808 16.544 81.9115 17.5253 81.9115 18.784C81.9115 19.8507 81.5915 20.8 80.9515 21.632C80.3115 22.464 79.3728 23.1147 78.1355 23.584C76.9195 24.032 75.4688 24.256 73.7835 24.256ZM101.856 15.456C101.856 15.52 101.824 15.968 101.76 16.8H88.7355C88.9702 17.8667 89.5248 18.7093 90.3995 19.328C91.2742 19.9467 92.3622 20.256 93.6635 20.256C94.5595 20.256 95.3488 20.128 96.0315 19.872C96.7355 19.5947 97.3862 19.168 97.9835 18.592L100.64 21.472C99.0182 23.328 96.6502 24.256 93.5355 24.256C91.5942 24.256 89.8768 23.8827 88.3835 23.136C86.8902 22.368 85.7382 21.312 84.9275 19.968C84.1168 18.624 83.7115 17.0987 83.7115 15.392C83.7115 13.7067 84.1062 12.192 84.8955 10.848C85.7062 9.48267 86.8048 8.42667 88.1915 7.68C89.5995 6.912 91.1675 6.528 92.8955 6.528C94.5808 6.528 96.1062 6.89067 97.4715 7.616C98.8368 8.34133 99.9035 9.38667 100.672 10.752C101.461 12.096 101.856 13.664 101.856 15.456ZM92.9275 10.304C91.7968 10.304 90.8475 10.624 90.0795 11.264C89.3115 11.904 88.8422 12.7787 88.6715 13.888H97.1515C96.9808 12.8 96.5115 11.936 95.7435 11.296C94.9755 10.6347 94.0368 10.304 92.9275 10.304ZM105.179 0.255999H110.171V24H105.179V0.255999ZM131.668 15.456C131.668 15.52 131.636 15.968 131.572 16.8H118.548C118.783 17.8667 119.337 18.7093 120.212 19.328C121.087 19.9467 122.175 20.256 123.476 20.256C124.372 20.256 125.161 20.128 125.844 19.872C126.548 19.5947 127.199 19.168 127.796 18.592L130.452 21.472C128.831 23.328 126.463 24.256 123.348 24.256C121.407 24.256 119.689 23.8827 118.196 23.136C116.703 22.368 115.551 21.312 114.74 19.968C113.929 18.624 113.524 17.0987 113.524 15.392C113.524 13.7067 113.919 12.192 114.708 10.848C115.519 9.48267 116.617 8.42667 118.004 7.68C119.412 6.912 120.98 6.528 122.708 6.528C124.393 6.528 125.919 6.89067 127.284 7.616C128.649 8.34133 129.716 9.38667 130.484 10.752C131.273 12.096 131.668 13.664 131.668 15.456ZM122.74 10.304C121.609 10.304 120.66 10.624 119.892 11.264C119.124 11.904 118.655 12.7787 118.484 13.888H126.964C126.793 12.8 126.324 11.936 125.556 11.296C124.788 10.6347 123.849 10.304 122.74 10.304ZM143.312 24.256C141.477 24.256 139.824 23.8827 138.352 23.136C136.901 22.368 135.76 21.312 134.928 19.968C134.117 18.624 133.712 17.0987 133.712 15.392C133.712 13.6853 134.117 12.16 134.928 10.816C135.76 9.472 136.901 8.42667 138.352 7.68C139.824 6.912 141.477 6.528 143.312 6.528C145.125 6.528 146.704 6.912 148.048 7.68C149.413 8.42667 150.405 9.504 151.024 10.912L147.152 12.992C146.256 11.4133 144.965 10.624 143.28 10.624C141.978 10.624 140.901 11.0507 140.048 11.904C139.194 12.7573 138.768 13.92 138.768 15.392C138.768 16.864 139.194 18.0267 140.048 18.88C140.901 19.7333 141.978 20.16 143.28 20.16C144.986 20.16 146.277 19.3707 147.152 17.792L151.024 19.904C150.405 21.2693 149.413 22.336 148.048 23.104C146.704 23.872 145.125 24.256 143.312 24.256ZM165.252 23.168C164.761 23.5307 164.153 23.808 163.428 24C162.724 24.1707 161.977 24.256 161.188 24.256C159.14 24.256 157.55 23.7333 156.42 22.688C155.31 21.6427 154.756 20.1067 154.756 18.08V11.008H152.1V7.168H154.756V2.976H159.748V7.168H164.036V11.008H159.748V18.016C159.748 18.7413 159.929 19.3067 160.292 19.712C160.676 20.096 161.209 20.288 161.892 20.288C162.681 20.288 163.353 20.0747 163.908 19.648L165.252 23.168Z" fill="#015792"/>
</svg>
