<svg width="330" height="368" viewBox="0 0 330 368" fill="none" xmlns="http://www.w3.org/2000/svg">
<g clip-path="url(#clip0_1075_12202)">
<path d="M289.31 283.542H5.50293V0H289.31V283.542Z" fill="white"/>
<path d="M289.31 283.542H5.50293V0H289.31V283.542ZM9.69611 279.352H285.116V4.18931H9.69611V279.352Z" fill="#E5E5E5"/>
<path d="M239.033 44.3604H116.133V48.1852H239.033V44.3604Z" fill="#E5E5E5"/>
<path d="M239.033 54.3047H116.133V58.1295H239.033V54.3047Z" fill="#E5E5E5"/>
<path d="M239.033 64.2495H116.133V68.0743H239.033V64.2495Z" fill="#E5E5E5"/>
<path d="M239.033 129.752H116.133V133.577H239.033V129.752Z" fill="#E5E5E5"/>
<path d="M239.033 139.697H116.133V143.522H239.033V139.697Z" fill="#E5E5E5"/>
<path d="M239.033 149.641H116.133V153.466H239.033V149.641Z" fill="#E5E5E5"/>
<path d="M239.033 215.144H116.133V218.969H239.033V215.144Z" fill="#E5E5E5"/>
<path d="M239.033 225.088H116.133V228.913H239.033V225.088Z" fill="#E5E5E5"/>
<path d="M239.033 235.033H116.133V238.858H239.033V235.033Z" fill="#E5E5E5"/>
<path d="M66.9324 74.8342C64.8328 73.7288 62.6413 72.8074 60.3824 72.0803L60.0944 68.897L48.4129 67.6396L46.9283 71.7084L42.736 73.2802C42.586 73.337 42.4432 73.4113 42.3106 73.5015H42.3061C42.0721 73.6595 41.8729 73.8635 41.7205 74.101C41.5681 74.3385 41.4658 74.6045 41.4198 74.8829C41.375 75.1597 41.3856 75.4426 41.4509 75.7152L41.6725 76.6229C41.9915 76.8132 42.3195 76.9948 42.6473 77.1674L42.8557 77.2737C43.3343 77.5216 43.8219 77.7563 44.3226 77.9732C44.4245 78.0175 44.5353 78.0618 44.6372 78.1061C44.6461 78.1105 44.6504 78.1105 44.6593 78.1149C44.8943 78.2123 45.129 78.3053 45.3684 78.3938C46.1545 78.6938 46.9563 78.951 47.7702 79.1642C49.8477 79.7174 51.9885 79.9972 54.1384 79.9966C54.9228 79.9966 55.6983 79.9611 56.465 79.8859C58.2167 79.7243 59.9461 79.3755 61.6234 78.8454C61.6277 78.8454 61.6323 78.841 61.6366 78.841C62.6961 78.5038 63.7312 78.094 64.7344 77.6146C64.7387 77.6102 64.7476 77.6102 64.7521 77.6058C64.978 77.4995 65.1953 77.3844 65.4168 77.2737L65.5231 77.2205C65.7003 77.1276 65.8777 77.0346 66.0549 76.9372C66.4981 76.6937 66.9324 76.4369 67.3621 76.1624C67.4818 76.0915 67.5971 76.0163 67.7168 75.9366C67.8851 75.8259 68.0535 75.7108 68.2175 75.5912C67.8053 75.3256 67.3756 75.0733 66.9324 74.8342Z" fill="#3F3D56"/>
<path d="M45.009 76.7955L44.2779 73.4971H42.3678C42.3486 73.4973 42.3294 73.4988 42.3103 73.5015H42.3057C41.6193 73.5595 40.9583 73.7878 40.3825 74.1656C39.992 74.4147 39.6448 74.7257 39.3545 75.0865C39.9216 75.5159 40.5111 75.9144 41.1182 76.2952L41.1448 76.3085C41.3175 76.4147 41.495 76.521 41.6722 76.6228C41.9912 76.8132 42.3192 76.9947 42.647 77.1674L42.8554 77.2737C43.334 77.5216 43.8215 77.7562 44.3223 77.9732C44.4242 78.0174 44.535 78.0617 44.6369 78.106C44.6458 78.1104 44.6501 78.1104 44.659 78.1149C44.894 78.2123 45.1287 78.3052 45.3681 78.3938L45.009 76.7955Z" fill="#3F3D56"/>
<path d="M53.795 65.6275C58.4414 65.6275 62.2081 61.8643 62.2081 57.2222C62.2081 52.5801 58.4414 48.8169 53.795 48.8169C49.1485 48.8169 45.3818 52.5801 45.3818 57.2222C45.3818 61.8643 49.1485 65.6275 53.795 65.6275Z" fill="#FFB8B8"/>
<path d="M48.1472 53.1278C49.0181 54.1575 50.492 54.4481 51.8516 54.5672C55.0303 54.7426 58.2181 54.4826 61.3262 53.7943C61.5188 55.6592 60.9937 57.67 62.0931 59.204C62.6085 57.3468 62.9082 55.4365 62.9863 53.5108C63.0684 52.6846 62.9604 51.8505 62.6706 51.0724C62.5156 50.6824 62.2543 50.3437 61.9163 50.0947C61.5782 49.8457 61.1771 49.6965 60.7584 49.6639C61.3852 49.1889 62.1194 48.8753 62.8962 48.7508L60.2248 47.4096L60.9108 46.706L56.0745 46.4103L57.4753 45.5213C55.367 45.2318 53.2341 45.1646 51.1117 45.3206C50.1199 45.321 49.147 45.5912 48.2972 46.1022C47.4987 46.6727 47.0373 47.8065 47.533 48.6441C46.9124 48.746 46.328 49.0044 45.8353 49.3949C45.3427 49.7855 44.9579 50.2953 44.7176 50.876C44.4137 51.7989 44.3403 52.7822 44.5039 53.74C44.6861 55.2767 45.0436 56.7875 45.5693 58.2431L48.1472 53.1278Z" fill="#2F2E41"/>
<path d="M77.4528 48.1106C76.2724 44.7227 74.3664 41.6328 71.8679 39.0563C69.3694 36.4799 66.3384 34.479 62.9864 33.1932C59.6343 31.9073 56.0418 31.3674 52.4594 31.6112C48.8771 31.855 45.3911 32.8765 42.2445 34.6046C39.0979 36.3327 36.3664 38.7257 34.2407 41.6168C32.1149 44.5079 30.6459 47.8275 29.9362 51.344C29.2265 54.8605 29.2932 58.4894 30.1315 61.9776C30.9698 65.4658 32.5597 68.7293 34.7902 71.5405C35.0117 71.8195 35.2422 72.0984 35.4772 72.3685C35.4949 72.3862 35.5081 72.4039 35.5259 72.4216C36.1035 73.0865 36.7174 73.7192 37.3649 74.3165C37.5335 74.4715 37.7107 74.6309 37.8879 74.7814C38.2246 75.0825 38.5704 75.3702 38.9294 75.6447C39.0711 75.7554 39.2085 75.8661 39.3548 75.9724C39.9219 76.4018 40.5114 76.8003 41.1185 77.1811L41.1451 77.1943C41.3178 77.3006 41.4953 77.4069 41.6725 77.5087C41.9915 77.6991 42.3195 77.8806 42.6473 78.0533L42.8557 78.1595C43.3343 78.4075 43.8218 78.6421 44.3226 78.8591C44.4245 78.9033 44.5353 78.9476 44.6372 78.9919C44.6461 78.9963 44.6504 78.9963 44.6592 79.0007C44.8942 79.0982 45.129 79.1911 45.3683 79.2797C46.1545 79.5796 46.9562 79.8368 47.7702 80.05C49.8476 80.6032 51.9885 80.883 54.1384 80.8824C54.9228 80.8824 55.6983 80.847 56.465 80.7717C58.2167 80.6102 59.9461 80.2614 61.6234 79.7313C61.6277 79.7313 61.6322 79.7269 61.6366 79.7269C62.6961 79.3896 63.7312 78.9798 64.7343 78.5004C64.7387 78.496 64.7475 78.496 64.7521 78.4916C64.978 78.3853 65.1952 78.2702 65.4168 78.1595L65.5231 78.1064C65.7003 78.0134 65.8777 77.9204 66.0549 77.823C66.4981 77.5795 66.9324 77.3227 67.3621 77.0482C67.4818 76.9774 67.5971 76.9021 67.7168 76.8225C67.8851 76.7118 68.0535 76.5966 68.2175 76.4771C68.4345 76.3266 68.6518 76.1716 68.8645 76.0122C68.9309 75.9635 69.0019 75.9148 69.0683 75.8617C73.2201 72.7133 76.2675 68.3325 77.7737 63.3472C79.2799 58.3619 79.1676 53.0282 77.4528 48.1106V48.1106ZM68.253 74.7858C68.1067 74.9009 67.9561 75.0116 67.8053 75.1135C67.659 75.2241 67.5129 75.3304 67.3621 75.4278C67.2336 75.5208 67.105 75.6093 66.9722 75.6935L66.9324 75.72C66.8348 75.7864 66.7374 75.8484 66.6398 75.9104C66.272 76.1406 65.8997 76.362 65.5231 76.5745L65.4034 76.6409C65.235 76.7339 65.0667 76.8225 64.8984 76.911C64.8761 76.9243 64.8494 76.9331 64.8274 76.9464L64.8008 76.9597C64.5881 77.0704 64.3708 77.1767 64.1538 77.2785C63.3158 77.6816 62.4529 78.0306 61.5702 78.3234C61.4548 78.3632 61.3397 78.4031 61.2246 78.4385C59.637 78.9429 57.9997 79.2754 56.341 79.4302C55.6142 79.4966 54.8785 79.532 54.1384 79.532C52.1049 79.5362 50.0798 79.2712 48.116 78.744C47.1082 78.4811 46.1204 78.1468 45.1602 77.7434C45.1113 77.7212 45.0581 77.7035 45.0094 77.6814C44.9563 77.6593 44.9074 77.6415 44.8588 77.6194C44.8055 77.5973 44.7568 77.5751 44.7036 77.5486C44.2871 77.367 43.8749 77.1678 43.4717 76.9597L43.2768 76.8579C42.7847 76.6011 42.3017 76.3266 41.832 76.0344C41.6945 75.9502 41.5528 75.8617 41.4198 75.7687C41.3845 75.7466 41.3533 75.7245 41.3178 75.7023C41.0032 75.4942 40.6886 75.2773 40.3828 75.0515C40.1747 74.8965 39.9663 74.7416 39.7625 74.5822C39.4212 74.3254 39.0932 74.0509 38.7742 73.7675C38.6059 73.6258 38.4419 73.4709 38.2824 73.3248C37.654 72.7451 37.0592 72.1302 36.5009 71.483C36.3148 71.2705 36.133 71.0579 35.9601 70.8366C35.9208 70.7928 35.8839 70.747 35.8493 70.6993C32.97 67.0694 31.2382 62.6648 30.8746 58.0475C30.511 53.4302 31.5322 48.8093 33.808 44.7741C36.0837 40.739 39.5109 37.4725 43.6524 35.3912C47.7939 33.3099 52.462 32.5082 57.0614 33.0882C61.6609 33.6683 65.9831 35.6038 69.477 38.648C72.9709 41.6922 75.4781 45.7071 76.6788 50.1807C77.8795 54.6543 77.7193 59.3838 76.2186 63.766C74.718 68.1482 71.9448 71.9846 68.2529 74.7859L68.253 74.7858Z" fill="#3F3D56"/>
<path d="M77.4527 133.502C76.2723 130.114 74.3664 127.024 71.8679 124.448C69.3694 121.872 66.3384 119.871 62.9863 118.585C59.6343 117.299 56.0418 116.759 52.4594 117.003C48.8771 117.247 45.391 118.268 42.2444 119.996C39.0979 121.724 36.3664 124.117 34.2407 127.008C32.1149 129.899 30.646 133.219 29.9363 136.736C29.2266 140.252 29.2932 143.881 30.1315 147.369C30.9698 150.857 32.5596 154.121 34.7901 156.932C35.0117 157.211 35.2422 157.49 35.4769 157.76C35.4947 157.778 35.5079 157.795 35.5256 157.813C36.1034 158.478 36.7174 159.111 37.3649 159.708C37.5332 159.863 37.7105 160.022 37.8877 160.173C38.2246 160.474 38.5701 160.762 38.9291 161.036C39.63 161.588 40.3609 162.101 41.1183 162.573L41.1449 162.586C41.6367 162.891 42.1375 163.175 42.6473 163.445L42.8554 163.551C43.3341 163.799 43.8216 164.034 44.3223 164.251C44.4242 164.295 44.535 164.339 44.6369 164.383C44.6458 164.388 44.6503 164.388 44.6592 164.392C45.671 164.813 46.7104 165.163 47.7702 165.442C49.8475 165.995 51.9883 166.275 54.1382 166.274C54.9226 166.274 55.6981 166.239 56.4647 166.163C58.2165 166.002 59.9459 165.653 61.6231 165.123C61.6277 165.123 61.632 165.118 61.6363 165.118C62.6959 164.781 63.7309 164.371 64.7341 163.892C64.7384 163.888 64.7475 163.888 64.7518 163.883C64.9777 163.777 65.195 163.662 65.4166 163.551L65.523 163.498C65.7002 163.405 65.8775 163.312 66.0547 163.215C66.4978 162.971 66.9321 162.714 67.3621 162.44C67.4817 162.369 67.5968 162.294 67.7165 162.214C68.1064 161.957 68.492 161.683 68.8642 161.404C68.9309 161.355 69.0016 161.306 69.0683 161.253C73.2199 158.105 76.2672 153.724 77.7734 148.739C79.2796 143.753 79.1674 138.42 77.4527 133.502V133.502Z" fill="white"/>
<path d="M62.2858 151.776C64.3292 151.776 65.9858 150.121 65.9858 148.08C65.9858 146.038 64.3292 144.383 62.2858 144.383C60.2424 144.383 58.5859 146.038 58.5859 148.08C58.5859 150.121 60.2424 151.776 62.2858 151.776Z" fill="#2F2E41"/>
<path d="M63.3162 144.485C63.9566 144.485 64.586 144.651 65.1429 144.967C65.6998 145.283 66.1651 145.738 66.4934 146.287C66.8216 146.836 67.0016 147.461 67.0156 148.101C67.0296 148.741 66.8773 149.373 66.5734 149.936C66.8941 149.535 67.1277 149.072 67.2592 148.576C67.3908 148.079 67.4175 147.561 67.3376 147.054C67.2577 146.547 67.0729 146.063 66.7951 145.631C66.5174 145.199 66.1526 144.83 65.7241 144.547C65.2956 144.264 64.8128 144.073 64.3064 143.986C63.8 143.9 63.2812 143.92 62.7829 144.045C62.2846 144.17 61.8179 144.397 61.4124 144.712C61.0069 145.027 60.6716 145.423 60.4277 145.875C60.7736 145.441 61.213 145.091 61.7132 144.85C62.2134 144.61 62.7615 144.485 63.3167 144.485L63.3162 144.485Z" fill="#2F2E41"/>
<path d="M55.3718 148.072C61.3745 148.072 66.2406 143.21 66.2406 137.213C66.2406 131.216 61.3745 126.354 55.3718 126.354C49.3691 126.354 44.5029 131.216 44.5029 137.213C44.5029 143.21 49.3691 148.072 55.3718 148.072Z" fill="#2F2E41"/>
<path d="M46.841 130.476C48.7137 128.372 51.3316 127.077 54.1419 126.864C56.9523 126.652 59.7354 127.539 61.9038 129.337C61.8152 129.253 61.7265 129.168 61.6348 129.086C59.4878 127.164 56.6646 126.173 53.7863 126.331C50.9081 126.489 48.2105 127.783 46.2871 129.928C44.3637 132.073 43.3719 134.894 43.5301 137.769C43.6882 140.645 44.9832 143.34 47.1302 145.262C47.1509 145.28 47.1716 145.298 47.1924 145.317C47.2845 145.399 47.3794 145.476 47.4738 145.554C45.4318 143.614 44.2244 140.956 44.1064 138.143C43.9884 135.33 44.9691 132.581 46.8414 130.476L46.841 130.476Z" fill="#2F2E41"/>
<path d="M55.2794 147.98C59.1454 147.98 62.2795 144.849 62.2795 140.986C62.2795 137.124 59.1454 133.993 55.2794 133.993C51.4133 133.993 48.2793 137.124 48.2793 140.986C48.2793 144.849 51.4133 147.98 55.2794 147.98Z" fill="#A0616A"/>
<path d="M67.8052 159.208V161.555C67.3753 161.829 66.941 162.086 66.4978 162.329C66.3206 162.427 66.1434 162.52 65.9662 162.613L65.8597 162.666C65.6381 162.777 65.4209 162.892 65.195 162.998C65.1906 163.002 65.1816 163.002 65.1772 163.007C64.1741 163.486 63.139 163.896 62.0795 164.233C62.0751 164.233 62.0708 164.238 62.0663 164.238C60.389 164.768 58.6596 165.117 56.9079 165.278C56.1412 165.353 55.3657 165.389 54.5813 165.389C52.4314 165.389 50.2907 165.11 48.2133 164.556C47.1536 164.278 46.1141 163.927 45.1024 163.507C45.0935 163.503 45.0889 163.503 45.0801 163.498C44.9781 163.454 44.8674 163.41 44.7654 163.365C44.2647 163.149 43.7772 162.914 43.2986 162.666L43.0904 162.56C42.5806 162.29 42.0799 162.006 41.5881 161.701L41.5614 161.687C40.804 161.216 40.0732 160.703 39.3723 160.151C39.0133 159.877 38.6677 159.589 38.3308 159.288C38.1536 159.137 37.9764 158.978 37.808 158.823C37.1606 158.226 36.5465 157.593 35.9688 156.928C36.0454 156.467 36.158 156.012 36.3057 155.569L36.31 155.564C36.3365 155.489 36.3676 155.415 36.403 155.343C36.4275 155.279 36.4556 155.217 36.4872 155.157C37.2805 153.674 38.7164 153.306 40.4979 153.227C41.5039 153.182 42.6161 153.231 43.7906 153.218C44.411 153.213 45.0534 153.191 45.6961 153.134C49.751 152.766 49.0155 150.375 49.197 149.087C49.3788 147.838 50.5044 148.919 50.5797 148.99L50.584 148.994C52.8787 150.067 55.4174 150.512 57.9405 150.282C58.3748 150.229 58.809 150.198 59.2433 150.185C60.3867 150.172 60.1385 150.499 59.7443 150.769C59.5528 150.895 59.3529 151.008 59.146 151.106C59.146 151.106 58.9642 152.213 58.7781 153.869C58.6009 155.454 61.6409 156.197 61.8934 156.255C61.8986 156.258 61.9049 156.26 61.9111 156.259C63.0213 155.972 64.1902 156.002 65.2837 156.348H65.2881C65.9129 156.578 66.4704 156.959 66.91 157.459C67.3496 157.958 67.6573 158.56 67.8052 159.208V159.208Z" fill="#015792"/>
<path d="M45.1468 162.055C45.1468 162.382 45.1381 162.697 45.1247 162.993C45.1204 163.17 45.1115 163.343 45.1027 163.507C45.0938 163.502 45.0892 163.502 45.0804 163.498C44.9784 163.454 44.8677 163.409 44.7657 163.365C44.265 163.148 43.7775 162.914 43.2989 162.666L43.0907 162.559C42.5809 162.289 42.0802 162.006 41.5884 161.701C41.6016 161.546 41.6238 161.391 41.6459 161.236C41.6946 160.895 41.7346 160.549 41.7612 160.208C41.9354 157.813 41.501 155.413 40.4982 153.231V153.226C40.4095 153.049 40.3564 152.952 40.3564 152.952C40.3564 152.952 41.6459 151.845 43.4849 152.952C43.6024 153.021 43.7061 153.111 43.7909 153.218C44.8988 154.524 45.2 158.916 45.1468 162.055Z" fill="#2F2E41"/>
<path d="M65.2704 161.453C65.2527 161.949 65.2261 162.467 65.1951 162.994V162.998C65.1908 163.002 65.1817 163.002 65.1774 163.007C64.1742 163.486 63.1392 163.896 62.0796 164.233C62.0753 164.233 62.071 164.238 62.0664 164.238L62.0177 162.994L62.0132 162.83L61.7784 156.773C61.7721 156.636 61.7937 156.499 61.8419 156.37C61.89 156.242 61.9638 156.124 62.0586 156.025C62.1534 155.926 62.2674 155.847 62.3937 155.793C62.52 155.739 62.6559 155.711 62.7933 155.71H65.04C65.1508 155.71 65.2306 155.936 65.2838 156.344V156.348C65.3928 158.048 65.3883 159.753 65.2704 161.453V161.453Z" fill="#2F2E41"/>
<path d="M49.292 132.244V139.239H50.9131L52.976 137.031L52.6999 139.239H59.8657L59.4225 137.031L60.3089 139.239H61.4513V132.244H49.292Z" fill="#2F2E41"/>
<path d="M48.1864 140.526C48.4916 140.526 48.739 140.073 48.739 139.514C48.739 138.955 48.4916 138.502 48.1864 138.502C47.8812 138.502 47.6338 138.955 47.6338 139.514C47.6338 140.073 47.8812 140.526 48.1864 140.526Z" fill="#A0616A"/>
<path d="M62.372 140.526C62.6772 140.526 62.9246 140.073 62.9246 139.514C62.9246 138.955 62.6772 138.502 62.372 138.502C62.0667 138.502 61.8193 138.955 61.8193 139.514C61.8193 140.073 62.0667 140.526 62.372 140.526Z" fill="#A0616A"/>
<path d="M69.308 160.518C68.9358 160.797 68.5502 161.072 68.1603 161.328C68.0406 161.408 67.9255 161.483 67.8058 161.554C67.3759 161.829 66.9416 162.086 66.4984 162.329C66.3212 162.426 66.144 162.519 65.9668 162.612V157.733C65.9668 157.733 66.6757 158.3 67.8058 159.243C67.9476 159.363 68.0938 159.487 68.249 159.619C68.5768 159.894 68.9315 160.195 69.308 160.518Z" fill="#6C63FF"/>
<path d="M77.4527 133.502C76.2723 130.114 74.3664 127.024 71.8679 124.448C69.3694 121.872 66.3384 119.871 62.9863 118.585C59.6343 117.299 56.0418 116.759 52.4594 117.003C48.8771 117.247 45.391 118.268 42.2444 119.996C39.0979 121.724 36.3664 124.117 34.2407 127.008C32.1149 129.899 30.646 133.219 29.9363 136.736C29.2266 140.252 29.2932 143.881 30.1315 147.369C30.9698 150.857 32.5596 154.121 34.7901 156.932C35.0117 157.211 35.2422 157.49 35.4769 157.76C35.4947 157.778 35.5079 157.795 35.5256 157.813C36.1034 158.478 36.7174 159.111 37.3649 159.708C37.5332 159.863 37.7105 160.022 37.8877 160.173C38.2246 160.474 38.5701 160.762 38.9291 161.036C39.63 161.588 40.3609 162.101 41.1183 162.573L41.1449 162.586C41.6367 162.891 42.1375 163.175 42.6473 163.445L42.8554 163.551C43.3341 163.799 43.8216 164.034 44.3223 164.251C44.4242 164.295 44.535 164.339 44.6369 164.383C44.6458 164.388 44.6503 164.388 44.6592 164.392C45.671 164.813 46.7104 165.163 47.7702 165.442C49.8475 165.995 51.9883 166.275 54.1382 166.274C54.9226 166.274 55.6981 166.239 56.4647 166.163C58.2165 166.002 59.9459 165.653 61.6231 165.123C61.6277 165.123 61.632 165.118 61.6363 165.118C62.6959 164.781 63.7309 164.371 64.7341 163.892C64.7384 163.888 64.7475 163.888 64.7518 163.883C64.9777 163.777 65.195 163.662 65.4166 163.551L65.523 163.498C65.7002 163.405 65.8775 163.312 66.0547 163.215C66.4978 162.971 66.9321 162.714 67.3621 162.44C67.4817 162.369 67.5968 162.294 67.7165 162.214C68.1064 161.957 68.492 161.683 68.8642 161.404C68.9309 161.355 69.0016 161.306 69.0683 161.253C73.2199 158.105 76.2672 153.724 77.7734 148.739C79.2796 143.753 79.1674 138.42 77.4527 133.502V133.502ZM68.2527 160.177C68.1064 160.293 67.9558 160.403 67.8052 160.505C67.659 160.616 67.5127 160.722 67.3621 160.819C67.2336 160.912 67.105 161.001 66.972 161.085C66.8612 161.16 66.7504 161.231 66.6396 161.302C66.2719 161.532 65.8997 161.754 65.523 161.966L65.4031 162.032C65.2348 162.125 65.0664 162.214 64.8981 162.303C64.8758 162.316 64.8492 162.325 64.8272 162.338L64.8005 162.351C64.5878 162.462 64.3708 162.568 64.1535 162.67C63.3156 163.073 62.4526 163.422 61.5699 163.715C61.4548 163.755 61.3395 163.795 61.2244 163.83C59.6368 164.334 57.9995 164.667 56.3408 164.822C55.6139 164.888 54.8782 164.924 54.1382 164.924C52.1047 164.928 50.0796 164.663 48.1157 164.136C47.1079 163.873 46.1201 163.538 45.1599 163.135C45.058 163.095 44.9561 163.051 44.8585 163.011C44.8055 162.989 44.7566 162.967 44.7034 162.94C44.2868 162.759 43.8748 162.559 43.4715 162.351L43.2765 162.249C42.7847 161.993 42.3015 161.718 41.8317 161.426C41.6591 161.32 41.4862 161.209 41.3178 161.094C40.7859 160.744 40.2675 160.368 39.7622 159.974C39.421 159.717 39.0932 159.442 38.774 159.159C38.6056 159.017 38.4416 158.862 38.2822 158.716C37.6538 158.137 37.059 157.522 36.5007 156.875C36.3146 156.662 36.1328 156.449 35.9599 156.228C35.9206 156.184 35.8836 156.139 35.8491 156.091C32.9698 152.461 31.2379 148.056 30.8744 143.439C30.5108 138.822 31.532 134.201 33.8077 130.166C36.0835 126.131 39.5107 122.864 43.6522 120.783C47.7936 118.701 52.4618 117.9 57.0612 118.48C61.6606 119.06 65.9829 120.995 69.4768 124.04C72.9707 127.084 75.4778 131.099 76.6785 135.572C77.8792 140.046 77.719 144.775 76.2184 149.158C74.7177 153.54 71.9446 157.376 68.2527 160.177V160.177Z" fill="#3F3D56"/>
<path d="M54.278 238.087C59.62 238.087 63.9505 233.76 63.9505 228.423C63.9505 223.086 59.62 218.76 54.278 218.76C48.936 218.76 44.6055 223.086 44.6055 228.423C44.6055 233.76 48.936 238.087 54.278 238.087Z" fill="#2F2E41"/>
<path d="M46.7277 223.213C48.2907 221.651 48.6075 219.436 47.4352 218.265C46.263 217.094 44.0455 217.41 42.4825 218.972C40.9194 220.533 40.6027 222.749 41.775 223.92C42.9472 225.091 45.1647 224.775 46.7277 223.213Z" fill="#2F2E41"/>
<path d="M64.3589 220.144C65.0102 218.621 63.8902 216.683 61.8574 215.816C59.8246 214.948 57.6488 215.48 56.9976 217.003C56.3463 218.526 57.4663 220.464 59.499 221.332C61.5318 222.199 63.7077 221.668 64.3589 220.144Z" fill="#2F2E41"/>
<path d="M65.8477 247.168L64.7081 245.376C64.2246 244.297 63.3326 243.453 62.2276 243.03C61.1226 242.606 59.8946 242.638 58.8126 243.117C57.7307 243.596 56.8829 244.484 56.455 245.587C56.027 246.689 56.0539 247.916 56.5296 248.999L56.8536 250.159L57.2225 251.477C58.7155 251.288 60.1887 250.967 61.6244 250.517C61.6287 250.516 61.6326 250.514 61.6356 250.511C62.6969 250.176 63.733 249.765 64.7362 249.283C64.7417 249.278 64.7471 249.278 64.7528 249.272C64.9762 249.166 65.1942 249.054 65.4176 248.943C65.4541 248.926 65.4895 248.908 65.5237 248.887C65.7024 248.798 65.8813 248.703 66.0545 248.608C66.2332 248.513 66.4063 248.413 66.5739 248.307L65.8477 247.168Z" fill="#CACACA"/>
<path d="M54.585 238.931C59.1187 238.931 62.7939 235.26 62.7939 230.73C62.7939 226.201 59.1187 222.529 54.585 222.529C50.0513 222.529 46.376 226.201 46.376 230.73C46.376 235.26 50.0513 238.931 54.585 238.931Z" fill="#FFB6B6"/>
<path d="M66.4399 246.816C65.5344 245.312 64.4104 243.95 63.1047 242.776C62.2104 241.977 61.0529 241.536 59.8536 241.537H48.2897C47.6233 241.536 46.964 241.673 46.3525 241.937C45.7409 242.201 45.1902 242.588 44.7341 243.074C44.2781 243.559 43.9266 244.133 43.7012 244.759C43.4759 245.386 43.3815 246.052 43.424 246.716C43.4492 247.091 43.5167 247.461 43.6253 247.821C43.7077 248.082 43.8104 248.335 43.9324 248.58L44.5022 249.719C44.5469 249.735 44.5917 249.758 44.6361 249.774C44.6473 249.78 44.6531 249.78 44.6585 249.786C44.8931 249.88 45.1279 249.975 45.3679 250.065C46.1541 250.365 46.956 250.622 47.7702 250.835C49.0809 251.186 50.4188 251.427 51.7699 251.555C52.5577 251.627 53.3454 251.666 54.1387 251.666C54.9264 251.666 55.6972 251.627 56.4681 251.555C56.7196 251.532 56.9708 251.505 57.2223 251.477C58.7154 251.288 60.1886 250.967 61.6243 250.517C61.6286 250.516 61.6325 250.514 61.6355 250.511C62.6968 250.176 63.7329 249.765 64.7361 249.283C64.7415 249.278 64.747 249.278 64.7527 249.272C64.9761 249.166 65.1941 249.054 65.4175 248.943C65.454 248.926 65.4894 248.908 65.5236 248.887C65.7023 248.798 65.8812 248.703 66.0544 248.608C66.2331 248.513 66.4062 248.413 66.5738 248.307C66.7527 248.212 66.9202 248.106 67.0934 248C66.8813 247.581 66.6633 247.19 66.4399 246.816Z" fill="#CACACA"/>
<path d="M50.3842 243.032C49.3141 242.532 48.0893 242.476 46.9776 242.875C45.8659 243.275 44.9578 244.098 44.4517 245.164L43.4236 246.716L42.9321 247.458L42.1836 248.586C42.3399 248.669 42.4907 248.753 42.6473 248.837L42.8538 248.943C43.3344 249.188 43.8202 249.423 44.3232 249.641C44.3789 249.668 44.4405 249.691 44.5019 249.719C44.5466 249.735 44.5914 249.758 44.6358 249.774C44.647 249.78 44.6527 249.78 44.6582 249.786C44.8927 249.881 45.1276 249.975 45.3676 250.065C46.1537 250.365 46.9557 250.622 47.7699 250.835C49.0806 251.186 50.4185 251.427 51.7696 251.555L52.1607 250.232L52.5407 248.971C53.0415 247.897 53.0957 246.669 52.6914 245.556C52.2872 244.443 51.4574 243.535 50.3842 243.032V243.032Z" fill="#CACACA"/>
<path d="M45.959 225.571C47.8349 226.863 50.0614 227.551 52.3396 227.542C51.5269 228.104 50.6018 228.485 49.6278 228.656C52.6569 229.305 55.7876 229.323 58.8238 228.708C59.4987 228.6 60.1499 228.376 60.7488 228.047C61.0473 227.881 61.3073 227.653 61.5121 227.38C61.7168 227.106 61.8616 226.793 61.9371 226.46C62.1388 225.308 61.2407 224.262 60.3074 223.557C58.8784 222.494 57.2307 221.761 55.4836 221.413C53.7365 221.064 51.9337 221.107 50.2055 221.54C49.054 221.771 48.0062 222.363 47.2137 223.229C46.8302 223.67 46.5987 224.222 46.5534 224.804C46.508 225.387 46.6513 225.968 46.9619 226.463L45.959 225.571Z" fill="#2F2E41"/>
<path d="M77.4564 218.894C76.2762 215.506 74.3704 212.415 71.8719 209.839C69.3734 207.262 66.3424 205.261 62.9901 203.974C59.6379 202.688 56.0452 202.148 52.4626 202.392C48.8799 202.636 45.3936 203.657 42.2468 205.385C39.1 207.114 36.3683 209.507 34.2425 212.398C32.1166 215.289 30.6476 218.609 29.938 222.126C29.2284 225.643 29.2952 229.272 30.1338 232.76C30.9724 236.249 32.5626 239.512 34.7935 242.324C35.0112 242.603 35.246 242.882 35.4806 243.15C35.4941 243.169 35.509 243.188 35.5254 243.205C36.1039 243.87 36.7193 244.502 37.3688 245.097C37.5362 245.254 37.7095 245.416 37.8884 245.566C38.2234 245.868 38.5698 246.152 38.9328 246.426C39.0725 246.537 39.2121 246.649 39.3575 246.755C39.9216 247.185 40.5138 247.581 41.1172 247.966C41.1275 247.966 41.1374 247.97 41.145 247.977C41.3182 248.083 41.4972 248.189 41.6758 248.29C41.8433 248.39 42.0165 248.491 42.1843 248.586C42.3406 248.669 42.4914 248.753 42.648 248.837L42.8545 248.943C43.3351 249.188 43.8209 249.423 44.3239 249.641C44.3795 249.668 44.4412 249.691 44.5026 249.719C44.5473 249.735 44.592 249.758 44.6365 249.774C44.6477 249.78 44.6534 249.78 44.6588 249.786C44.8934 249.88 45.1283 249.975 45.3683 250.065C46.1544 250.365 46.9564 250.622 47.7706 250.835C49.0813 251.186 50.4192 251.427 51.7703 251.555C52.558 251.627 53.3458 251.666 54.139 251.666C54.9268 251.666 55.6976 251.627 56.4685 251.555C56.72 251.533 56.9712 251.505 57.2227 251.477C58.7157 251.288 60.1889 250.967 61.6247 250.517C61.6289 250.516 61.6329 250.514 61.6358 250.511C62.6971 250.176 63.7333 249.765 64.7364 249.283C64.7419 249.278 64.7474 249.278 64.7531 249.272C64.9765 249.166 65.1944 249.054 65.4178 248.943C65.4543 248.926 65.4898 248.908 65.5239 248.887C65.7026 248.798 65.8815 248.703 66.0547 248.608C66.2334 248.513 66.4065 248.413 66.5741 248.307C66.753 248.212 66.9205 248.106 67.0937 248C67.1832 247.944 67.2726 247.888 67.3619 247.832C67.4849 247.76 67.5965 247.687 67.7195 247.603C67.887 247.497 68.0547 247.38 68.2165 247.263C68.4344 247.112 68.6524 246.956 68.8646 246.794C68.9361 246.748 69.0051 246.697 69.0713 246.643C73.2199 243.493 76.2649 239.112 77.771 234.128C79.277 229.144 79.1669 223.812 77.4564 218.894L77.4564 218.894ZM68.2558 245.566C68.1104 245.683 67.9595 245.795 67.809 245.896C67.6579 246.007 67.5127 246.113 67.3619 246.214C67.2334 246.303 67.1049 246.392 66.971 246.476C66.9589 246.487 66.9457 246.496 66.9317 246.504C66.8368 246.571 66.7362 246.632 66.6413 246.694C66.5742 246.733 66.5073 246.777 66.4402 246.816C66.2446 246.939 66.0491 247.056 65.848 247.168C65.7419 247.235 65.6301 247.296 65.524 247.358C65.485 247.38 65.4457 247.402 65.4067 247.425C65.2334 247.52 65.066 247.603 64.8982 247.693C64.8761 247.709 64.848 247.715 64.8314 247.732C64.821 247.732 64.811 247.736 64.8033 247.743C64.5911 247.855 64.3731 247.961 64.1555 248.061C63.3167 248.464 62.4526 248.813 61.5688 249.105C61.4572 249.144 61.3399 249.188 61.2281 249.222C59.8034 249.673 58.3386 249.987 56.8539 250.16C56.6864 250.182 56.5132 250.199 56.34 250.215C55.6139 250.282 54.882 250.316 54.139 250.316C53.4797 250.316 52.815 250.288 52.1614 250.232C50.7951 250.118 49.4415 249.883 48.1171 249.529C47.1088 249.266 46.1211 248.931 45.1619 248.524C45.1114 248.502 45.0612 248.485 45.011 248.463C44.9551 248.441 44.9104 248.424 44.8602 248.402C44.8043 248.379 44.7595 248.357 44.7036 248.329C44.3406 248.173 43.9775 248 43.6256 247.821C43.5752 247.793 43.525 247.771 43.4748 247.743L43.2792 247.642C43.1619 247.581 43.0446 247.52 42.9328 247.458C42.5586 247.257 42.1898 247.04 41.8324 246.816C41.6982 246.733 41.5531 246.643 41.4189 246.554L41.3183 246.487C41.0054 246.275 40.6928 246.063 40.3854 245.834C40.1786 245.678 39.9664 245.527 39.7654 245.365C39.4247 245.109 39.0949 244.835 38.7766 244.551C38.6088 244.411 38.4414 244.255 38.2851 244.11C37.656 243.531 37.061 242.916 36.503 242.268C36.3187 242.056 36.1343 241.844 35.9611 241.62C35.922 241.576 35.8885 241.531 35.8492 241.481C32.9692 237.851 31.2368 233.446 30.8729 228.828C30.5089 224.21 31.5299 219.588 33.8058 215.552C36.0816 211.517 39.509 208.249 43.6509 206.168C47.7929 204.086 52.4616 203.284 57.0617 203.864C61.6617 204.444 65.9847 206.379 69.4792 209.424C72.9736 212.468 75.4813 216.484 76.6823 220.958C77.8832 225.432 77.7231 230.162 76.2224 234.545C74.7216 238.928 71.9482 242.765 68.2559 245.566H68.2558Z" fill="#3F3D56"/>
<path d="M95.4406 98.3899C86.8443 91.1431 76.3251 86.5487 65.1629 85.1658C54.0007 83.7829 42.6768 85.6711 32.5692 90.6007C22.4616 95.5303 14.006 103.289 8.23142 112.932C2.45684 122.575 -0.387785 133.687 0.0436974 144.916C0.475179 156.145 4.16416 167.007 10.6617 176.179C17.1593 185.352 26.1854 192.44 36.6416 196.581C47.0977 200.721 58.5332 201.737 69.5564 199.503C80.5796 197.269 90.7153 191.883 98.7302 183.999L169.901 243.996C170.984 244.906 172.384 245.349 173.795 245.229C175.205 245.109 176.51 244.435 177.424 243.355C178.338 242.276 178.786 240.878 178.67 239.469C178.553 238.059 177.883 236.753 176.805 235.837L176.797 235.831L105.626 175.834C113.894 163.979 117.433 149.466 115.548 135.141C113.664 120.815 106.493 107.709 95.4406 98.3899V98.3899ZM90.8525 170.056C85.308 176.621 77.9395 181.396 69.6788 183.777C61.4181 186.158 52.6363 186.038 44.4438 183.432C36.2513 180.827 29.016 175.853 23.6531 169.139C18.2901 162.426 15.0402 154.274 14.3145 145.715C13.5887 137.156 15.4196 128.574 19.5756 121.055C23.7316 113.536 30.0262 107.417 37.6632 103.471C45.3002 99.5262 53.9367 97.9321 62.4806 98.8907C71.0245 99.8492 79.092 103.317 85.6629 108.857V108.857C94.4742 116.285 99.9711 126.906 100.944 138.383C101.918 149.86 98.2874 161.253 90.8525 170.056V170.056Z" fill="#3F3D56"/>
<path opacity="0.3" d="M29.5965 175.241C21.2572 168.21 15.8694 158.303 14.5029 147.488C13.1364 136.672 15.8911 125.738 22.22 116.857C21.3889 117.694 20.5854 118.57 19.8095 119.485C16.1281 123.844 13.3421 128.884 11.6105 134.319C9.87896 139.753 9.23577 145.475 9.71767 151.158C10.1996 156.841 11.7971 162.374 14.4191 167.44C17.0411 172.506 20.6362 177.006 24.9991 180.684C29.362 184.362 34.4074 187.146 39.847 188.876C45.2866 190.606 51.014 191.248 56.7022 190.767C62.3904 190.285 67.928 188.689 72.9988 186.07C78.0696 183.45 82.5743 179.858 86.2557 175.5C87.0298 174.583 87.7587 173.644 88.4426 172.684C80.7451 180.41 70.4206 184.963 59.5191 185.437C48.6176 185.91 37.9365 182.271 29.5965 175.241Z" fill="black"/>
<path d="M238.92 246.239C239.476 245.561 239.876 244.769 240.093 243.92C240.31 243.07 240.337 242.184 240.174 241.323C240.01 240.461 239.66 239.647 239.147 238.935C238.634 238.224 237.972 237.634 237.206 237.206L224.233 184.158L214.77 187.176L228.778 239.862C228.144 241.195 228.021 242.714 228.433 244.131C228.846 245.548 229.764 246.765 231.014 247.551C232.264 248.337 233.759 248.638 235.217 248.396C236.674 248.154 237.991 247.386 238.92 246.239H238.92Z" fill="#FFB6B6"/>
<path d="M232.215 212.307L225.299 218.267L215.623 226.601L211.35 204.756L210.903 202.484L210.551 200.682L220.355 183.62L228.528 184.088L229.086 184.122L229.098 184.245L229.226 185.389L230.902 200.447L230.941 200.81L232.215 212.307Z" fill="#015792"/>
<path d="M187.011 360.584L180.163 360.583L176.904 334.191L187.013 334.191L187.011 360.584Z" fill="#FFB6B6"/>
<path d="M188.758 367.216L166.675 367.215V366.936C166.675 364.659 167.581 362.475 169.193 360.864C170.804 359.254 172.991 358.349 175.27 358.349H175.271L188.759 358.35L188.758 367.216Z" fill="#2F2E41"/>
<path d="M258.516 361.142L251.668 361.141L248.409 334.749L258.518 334.75L258.516 361.142Z" fill="#FFB6B6"/>
<path d="M260.263 367.774L238.18 367.774V367.495C238.18 365.217 239.086 363.033 240.697 361.422C242.309 359.812 244.496 358.907 246.775 358.907H246.776L260.263 358.908L260.263 367.774Z" fill="#2F2E41"/>
<path d="M263.991 350.636L245.556 353.426L218.736 262.744L190.251 353.984L169.581 351.194L196.396 245.152V236.78L200.027 224.222L199.647 220.823L197.004 197.053L195.859 186.745L195.785 186.079C195.723 185.52 195.871 184.958 196.201 184.503C196.53 184.047 197.018 183.73 197.569 183.614V183.614L206.172 181.806H220.233L228.528 184.088L229.098 184.245L229.355 184.317L229.227 185.389L227.283 201.675L227.177 202.568L225.299 218.267L224.886 221.711C241.087 233.431 241.645 245.152 241.645 245.152L263.991 350.636Z" fill="#2F2E41"/>
<path d="M211.503 174.745C219.081 174.745 225.224 168.608 225.224 161.037C225.224 153.466 219.081 147.329 211.503 147.329C203.925 147.329 197.782 153.466 197.782 161.037C197.782 168.608 203.925 174.745 211.503 174.745Z" fill="#FFB6B6"/>
<path d="M225.914 218.561L198.771 222.107L199.279 225.981L226.421 222.435L225.914 218.561Z" fill="#015792"/>
<path d="M162.365 223.275C162.625 223.443 162.87 223.631 163.1 223.837L189.946 217L191.778 210.529L201.913 212.014L199.785 223.784C199.613 224.735 199.137 225.604 198.429 226.262C197.72 226.919 196.817 227.329 195.855 227.43L164.51 230.728C163.999 231.803 163.173 232.697 162.141 233.291C161.109 233.885 159.921 234.151 158.734 234.054C157.547 233.957 156.418 233.501 155.497 232.747C154.576 231.993 153.906 230.977 153.577 229.834C153.248 228.69 153.275 227.474 153.655 226.346C154.035 225.219 154.749 224.233 155.703 223.521C156.657 222.809 157.806 222.404 158.996 222.36C160.186 222.316 161.361 222.635 162.365 223.275V223.275Z" fill="#FFB6B6"/>
<path d="M203.657 187.108L198.909 183.48C197.625 182.994 195.866 184.376 195.557 185.713L188.854 213.06L202.819 223.106L204.775 220.037L203.657 187.108Z" fill="#015792"/>
<g opacity="0.2">
<path d="M230.903 200.447C229.718 200.917 228.509 201.327 227.283 201.675C226.892 201.792 226.49 201.903 226.093 202.009C223.478 202.734 220.792 203.168 218.082 203.304C216.916 203.354 215.747 203.322 214.585 203.209C213.338 203.085 212.105 202.842 210.904 202.484C210.864 202.473 210.82 202.461 210.781 202.45C208.283 201.742 205.993 200.442 204.105 198.661C203.683 198.25 203.289 197.812 202.926 197.349C201.883 196.073 201.118 194.593 200.679 193.005C200.241 191.416 200.138 189.754 200.379 188.123C200.426 187.828 200.489 187.536 200.569 187.247C200.779 186.462 201.058 185.696 201.401 184.959C201.552 184.613 201.72 184.273 201.898 183.938L208.211 181.806H220.233L228.529 184.088L229.087 184.122L229.098 184.245L229.355 184.317L229.227 185.389L230.903 200.447Z" fill="black"/>
</g>
<path d="M200.989 149.688C198.423 149.374 195.607 149.596 193.607 151.233C191.607 152.869 190.961 156.271 192.855 158.03C194.531 159.586 197.153 159.22 199.398 159.663C201.332 160.096 203.065 161.165 204.32 162.699C205.574 164.232 206.277 166.142 206.316 168.122C206.283 173.8 200.828 178.101 199.848 183.694C199.179 187.511 200.791 191.529 203.577 194.225C206.363 196.922 210.193 198.379 214.052 198.774C217.911 199.169 221.813 198.566 225.563 197.575C229.329 196.581 233.036 195.17 236.196 192.894C239.356 190.618 241.946 187.41 242.961 183.653C243.976 179.895 243.247 175.587 240.633 172.703C237.639 169.399 232.659 168.263 230.069 164.635C227.166 160.567 228.24 154.775 225.891 150.365C224.322 147.421 221.352 145.413 218.186 144.355C215.02 143.297 211.639 143.088 208.303 142.986C206.549 142.932 204.741 142.914 203.107 143.553C201.473 144.192 200.037 145.648 199.952 147.399C199.867 149.15 200.989 149.688 200.989 149.688Z" fill="#2F2E41"/>
<path d="M302.512 368H116.488C116.359 368 116.235 367.947 116.143 367.854C116.051 367.76 116 367.633 116 367.5C116 367.367 116.051 367.24 116.143 367.146C116.235 367.053 116.359 367 116.488 367H302.512C302.641 367 302.765 367.053 302.857 367.146C302.949 367.24 303 367.367 303 367.5C303 367.633 302.949 367.76 302.857 367.854C302.765 367.947 302.641 368 302.512 368Z" fill="#CACACA"/>
</g>
<defs>
<clipPath id="clip0_1075_12202">
<rect width="330" height="368" fill="white"/>
</clipPath>
</defs>
</svg>
