<svg width="13" height="15" viewBox="0 0 13 15" fill="none" xmlns="http://www.w3.org/2000/svg">
<path d="M6.96051 0C7.7614 0 8.52948 0.332706 9.09579 0.924926C9.66211 1.51715 9.98026 2.32037 9.98026 3.15789C9.98026 4.69737 8.92335 5.98421 7.52671 6.26053L3.99361 2.56579C4.12592 1.84418 4.49448 1.19331 5.03593 0.72506C5.57738 0.256811 6.2579 0.000434143 6.96051 0M7.17189 7.89474L11.7015 12.6316L13 13.9895L12.0412 15L9.77642 12.6316H0.921022V11.0526C0.921022 9.6 2.80836 8.37632 5.3525 8.00526L0 2.40789L0.958769 1.40526L7.17189 7.89474ZM13 11.0526V11.9842L9.33101 8.14737C11.4901 8.62895 13 9.75 13 11.0526Z" fill="#3C3F42"/>
</svg>
