<svg width="457" height="313" viewBox="0 0 457 313" fill="none" xmlns="http://www.w3.org/2000/svg">
<g clip-path="url(#clip0_553_7513)">
<path d="M268.964 277.818C273.367 285.611 269.634 311.932 269.634 311.932C269.634 311.932 245.19 301.569 240.788 293.779C239.74 291.926 239.066 289.884 238.805 287.77C238.545 285.656 238.703 283.512 239.271 281.459C239.838 279.406 240.805 277.485 242.114 275.807C243.423 274.128 245.05 272.724 246.901 271.676C248.752 270.627 250.791 269.954 252.902 269.695C255.013 269.436 257.155 269.597 259.204 270.167C261.253 270.738 263.169 271.707 264.844 273.02C266.519 274.333 267.919 275.963 268.964 277.818V277.818Z" fill="#F1F1F1"/>
<path d="M269.988 311.899L269.469 312.008C264.467 288.209 247.001 272.07 246.825 271.91L247.182 271.517C247.359 271.678 264.95 287.927 269.988 311.899Z" fill="white"/>
<path d="M308.961 286.692C302.988 297.545 269.31 312.247 269.31 312.247C269.31 312.247 263.758 275.876 269.728 265.026C271.149 262.446 273.062 260.172 275.361 258.332C277.659 256.493 280.296 255.125 283.122 254.307C285.948 253.488 288.907 253.235 291.831 253.562C294.754 253.889 297.585 254.79 300.161 256.213C302.737 257.635 305.008 259.552 306.844 261.854C308.681 264.155 310.047 266.797 310.864 269.627C311.681 272.457 311.934 275.421 311.607 278.349C311.281 281.277 310.382 284.112 308.961 286.692Z" fill="#F1F1F1"/>
<path d="M269.607 312.64L269.102 312.107C293.471 288.927 299.78 256.598 299.841 256.274L300.563 256.41C300.502 256.736 294.154 289.292 269.607 312.64Z" fill="white"/>
<path d="M432.356 11.8662H0.18457V217.256H432.356V11.8662Z" fill="#E6E6E6"/>
<path d="M419.998 29.4795H12.542V200.842H419.998V29.4795Z" fill="white"/>
<path d="M432.171 0H0V18.3883H432.171V0Z" fill="#015792"/>
<path d="M13.6442 12.999C15.5235 12.999 17.0471 11.4731 17.0471 9.59082C17.0471 7.70852 15.5235 6.18262 13.6442 6.18262C11.7648 6.18262 10.2412 7.70852 10.2412 9.59082C10.2412 11.4731 11.7648 12.999 13.6442 12.999Z" fill="white"/>
<path d="M26.5602 12.999C28.4396 12.999 29.9631 11.4731 29.9631 9.59082C29.9631 7.70852 28.4396 6.18262 26.5602 6.18262C24.6808 6.18262 23.1572 7.70852 23.1572 9.59082C23.1572 11.4731 24.6808 12.999 26.5602 12.999Z" fill="white"/>
<path d="M39.4772 12.999C41.3566 12.999 42.8801 11.4731 42.8801 9.59082C42.8801 7.70852 41.3566 6.18262 39.4772 6.18262C37.5978 6.18262 36.0742 7.70852 36.0742 9.59082C36.0742 11.4731 37.5978 12.999 39.4772 12.999Z" fill="white"/>
<path d="M172.35 81.21C171.435 81.213 170.694 82.4697 170.695 84.0168C170.697 85.5596 171.437 86.8096 172.35 86.8126H342.974C343.89 86.8095 344.631 85.5529 344.629 84.0057C344.627 82.4629 343.887 81.213 342.974 81.21H172.35Z" fill="#E6E6E6"/>
<path d="M172.35 98.0195C171.435 98.0226 170.694 99.2793 170.695 100.826C170.697 102.369 171.437 103.619 172.35 103.622H298.432C299.348 103.619 300.089 102.362 300.087 100.815C300.085 99.2725 299.345 98.0226 298.432 98.0195H172.35Z" fill="#E6E6E6"/>
<path d="M172.35 114.448C171.435 114.451 170.694 115.708 170.695 117.255C170.697 118.798 171.437 120.048 172.35 120.051H342.974C343.89 120.048 344.631 118.791 344.629 117.244C344.627 115.701 343.887 114.451 342.974 114.448H172.35Z" fill="#E6E6E6"/>
<path d="M172.35 131.258C171.435 131.261 170.694 132.518 170.695 134.065C170.697 135.607 171.437 136.857 172.35 136.86H298.432C299.348 136.857 300.089 135.601 300.087 134.054C300.085 132.511 299.345 131.261 298.432 131.258H172.35Z" fill="#E6E6E6"/>
<path d="M39.9452 143.196C39.0293 143.199 38.2882 144.456 38.29 146.003C38.2919 147.546 39.0318 148.796 39.9452 148.799H124.167C125.083 148.796 125.824 147.539 125.822 145.992C125.82 144.449 125.08 143.199 124.167 143.196H39.9452Z" fill="#E6E6E6"/>
<path d="M39.9452 160.006C39.0293 160.009 38.2882 161.266 38.29 162.813C38.2919 164.356 39.0318 165.605 39.9452 165.609H79.6247C80.5406 165.605 81.2816 164.349 81.2798 162.802C81.278 161.259 80.5381 160.009 79.6247 160.006H39.9452Z" fill="#E6E6E6"/>
<path d="M114.295 72.1779C112.663 67.4816 110.028 63.1984 106.573 59.627C103.118 56.0556 98.927 53.2819 94.2919 51.4995C89.6567 49.717 84.6892 48.9687 79.7356 49.3066C74.7821 49.6445 69.9617 51.0605 65.6107 53.456C61.2598 55.8515 57.4828 59.1686 54.5434 63.1762C51.604 67.1838 49.5728 71.7854 48.5914 76.66C47.6101 81.5346 47.7022 86.5649 48.8614 91.4002C50.0206 96.2355 52.219 100.759 55.3032 104.656C55.6096 105.043 55.9283 105.43 56.2529 105.804C56.2774 105.828 56.2957 105.853 56.3202 105.878C57.1192 106.799 57.9682 107.676 58.8635 108.504C59.0963 108.719 59.3413 108.94 59.5864 109.149C60.0523 109.566 60.5301 109.965 61.0265 110.345C61.9957 111.111 63.0062 111.822 64.0536 112.475L64.0904 112.494C64.7705 112.917 65.4629 113.31 66.1678 113.684L66.4556 113.831C67.1175 114.175 67.7916 114.5 68.484 114.801C68.6249 114.862 68.7781 114.924 68.919 114.985C68.9313 114.991 68.9376 114.991 68.9499 114.998C70.3489 115.58 71.7862 116.066 73.2516 116.452C76.124 117.219 79.0842 117.607 82.057 117.606C83.1416 117.606 84.2139 117.557 85.274 117.452C87.6963 117.229 90.0876 116.745 92.4069 116.01C92.4132 116.01 92.4191 116.004 92.4251 116.004C93.8903 115.537 95.3215 114.969 96.7086 114.304C96.7146 114.298 96.7272 114.298 96.7331 114.292C97.0455 114.144 97.3459 113.985 97.6523 113.831L97.7995 113.758C98.0445 113.629 98.2896 113.5 98.5346 113.365C99.1474 113.027 99.748 112.671 100.342 112.291C100.508 112.193 100.667 112.088 100.833 111.978C101.372 111.622 101.905 111.242 102.42 110.855C102.512 110.787 102.61 110.72 102.702 110.646C108.442 106.282 112.656 100.209 114.739 93.2986C116.822 86.3881 116.666 78.9946 114.295 72.1779Z" fill="white"/>
<path d="M93.3221 97.5087C96.1477 97.5087 98.4382 95.2146 98.4382 92.3847C98.4382 89.5548 96.1477 87.2607 93.3221 87.2607C90.4966 87.2607 88.2061 89.5548 88.2061 92.3847C88.2061 95.2146 90.4966 97.5087 93.3221 97.5087Z" fill="#2F2E41"/>
<path d="M94.748 87.4021C95.6335 87.4021 96.5038 87.6323 97.2739 88.0701C98.0439 88.508 98.6874 89.1384 99.1413 89.8999C99.5952 90.6614 99.844 91.5278 99.8634 92.4145C99.8828 93.3011 99.6721 94.1776 99.2519 94.9583C99.6954 94.4025 100.018 93.7602 100.2 93.0725C100.382 92.3848 100.419 91.6666 100.309 90.9638C100.198 90.261 99.9427 89.5889 99.5586 88.9904C99.1745 88.3919 98.6701 87.8801 98.0776 87.4877C97.4851 87.0952 96.8175 86.8306 96.1172 86.7108C95.417 86.591 94.6995 86.6187 94.0105 86.7919C93.3215 86.9652 92.6761 87.2802 92.1154 87.7171C91.5547 88.1539 91.091 88.703 90.7539 89.3292C91.2322 88.7278 91.8398 88.2422 92.5314 87.9085C93.223 87.5749 93.9809 87.4018 94.7486 87.4021H94.748Z" fill="#2F2E41"/>
<path d="M83.7614 92.374C92.0617 92.374 98.7904 85.6349 98.7904 77.3218C98.7904 69.0086 92.0617 62.2695 83.7614 62.2695C75.4611 62.2695 68.7324 69.0086 68.7324 77.3218C68.7324 85.6349 75.4611 92.374 83.7614 92.374Z" fill="#2F2E41"/>
<path d="M71.9661 67.9828C74.5557 65.066 78.1755 63.2708 82.0616 62.9763C85.9477 62.6818 89.796 63.911 92.7944 66.4043C92.6718 66.2871 92.5493 66.1693 92.4224 66.0557C89.4536 63.392 85.5498 62.0185 81.5699 62.2375C77.5899 62.4565 73.8598 64.25 71.2002 67.2234C68.5406 70.1969 67.1692 74.1067 67.3879 78.0928C67.6065 82.0789 69.3972 85.8147 72.3661 88.4784C72.3946 88.504 72.4233 88.5295 72.452 88.5549C72.5794 88.6684 72.7105 88.7758 72.8411 88.8845C70.0175 86.1942 68.348 82.5105 68.1849 78.6107C68.0217 74.711 69.3777 70.9003 71.9666 67.9828H71.9661Z" fill="#2F2E41"/>
<path d="M83.6345 92.2462C88.9803 92.2462 93.314 87.9059 93.314 82.5518C93.314 77.1978 88.9803 72.8574 83.6345 72.8574C78.2887 72.8574 73.9551 77.1978 73.9551 82.5518C73.9551 87.9059 78.2887 92.2462 83.6345 92.2462Z" fill="#A0616A"/>
<path d="M100.956 107.811V111.064C100.361 111.444 99.7608 111.8 99.148 112.138C98.9029 112.273 98.6579 112.402 98.4128 112.53L98.2656 112.604C97.9592 112.758 97.6588 112.917 97.3465 113.064C97.3405 113.071 97.3279 113.071 97.3219 113.077C95.9348 113.741 94.5036 114.309 93.0385 114.777C93.0325 114.777 93.0265 114.783 93.0202 114.783C90.7009 115.518 88.3097 116.001 85.8874 116.225C84.8273 116.329 83.7549 116.378 82.6703 116.378C79.6975 116.379 76.7374 115.991 73.8649 115.225C72.3995 114.839 70.9622 114.353 69.5632 113.77C69.5509 113.764 69.5446 113.764 69.5324 113.758C69.3914 113.697 69.2383 113.635 69.0973 113.574C68.4049 113.273 67.7308 112.948 67.069 112.604L66.7811 112.457C66.0762 112.082 65.3838 111.69 64.7037 111.266L64.667 111.248C63.6196 110.594 62.609 109.883 61.6398 109.118C61.1435 108.738 60.6656 108.339 60.1998 107.921C59.9547 107.713 59.7096 107.492 59.4769 107.277C58.5816 106.449 57.7325 105.572 56.9336 104.65C57.0396 104.011 57.1953 103.381 57.3995 102.766L57.4054 102.76C57.4421 102.655 57.4851 102.553 57.5341 102.453C57.5679 102.365 57.6068 102.279 57.6505 102.195C58.7474 100.139 60.733 99.6299 63.1963 99.5195C64.5874 99.4581 66.1253 99.5256 67.7494 99.5072C68.6072 99.5011 69.4956 99.4704 70.3842 99.3906C75.9911 98.8812 74.9741 95.5671 75.2251 93.7811C75.4764 92.0504 77.0329 93.5479 77.1371 93.6461L77.143 93.6522C80.316 95.1394 83.8264 95.7558 87.3152 95.4382C87.9158 95.3645 88.5163 95.3216 89.1168 95.3032C90.6978 95.2848 90.3546 95.7389 89.8094 96.1133C89.5448 96.2877 89.2683 96.4436 88.9821 96.5797C88.9821 96.5797 88.7308 98.114 88.4735 100.409C88.2284 102.606 92.432 103.638 92.7812 103.717C92.7884 103.722 92.7971 103.724 92.8057 103.723C94.3408 103.325 95.9571 103.367 97.4692 103.846H97.4751C98.3391 104.164 99.11 104.694 99.7179 105.386C100.326 106.078 100.751 106.912 100.956 107.811Z" fill="#CBCBCB"/>
<path d="M69.6239 111.757C69.6239 112.211 69.6119 112.647 69.5934 113.058C69.5874 113.304 69.5751 113.543 69.5629 113.77C69.5506 113.764 69.5443 113.764 69.532 113.758C69.3911 113.696 69.2379 113.635 69.097 113.574C68.4046 113.273 67.7305 112.948 67.0686 112.604L66.7808 112.457C66.0759 112.082 65.3835 111.69 64.7034 111.266C64.7216 111.051 64.7525 110.837 64.783 110.622C64.8503 110.149 64.9057 109.67 64.9425 109.198C65.1834 105.878 64.5826 102.551 63.196 99.5256V99.5195C63.0733 99.274 63 99.1389 63 99.1389C63 99.1389 64.783 97.6046 67.326 99.1389C67.4884 99.2346 67.6318 99.3594 67.749 99.5072C69.281 101.318 69.6975 107.406 69.6239 111.757Z" fill="#2F2E41"/>
<path d="M97.4502 110.922C97.4257 111.609 97.3889 112.327 97.3461 113.058V113.064C97.3401 113.07 97.3275 113.07 97.3215 113.076C95.9344 113.741 94.5032 114.309 93.0381 114.776C93.0321 114.776 93.0261 114.782 93.0198 114.782L92.9525 113.058L92.9462 112.831L92.6216 104.435C92.6129 104.245 92.6428 104.055 92.7094 103.877C92.776 103.699 92.8779 103.536 93.009 103.398C93.1402 103.26 93.2978 103.151 93.4724 103.076C93.647 103.001 93.8349 102.962 94.0249 102.962H97.1315C97.2847 102.962 97.3951 103.275 97.4687 103.84V103.846C97.6194 106.202 97.6132 108.566 97.4502 110.922Z" fill="#2F2E41"/>
<path d="M75.3555 70.4336V80.1304H77.597L80.4495 77.0692L80.0677 80.1304H89.9764L89.3636 77.0692L90.5891 80.1304H92.1689V70.4336H75.3555Z" fill="#2F2E41"/>
<path d="M73.8276 81.9144C74.2496 81.9144 74.5917 81.2862 74.5917 80.5114C74.5917 79.7365 74.2496 79.1084 73.8276 79.1084C73.4056 79.1084 73.0635 79.7365 73.0635 80.5114C73.0635 81.2862 73.4056 81.9144 73.8276 81.9144Z" fill="#A0616A"/>
<path d="M93.4419 81.9144C93.8639 81.9144 94.206 81.2862 94.206 80.5114C94.206 79.7365 93.8639 79.1084 93.4419 79.1084C93.0199 79.1084 92.6777 79.7365 92.6777 80.5114C92.6777 81.2862 93.0199 81.9144 93.4419 81.9144Z" fill="#A0616A"/>
<path d="M114.295 72.1779C112.663 67.4816 110.028 63.1984 106.573 59.627C103.118 56.0556 98.927 53.2819 94.2919 51.4995C89.6567 49.717 84.6892 48.9687 79.7356 49.3066C74.7821 49.6445 69.9617 51.0605 65.6107 53.456C61.2598 55.8515 57.4828 59.1686 54.5434 63.1762C51.604 67.1838 49.5728 71.7854 48.5914 76.66C47.6101 81.5346 47.7022 86.5649 48.8614 91.4002C50.0206 96.2355 52.219 100.759 55.3032 104.656C55.6096 105.043 55.9283 105.43 56.2529 105.804C56.2774 105.828 56.2957 105.853 56.3202 105.878C57.1192 106.799 57.9682 107.676 58.8635 108.504C59.0963 108.719 59.3413 108.94 59.5864 109.149C60.0523 109.566 60.5301 109.965 61.0265 110.345C61.9957 111.111 63.0062 111.822 64.0536 112.475L64.0904 112.494C64.7705 112.917 65.4629 113.31 66.1678 113.684L66.4556 113.831C67.1175 114.175 67.7916 114.5 68.484 114.801C68.6249 114.862 68.7781 114.924 68.919 114.985C68.9313 114.991 68.9376 114.991 68.9499 114.998C70.3489 115.58 71.7862 116.066 73.2516 116.452C76.124 117.219 79.0842 117.607 82.057 117.606C83.1416 117.606 84.2139 117.557 85.274 117.452C87.6963 117.229 90.0876 116.745 92.4069 116.01C92.4132 116.01 92.4191 116.004 92.4251 116.004C93.8903 115.537 95.3215 114.969 96.7086 114.304C96.7146 114.298 96.7272 114.298 96.7331 114.292C97.0455 114.144 97.3459 113.985 97.6523 113.831L97.7995 113.758C98.0445 113.629 98.2896 113.5 98.5346 113.365C99.1474 113.027 99.748 112.671 100.342 112.291C100.508 112.193 100.667 112.088 100.833 111.978C101.372 111.622 101.905 111.242 102.42 110.855C102.512 110.787 102.61 110.72 102.702 110.646C108.442 106.282 112.656 100.209 114.739 93.2986C116.822 86.3881 116.666 78.9946 114.295 72.1779ZM101.574 109.155C101.372 109.314 101.163 109.468 100.955 109.609C100.753 109.762 100.551 109.91 100.342 110.045C100.165 110.174 99.987 110.296 99.803 110.413C99.6498 110.517 99.4966 110.616 99.3434 110.714C98.835 111.033 98.3204 111.34 97.7995 111.634C97.7441 111.665 97.6891 111.696 97.6337 111.726C97.4009 111.855 97.1682 111.978 96.9354 112.101C96.9046 112.119 96.8678 112.131 96.8372 112.15L96.8004 112.168C96.5063 112.322 96.2062 112.469 95.9058 112.61C94.7471 113.169 93.5538 113.653 92.3332 114.059C92.1741 114.114 92.0146 114.169 91.8554 114.218C89.6601 114.917 87.3962 115.378 85.1026 115.593C84.0975 115.685 83.0802 115.734 82.0569 115.734C79.2451 115.74 76.4449 115.372 73.7294 114.642C72.3357 114.277 70.9699 113.814 69.6422 113.255C69.5012 113.199 69.3603 113.138 69.2254 113.083C69.1521 113.052 69.0844 113.021 69.0108 112.985C68.4349 112.733 67.8652 112.457 67.3074 112.168L67.0379 112.027C66.3578 111.671 65.6896 111.291 65.04 110.886C64.8013 110.738 64.5622 110.585 64.3294 110.425C63.594 109.94 62.8771 109.419 62.1784 108.873C61.7066 108.517 61.2533 108.136 60.8119 107.743C60.5791 107.547 60.3523 107.332 60.1318 107.13C59.263 106.326 58.4406 105.474 57.6684 104.576C57.4111 104.282 57.1598 103.987 56.9207 103.68C56.8664 103.62 56.8152 103.556 56.7675 103.49C52.7861 98.4583 50.3913 92.3528 49.8886 85.9523C49.3859 79.5518 50.798 73.1464 53.9448 67.5529C57.0916 61.9594 61.8306 57.4314 67.5573 54.5464C73.284 51.6613 79.7389 50.5499 86.0988 51.354C92.4587 52.1581 98.4353 54.8411 103.267 59.0609C108.098 63.2808 111.565 68.8462 113.225 75.0474C114.885 81.2486 114.664 87.8046 112.589 93.8792C110.514 99.9538 106.679 105.272 101.574 109.155H101.574Z" fill="#CBCBCB"/>
<path d="M324.31 123.449C324.613 123.669 324.898 123.914 325.162 124.179L358.102 117.672L360.748 109.945L372.914 112.421L369.556 126.556C369.285 127.698 368.651 128.721 367.75 129.472C366.848 130.222 365.729 130.66 364.558 130.718L326.409 132.633C325.72 133.902 324.66 134.931 323.372 135.583C322.084 136.235 320.629 136.479 319.199 136.282C317.77 136.085 316.434 135.457 315.369 134.482C314.304 133.506 313.562 132.228 313.24 130.82C312.918 129.411 313.032 127.937 313.566 126.594C314.101 125.252 315.031 124.104 316.233 123.304C317.434 122.504 318.851 122.089 320.294 122.115C321.737 122.141 323.137 122.606 324.31 123.449Z" fill="#FFB7B7"/>
<path d="M357.299 116.143C357.082 115.762 356.951 115.339 356.913 114.902C356.875 114.465 356.931 114.025 357.079 113.612L362.22 99.1905C362.655 96.9901 363.944 95.0523 365.803 93.8019C367.663 92.5515 369.942 92.0906 372.14 92.5202C374.338 92.9497 376.277 94.2348 377.53 96.0936C378.784 97.9523 379.251 100.233 378.828 102.436L378.084 117.781C378.062 118.219 377.947 118.647 377.746 119.037C377.544 119.426 377.261 119.767 376.917 120.037C376.572 120.307 376.173 120.499 375.747 120.601C375.321 120.703 374.878 120.711 374.449 120.626L359.356 117.63C358.926 117.545 358.52 117.369 358.165 117.112C357.81 116.855 357.515 116.525 357.299 116.143Z" fill="#015792"/>
<path d="M349.038 303.19L339.354 303.19L334.747 265.779L349.04 265.78L349.038 303.19Z" fill="#FFB7B7"/>
<path d="M351.507 312.591L320.282 312.59V312.195C320.282 308.966 321.563 305.87 323.842 303.588C326.121 301.305 329.213 300.023 332.436 300.022H332.437L351.508 300.023L351.507 312.591Z" fill="#2F2E41"/>
<path d="M440.741 293.025L431.772 296.683L413.42 263.774L426.658 258.377L440.741 293.025Z" fill="#FFB7B7"/>
<path d="M446.569 300.8L417.648 312.591L417.499 312.225C416.284 309.235 416.305 305.884 417.556 302.909C418.808 299.934 421.188 297.579 424.173 296.361L424.174 296.361L441.837 289.159L446.569 300.8Z" fill="#2F2E41"/>
<path d="M357.849 147.848L353.393 124.236C352.424 120.76 352.252 117.109 352.89 113.556C353.527 110.004 354.958 106.642 357.075 103.721L373.364 81.9082L388.922 82.3665C396.279 100.222 397.633 119.991 392.781 138.686L389.921 149.704C402.747 161.29 411.346 193.775 419.173 230.076L440.631 277.604L403.714 288.829L379.797 219.127L358.432 289.348L327.146 288.145L350.942 179.527L357.849 147.848Z" fill="#2F2E41"/>
<path d="M382.637 77.4995C391.02 77.4995 397.815 70.6938 397.815 62.2986C397.815 53.9033 391.02 47.0977 382.637 47.0977C374.255 47.0977 367.46 53.9033 367.46 62.2986C367.46 70.6938 374.255 77.4995 382.637 77.4995Z" fill="#FFB7B7"/>
<path d="M442.546 96.8245C439.727 91.3081 438.764 85.0442 436.594 79.2405C434.424 73.4368 430.481 67.6787 424.503 66.0792C421.112 65.1719 417.508 65.7258 414.025 65.2938C410.963 64.914 407.665 63.348 406.492 60.6238C406.728 57.9232 406.391 55.2031 405.504 52.642C403.319 46.4245 398.109 41.5162 392.035 38.9789C387.101 36.9177 381.419 36.3356 376.38 38.1255C371.342 39.9154 367.112 44.2899 366.206 49.5669C365.301 54.8439 368.205 60.7362 373.213 62.6107C376.808 63.9565 381.439 63.5084 383.786 66.5498C386.165 69.6309 384.46 74.1212 382.3 77.3595L382.447 77.5098C389.503 77.5926 397.129 76.2272 401.989 71.1037C402.516 70.5443 403.001 69.9464 403.44 69.3149C403.589 69.554 403.745 69.7873 403.913 70.0101C406.36 73.2645 410.191 75.1107 413.841 76.9094C417.491 78.7081 421.276 80.7268 423.468 84.1586C427.429 90.3604 424.829 98.7132 427.094 105.717C428.103 108.835 430.047 111.566 432.662 113.536C435.277 115.506 438.436 116.621 441.706 116.727C444.977 116.833 448.201 115.926 450.938 114.13C453.675 112.333 455.792 109.734 457 106.688C450.833 107.204 445.366 102.341 442.546 96.8245Z" fill="#2F2E41"/>
<path d="M295.46 135.723L296.102 120.103L318.129 76.2405C318.75 74.9935 319.763 73.9851 321.011 73.3703C321.776 72.9883 322.609 72.7628 323.462 72.707C324.315 72.6513 325.17 72.7663 325.978 73.0455C326.913 73.3687 327.762 73.9039 328.457 74.6094C329.152 75.315 329.675 76.1718 329.985 77.1131C330.118 77.5195 330.211 77.9378 330.264 78.3622C330.421 79.6217 330.198 80.8994 329.625 82.0315L307.568 125.954L295.46 135.723Z" fill="#015792"/>
<path d="M323.755 73.001L299.845 120.614L298.021 119.695L321.147 73.6453C321.958 73.2389 322.849 73.0188 323.755 73.001Z" fill="#3F3D56"/>
<path d="M329.961 78.401L306.962 124.199L305.139 123.281L329 75.7666C329.293 76.215 329.527 76.6999 329.695 77.2091C329.822 77.5969 329.911 77.9961 329.961 78.401Z" fill="#3F3D56"/>
<path d="M327.671 74.3136L303.496 122.453L301.673 121.534L325.878 73.335C326.136 73.4233 326.387 73.5294 326.631 73.6524C326.998 73.838 327.347 74.0594 327.671 74.3136Z" fill="#3F3D56"/>
<path d="M298.226 133.098L295.793 135.06L295.997 129.887C296.832 130.177 297.736 131.436 298.226 133.098Z" fill="#3F3D56"/>
<path d="M323.307 83.9247C323.39 84.2906 323.445 84.6624 323.469 85.0368L352.551 101.84L359.62 97.7642L367.155 107.645L355.342 116.078C354.387 116.759 353.238 117.112 352.066 117.083C350.895 117.055 349.764 116.646 348.844 115.919L318.856 92.2247C317.502 92.7265 316.028 92.8037 314.63 92.446C313.232 92.0884 311.976 91.3129 311.028 90.2227C310.081 89.1324 309.487 87.7791 309.326 86.3428C309.166 84.9065 309.445 83.4552 310.128 82.1819C310.811 80.9087 311.865 79.8738 313.149 79.215C314.434 78.5562 315.888 78.3047 317.319 78.4939C318.75 78.6831 320.089 79.304 321.159 80.2741C322.228 81.2443 322.978 82.5176 323.307 83.9247Z" fill="#FFB7B7"/>
<path d="M352.95 100.161C353.037 99.7311 353.216 99.3255 353.475 98.9715C353.733 98.6176 354.065 98.3236 354.447 98.1097L367.792 90.6359C369.565 89.2652 371.809 88.6546 374.031 88.938C376.252 89.2215 378.272 90.3757 379.645 92.1478C381.018 93.9199 381.634 96.1651 381.357 98.3912C381.081 100.617 379.934 102.643 378.168 104.023L367.528 115.089C367.224 115.405 366.856 115.652 366.448 115.812C366.041 115.973 365.604 116.043 365.167 116.019C364.73 115.995 364.303 115.877 363.915 115.673C363.528 115.469 363.189 115.184 362.922 114.837L353.522 102.636C353.255 102.289 353.065 101.888 352.966 101.461C352.867 101.034 352.862 100.59 352.95 100.161Z" fill="#015792"/>
<path d="M455.067 313H221.598C221.436 313 221.28 312.935 221.165 312.82C221.05 312.705 220.985 312.549 220.985 312.386C220.985 312.223 221.05 312.067 221.165 311.952C221.28 311.837 221.436 311.772 221.598 311.772H455.067C455.229 311.772 455.385 311.837 455.5 311.952C455.615 312.067 455.68 312.223 455.68 312.386C455.68 312.549 455.615 312.705 455.5 312.82C455.385 312.935 455.229 313 455.067 313Z" fill="#CBCBCB"/>
</g>
<defs>
<clipPath id="clip0_553_7513">
<rect width="457" height="313" fill="white"/>
</clipPath>
</defs>
</svg>
